M48
;Layer_Color=9474304
;FILE_FORMAT=4:3
METRIC,LZ
;TYPE=PLATED
T1F00S00C0.400
T2F00S00C0.700
T3F00S00C0.900
T4F00S00C3.500
%
T01
X01076Y01051
X01093Y01063
X01123Y01057
X0113194Y0108792
X01139Y01151
X01158Y01146
X01188Y01143
X011805Y011285
X01171Y01187
X01161
X01074Y0116
X01135Y01016
X01176
X01215
X01238Y01068
X01272Y0106
X01323Y01079
X01286Y01147
X01214Y01142
X01469Y01134
Y01189
X01485Y01086
X01498Y01086
X01469Y01244
Y01299
Y01354
Y01409
X01287Y01397
Y01347
X013105Y013355
Y012805
X01287Y01297
Y01247
X01286Y01197
X01202Y01244
X01192Y01294
X01208Y013285
X011945Y013745
X01206Y01403
X01184Y01371
X01156Y0137
X01182Y01294
X01172Y01247
X01161
X0116725Y0122975
X0118025Y0122225
X01188Y01241
X0114775Y0125825
X01132Y01196
T02
X01113Y01392
X01128
X01143
X01158
X01173
T03
X0107Y011175
Y011425
X013865Y01072
X014115
X01536Y011245
Y011495
Y011745
Y011995
Y012245
Y012495
Y012745
Y012995
X0107Y013075
Y012825
T04
X0102Y01035
X01595
Y0139
X0102
M30
