G04*
G04 #@! TF.GenerationSoftware,Altium Limited,Altium Designer,20.0.13 (296)*
G04*
G04 Layer_Color=32768*
%FSLAX43Y43*%
%MOMM*%
G71*
G01*
G75*
%ADD12C,0.200*%
%ADD15C,0.254*%
%ADD16C,0.150*%
%ADD87C,0.100*%
%ADD88C,0.127*%
%ADD89C,0.050*%
%ADD90C,0.120*%
D12*
X109800Y141396D02*
X118795D01*
X109800Y137904D02*
Y141396D01*
Y137904D02*
X118795D01*
Y141396D01*
X86550Y138200D02*
Y142000D01*
X78950Y138200D02*
X86550D01*
X78950D02*
Y142000D01*
X86550D01*
X95550Y138200D02*
Y142000D01*
X87950Y138200D02*
X95550D01*
X87950D02*
Y142000D01*
X95550D01*
X84250Y104300D02*
X96850D01*
X84250Y100500D02*
Y104300D01*
Y100500D02*
X96850D01*
Y104300D01*
X69700Y132600D02*
X73500D01*
Y110000D02*
Y132600D01*
X69700Y110000D02*
X73500D01*
X69700D02*
Y132600D01*
X74605Y111304D02*
Y114796D01*
X79100D01*
Y111304D02*
Y114796D01*
X74605Y111304D02*
X79100D01*
X151300Y132450D02*
X162800D01*
Y109950D02*
Y132450D01*
X151300Y109950D02*
X162800D01*
X151300D02*
Y132450D01*
X136100Y100500D02*
Y108700D01*
X143700D01*
Y100500D02*
Y108700D01*
X136100Y100500D02*
X143700D01*
D15*
X95918Y111058D02*
Y112645D01*
X95601Y112962D01*
X94966D01*
X94648Y112645D01*
Y111058D01*
X92744D02*
X94014D01*
Y112010D01*
X93379Y111692D01*
X93061D01*
X92744Y112010D01*
Y112645D01*
X93061Y112962D01*
X93696D01*
X94014Y112645D01*
D16*
X124100Y133700D02*
X125100D01*
Y134366D01*
Y135366D02*
Y134700D01*
X124434Y135366D01*
X124267D01*
X124100Y135200D01*
Y134866D01*
X124267Y134700D01*
X128200Y128800D02*
X129033D01*
X129200Y128967D01*
Y129300D01*
X129033Y129466D01*
X128200D01*
X129200Y129800D02*
Y130133D01*
Y129966D01*
X128200D01*
X128367Y129800D01*
X129200Y130633D02*
Y130966D01*
Y130799D01*
X128200D01*
X128367Y130633D01*
X121100Y123700D02*
Y122867D01*
X121267Y122700D01*
X121600D01*
X121766Y122867D01*
Y123700D01*
X122100Y122700D02*
X122433D01*
X122266D01*
Y123700D01*
X122100Y123533D01*
X123599Y122700D02*
X122933D01*
X123599Y123366D01*
Y123533D01*
X123433Y123700D01*
X123099D01*
X122933Y123533D01*
X80700Y108900D02*
X79867D01*
X79700Y108733D01*
Y108400D01*
X79867Y108234D01*
X80700D01*
X79700Y107400D02*
X80700D01*
X80200Y107900D01*
Y107234D01*
X78900Y104800D02*
Y103800D01*
X79400D01*
X79566Y103967D01*
Y104633D01*
X79400Y104800D01*
X78900D01*
X80566Y103800D02*
X79900D01*
X80566Y104466D01*
Y104633D01*
X80400Y104800D01*
X80066D01*
X79900Y104633D01*
X138800Y140800D02*
X139800D01*
Y140300D01*
X139633Y140134D01*
X139300D01*
X139133Y140300D01*
Y140800D01*
Y140467D02*
X138800Y140134D01*
X139633Y139800D02*
X139800Y139634D01*
Y139300D01*
X139633Y139134D01*
X139466D01*
X139300Y139300D01*
X139133Y139134D01*
X138967D01*
X138800Y139300D01*
Y139634D01*
X138967Y139800D01*
X139133D01*
X139300Y139634D01*
X139466Y139800D01*
X139633D01*
X139300Y139634D02*
Y139300D01*
X139800Y138134D02*
Y138801D01*
X139300D01*
X139466Y138467D01*
Y138301D01*
X139300Y138134D01*
X138967D01*
X138800Y138301D01*
Y138634D01*
X138967Y138801D01*
X141550Y140800D02*
X142550D01*
Y140300D01*
X142383Y140134D01*
X142050D01*
X141883Y140300D01*
Y140800D01*
Y140467D02*
X141550Y140134D01*
X142383Y139800D02*
X142550Y139634D01*
Y139300D01*
X142383Y139134D01*
X142216D01*
X142050Y139300D01*
X141883Y139134D01*
X141717D01*
X141550Y139300D01*
Y139634D01*
X141717Y139800D01*
X141883D01*
X142050Y139634D01*
X142216Y139800D01*
X142383D01*
X142050Y139634D02*
Y139300D01*
X142550Y138134D02*
X142383Y138467D01*
X142050Y138801D01*
X141717D01*
X141550Y138634D01*
Y138301D01*
X141717Y138134D01*
X141883D01*
X142050Y138301D01*
Y138801D01*
X144300Y140800D02*
X145300D01*
Y140300D01*
X145133Y140134D01*
X144800D01*
X144633Y140300D01*
Y140800D01*
Y140467D02*
X144300Y140134D01*
X145133Y139800D02*
X145300Y139634D01*
Y139300D01*
X145133Y139134D01*
X144966D01*
X144800Y139300D01*
X144633Y139134D01*
X144467D01*
X144300Y139300D01*
Y139634D01*
X144467Y139800D01*
X144633D01*
X144800Y139634D01*
X144966Y139800D01*
X145133D01*
X144800Y139634D02*
Y139300D01*
X145300Y138801D02*
Y138134D01*
X145133D01*
X144467Y138801D01*
X144300D01*
X148459Y139258D02*
X149125D01*
X149292Y139424D01*
Y139757D01*
X149125Y139924D01*
X148459D01*
X148292Y139757D01*
Y139424D01*
X148625Y139591D02*
X148292Y139258D01*
Y139424D02*
X148459Y139258D01*
X148292Y138924D02*
Y138591D01*
Y138758D01*
X149292D01*
X149125Y138924D01*
X148292Y137425D02*
Y138091D01*
X148958Y137425D01*
X149125D01*
X149292Y137591D01*
Y137925D01*
X149125Y138091D01*
X138800Y135300D02*
X139800D01*
Y134800D01*
X139633Y134634D01*
X139300D01*
X139133Y134800D01*
Y135300D01*
Y134967D02*
X138800Y134634D01*
X139800Y134300D02*
Y133634D01*
X139633D01*
X138967Y134300D01*
X138800D01*
X139633Y133301D02*
X139800Y133134D01*
Y132801D01*
X139633Y132634D01*
X138967D01*
X138800Y132801D01*
Y133134D01*
X138967Y133301D01*
X139633D01*
X141550Y135300D02*
X142550D01*
Y134800D01*
X142383Y134634D01*
X142050D01*
X141883Y134800D01*
Y135300D01*
Y134967D02*
X141550Y134634D01*
X142550Y134300D02*
Y133634D01*
X142383D01*
X141717Y134300D01*
X141550D01*
Y133301D02*
Y132967D01*
Y133134D01*
X142550D01*
X142383Y133301D01*
X144300Y135300D02*
X145300D01*
Y134800D01*
X145133Y134634D01*
X144800D01*
X144633Y134800D01*
Y135300D01*
Y134967D02*
X144300Y134634D01*
X145300Y134300D02*
Y133634D01*
X145133D01*
X144467Y134300D01*
X144300D01*
Y132634D02*
Y133301D01*
X144966Y132634D01*
X145133D01*
X145300Y132801D01*
Y133134D01*
X145133Y133301D01*
X148459Y133758D02*
X149125D01*
X149292Y133924D01*
Y134257D01*
X149125Y134424D01*
X148459D01*
X148292Y134257D01*
Y133924D01*
X148625Y134091D02*
X148292Y133758D01*
Y133924D02*
X148459Y133758D01*
X148292Y133424D02*
Y133091D01*
Y133258D01*
X149292D01*
X149125Y133424D01*
Y132591D02*
X149292Y132425D01*
Y132091D01*
X149125Y131925D01*
X148459D01*
X148292Y132091D01*
Y132425D01*
X148459Y132591D01*
X149125D01*
X138800Y129800D02*
X139800D01*
Y129300D01*
X139633Y129134D01*
X139300D01*
X139133Y129300D01*
Y129800D01*
Y129467D02*
X138800Y129134D01*
X139800Y128134D02*
Y128800D01*
X139300D01*
X139466Y128467D01*
Y128300D01*
X139300Y128134D01*
X138967D01*
X138800Y128300D01*
Y128634D01*
X138967Y128800D01*
X139800Y127801D02*
Y127134D01*
X139633D01*
X138967Y127801D01*
X138800D01*
X141550Y129800D02*
X142550D01*
Y129300D01*
X142383Y129134D01*
X142050D01*
X141883Y129300D01*
Y129800D01*
Y129467D02*
X141550Y129134D01*
X142550Y128134D02*
Y128800D01*
X142050D01*
X142216Y128467D01*
Y128300D01*
X142050Y128134D01*
X141717D01*
X141550Y128300D01*
Y128634D01*
X141717Y128800D01*
X142383Y127801D02*
X142550Y127634D01*
Y127301D01*
X142383Y127134D01*
X142216D01*
X142050Y127301D01*
X141883Y127134D01*
X141717D01*
X141550Y127301D01*
Y127634D01*
X141717Y127801D01*
X141883D01*
X142050Y127634D01*
X142216Y127801D01*
X142383D01*
X142050Y127634D02*
Y127301D01*
X144300Y129800D02*
X145300D01*
Y129300D01*
X145133Y129134D01*
X144800D01*
X144633Y129300D01*
Y129800D01*
Y129467D02*
X144300Y129134D01*
X145300Y128134D02*
Y128800D01*
X144800D01*
X144966Y128467D01*
Y128300D01*
X144800Y128134D01*
X144467D01*
X144300Y128300D01*
Y128634D01*
X144467Y128800D01*
Y127801D02*
X144300Y127634D01*
Y127301D01*
X144467Y127134D01*
X145133D01*
X145300Y127301D01*
Y127634D01*
X145133Y127801D01*
X144966D01*
X144800Y127634D01*
Y127134D01*
X148459Y128258D02*
X149125D01*
X149292Y128424D01*
Y128757D01*
X149125Y128924D01*
X148459D01*
X148292Y128757D01*
Y128424D01*
X148625Y128591D02*
X148292Y128258D01*
Y128424D02*
X148459Y128258D01*
X149125Y127924D02*
X149292Y127758D01*
Y127424D01*
X149125Y127258D01*
X148958D01*
X148792Y127424D01*
X148625Y127258D01*
X148459D01*
X148292Y127424D01*
Y127758D01*
X148459Y127924D01*
X148625D01*
X148792Y127758D01*
X148958Y127924D01*
X149125D01*
X148792Y127758D02*
Y127424D01*
X138800Y124300D02*
X139800D01*
Y123800D01*
X139633Y123634D01*
X139300D01*
X139133Y123800D01*
Y124300D01*
Y123967D02*
X138800Y123634D01*
Y122800D02*
X139800D01*
X139300Y123300D01*
Y122634D01*
X138800Y121634D02*
Y122301D01*
X139466Y121634D01*
X139633D01*
X139800Y121801D01*
Y122134D01*
X139633Y122301D01*
X141550Y124300D02*
X142550D01*
Y123800D01*
X142383Y123634D01*
X142050D01*
X141883Y123800D01*
Y124300D01*
Y123967D02*
X141550Y123634D01*
Y122800D02*
X142550D01*
X142050Y123300D01*
Y122634D01*
X142383Y122301D02*
X142550Y122134D01*
Y121801D01*
X142383Y121634D01*
X142216D01*
X142050Y121801D01*
Y121967D01*
Y121801D01*
X141883Y121634D01*
X141717D01*
X141550Y121801D01*
Y122134D01*
X141717Y122301D01*
X144300Y124300D02*
X145300D01*
Y123800D01*
X145133Y123634D01*
X144800D01*
X144633Y123800D01*
Y124300D01*
Y123967D02*
X144300Y123634D01*
Y122800D02*
X145300D01*
X144800Y123300D01*
Y122634D01*
X144300Y121801D02*
X145300D01*
X144800Y122301D01*
Y121634D01*
X148459Y122758D02*
X149125D01*
X149292Y122924D01*
Y123257D01*
X149125Y123424D01*
X148459D01*
X148292Y123257D01*
Y122924D01*
X148625Y123091D02*
X148292Y122758D01*
Y122924D02*
X148459Y122758D01*
X149292Y121758D02*
X149125Y122091D01*
X148792Y122424D01*
X148459D01*
X148292Y122258D01*
Y121924D01*
X148459Y121758D01*
X148625D01*
X148792Y121924D01*
Y122424D01*
X138800Y118800D02*
X139800D01*
Y118300D01*
X139633Y118134D01*
X139300D01*
X139133Y118300D01*
Y118800D01*
Y118467D02*
X138800Y118134D01*
Y117134D02*
Y117800D01*
X139466Y117134D01*
X139633D01*
X139800Y117300D01*
Y117634D01*
X139633Y117800D01*
Y116801D02*
X139800Y116634D01*
Y116301D01*
X139633Y116134D01*
X139466D01*
X139300Y116301D01*
X139133Y116134D01*
X138967D01*
X138800Y116301D01*
Y116634D01*
X138967Y116801D01*
X139133D01*
X139300Y116634D01*
X139466Y116801D01*
X139633D01*
X139300Y116634D02*
Y116301D01*
X141550Y118800D02*
X142550D01*
Y118300D01*
X142383Y118134D01*
X142050D01*
X141883Y118300D01*
Y118800D01*
Y118467D02*
X141550Y118134D01*
Y117134D02*
Y117800D01*
X142216Y117134D01*
X142383D01*
X142550Y117300D01*
Y117634D01*
X142383Y117800D01*
X141717Y116801D02*
X141550Y116634D01*
Y116301D01*
X141717Y116134D01*
X142383D01*
X142550Y116301D01*
Y116634D01*
X142383Y116801D01*
X142216D01*
X142050Y116634D01*
Y116134D01*
X144300Y118800D02*
X145300D01*
Y118300D01*
X145133Y118134D01*
X144800D01*
X144633Y118300D01*
Y118800D01*
Y118467D02*
X144300Y118134D01*
X145133Y117800D02*
X145300Y117634D01*
Y117300D01*
X145133Y117134D01*
X144966D01*
X144800Y117300D01*
Y117467D01*
Y117300D01*
X144633Y117134D01*
X144467D01*
X144300Y117300D01*
Y117634D01*
X144467Y117800D01*
X145133Y116801D02*
X145300Y116634D01*
Y116301D01*
X145133Y116134D01*
X144467D01*
X144300Y116301D01*
Y116634D01*
X144467Y116801D01*
X145133D01*
X83900Y136500D02*
Y135667D01*
X84067Y135500D01*
X84400D01*
X84566Y135667D01*
Y136500D01*
X85566Y135500D02*
X84900D01*
X85566Y136166D01*
Y136333D01*
X85400Y136500D01*
X85066D01*
X84900Y136333D01*
X148459Y117258D02*
X149125D01*
X149292Y117424D01*
Y117757D01*
X149125Y117924D01*
X148459D01*
X148292Y117757D01*
Y117424D01*
X148625Y117591D02*
X148292Y117258D01*
Y117424D02*
X148459Y117258D01*
X149125Y116924D02*
X149292Y116758D01*
Y116424D01*
X149125Y116258D01*
X148958D01*
X148792Y116424D01*
Y116591D01*
Y116424D01*
X148625Y116258D01*
X148459D01*
X148292Y116424D01*
Y116758D01*
X148459Y116924D01*
X138800Y113300D02*
X139800D01*
Y112800D01*
X139633Y112634D01*
X139300D01*
X139133Y112800D01*
Y113300D01*
Y112967D02*
X138800Y112634D01*
Y112300D02*
Y111967D01*
Y112134D01*
X139800D01*
X139633Y112300D01*
X138800Y111467D02*
Y111134D01*
Y111301D01*
X139800D01*
X139633Y111467D01*
X141550Y113300D02*
X142550D01*
Y112800D01*
X142383Y112634D01*
X142050D01*
X141883Y112800D01*
Y113300D01*
Y112967D02*
X141550Y112634D01*
Y112300D02*
Y111967D01*
Y112134D01*
X142550D01*
X142383Y112300D01*
X141550Y110801D02*
Y111467D01*
X142216Y110801D01*
X142383D01*
X142550Y110967D01*
Y111301D01*
X142383Y111467D01*
X144300Y113300D02*
X145300D01*
Y112800D01*
X145133Y112634D01*
X144800D01*
X144633Y112800D01*
Y113300D01*
Y112967D02*
X144300Y112634D01*
Y112300D02*
Y111967D01*
Y112134D01*
X145300D01*
X145133Y112300D01*
Y111467D02*
X145300Y111301D01*
Y110967D01*
X145133Y110801D01*
X144966D01*
X144800Y110967D01*
Y111134D01*
Y110967D01*
X144633Y110801D01*
X144467D01*
X144300Y110967D01*
Y111301D01*
X144467Y111467D01*
X148459Y111758D02*
X149125D01*
X149292Y111924D01*
Y112257D01*
X149125Y112424D01*
X148459D01*
X148292Y112257D01*
Y111924D01*
X148625Y112091D02*
X148292Y111758D01*
Y111924D02*
X148459Y111758D01*
X148292Y111424D02*
Y111091D01*
Y111258D01*
X149292D01*
X149125Y111424D01*
X135109Y114258D02*
X135775D01*
X135942Y114424D01*
Y114757D01*
X135775Y114924D01*
X135109D01*
X134942Y114757D01*
Y114424D01*
X135275Y114591D02*
X134942Y114258D01*
Y114424D02*
X135109Y114258D01*
X134942Y113258D02*
Y113924D01*
X135608Y113258D01*
X135775D01*
X135942Y113424D01*
Y113758D01*
X135775Y113924D01*
X135109Y119258D02*
X135775D01*
X135942Y119424D01*
Y119757D01*
X135775Y119924D01*
X135109D01*
X134942Y119757D01*
Y119424D01*
X135275Y119591D02*
X134942Y119258D01*
Y119424D02*
X135109Y119258D01*
X134942Y118424D02*
X135942D01*
X135442Y118924D01*
Y118258D01*
X92859Y133158D02*
X93525D01*
X93692Y133324D01*
Y133657D01*
X93525Y133824D01*
X92859D01*
X92692Y133657D01*
Y133324D01*
X93025Y133491D02*
X92692Y133158D01*
Y133324D02*
X92859Y133158D01*
X93692Y132158D02*
Y132824D01*
X93192D01*
X93358Y132491D01*
Y132324D01*
X93192Y132158D01*
X92859D01*
X92692Y132324D01*
Y132658D01*
X92859Y132824D01*
X135209Y124258D02*
X135875D01*
X136042Y124424D01*
Y124757D01*
X135875Y124924D01*
X135209D01*
X135042Y124757D01*
Y124424D01*
X135375Y124591D02*
X135042Y124258D01*
Y124424D02*
X135209Y124258D01*
X136042Y123924D02*
Y123258D01*
X135875D01*
X135209Y123924D01*
X135042D01*
X135209Y129258D02*
X135875D01*
X136042Y129424D01*
Y129757D01*
X135875Y129924D01*
X135209D01*
X135042Y129757D01*
Y129424D01*
X135375Y129591D02*
X135042Y129258D01*
Y129424D02*
X135209Y129258D01*
Y128924D02*
X135042Y128758D01*
Y128424D01*
X135209Y128258D01*
X135875D01*
X136042Y128424D01*
Y128758D01*
X135875Y128924D01*
X135708D01*
X135542Y128758D01*
Y128258D01*
X135209Y134258D02*
X135875D01*
X136042Y134424D01*
Y134757D01*
X135875Y134924D01*
X135209D01*
X135042Y134757D01*
Y134424D01*
X135375Y134591D02*
X135042Y134258D01*
Y134424D02*
X135209Y134258D01*
X135042Y133924D02*
Y133591D01*
Y133758D01*
X136042D01*
X135875Y133924D01*
X135042Y133091D02*
Y132758D01*
Y132925D01*
X136042D01*
X135875Y133091D01*
X135209Y139258D02*
X135875D01*
X136042Y139424D01*
Y139757D01*
X135875Y139924D01*
X135209D01*
X135042Y139757D01*
Y139424D01*
X135375Y139591D02*
X135042Y139258D01*
Y139424D02*
X135209Y139258D01*
X135042Y138924D02*
Y138591D01*
Y138758D01*
X136042D01*
X135875Y138924D01*
Y138091D02*
X136042Y137925D01*
Y137591D01*
X135875Y137425D01*
X135708D01*
X135542Y137591D01*
Y137758D01*
Y137591D01*
X135375Y137425D01*
X135209D01*
X135042Y137591D01*
Y137925D01*
X135209Y138091D01*
X108600Y116400D02*
X109433D01*
X109600Y116567D01*
Y116900D01*
X109433Y117066D01*
X108600D01*
X109433Y117400D02*
X109600Y117566D01*
Y117900D01*
X109433Y118066D01*
X108767D01*
X108600Y117900D01*
Y117566D01*
X108767Y117400D01*
X108934D01*
X109100Y117566D01*
Y118066D01*
X79900Y115600D02*
X80900D01*
Y116100D01*
X80733Y116266D01*
X80067D01*
X79900Y116100D01*
Y115600D01*
Y116600D02*
Y117266D01*
X80067D01*
X80733Y116600D01*
X80900D01*
X78900Y115900D02*
Y116900D01*
X78400D01*
X78234Y116733D01*
Y116067D01*
X78400Y115900D01*
X78900D01*
X77234D02*
X77567Y116067D01*
X77900Y116400D01*
Y116733D01*
X77734Y116900D01*
X77400D01*
X77234Y116733D01*
Y116567D01*
X77400Y116400D01*
X77900D01*
X78800Y120500D02*
Y121500D01*
X78300D01*
X78134Y121333D01*
Y120667D01*
X78300Y120500D01*
X78800D01*
X77134D02*
X77800D01*
Y121000D01*
X77467Y120834D01*
X77300D01*
X77134Y121000D01*
Y121333D01*
X77300Y121500D01*
X77634D01*
X77800Y121333D01*
X77834Y122800D02*
X78500D01*
Y123300D01*
X78167D01*
X78500D01*
Y123800D01*
X77500Y122967D02*
X77334Y122800D01*
X77000D01*
X76834Y122967D01*
Y123134D01*
X77000Y123300D01*
X76834Y123467D01*
Y123633D01*
X77000Y123800D01*
X77334D01*
X77500Y123633D01*
Y123467D01*
X77334Y123300D01*
X77500Y123134D01*
Y122967D01*
X77334Y123300D02*
X77000D01*
X77834Y118200D02*
X78500D01*
Y118700D01*
X78167D01*
X78500D01*
Y119200D01*
X77500Y119033D02*
X77334Y119200D01*
X77000D01*
X76834Y119033D01*
Y118367D01*
X77000Y118200D01*
X77334D01*
X77500Y118367D01*
Y118534D01*
X77334Y118700D01*
X76834D01*
X83200Y118834D02*
Y119500D01*
X82700D01*
Y119167D01*
Y119500D01*
X82200D01*
Y118500D02*
Y118167D01*
Y118334D01*
X83200D01*
X83033Y118500D01*
Y117667D02*
X83200Y117501D01*
Y117167D01*
X83033Y117001D01*
X82367D01*
X82200Y117167D01*
Y117501D01*
X82367Y117667D01*
X83033D01*
X78908Y125376D02*
X79908D01*
Y125876D01*
X79741Y126042D01*
X79075D01*
X78908Y125876D01*
Y125376D01*
X79075Y126376D02*
X78908Y126542D01*
Y126876D01*
X79075Y127042D01*
X79242D01*
X79408Y126876D01*
Y126709D01*
Y126876D01*
X79575Y127042D01*
X79741D01*
X79908Y126876D01*
Y126542D01*
X79741Y126376D01*
X78908Y128876D02*
X79908D01*
Y129376D01*
X79741Y129542D01*
X79075D01*
X78908Y129376D01*
Y128876D01*
X79908Y130376D02*
X78908D01*
X79408Y129876D01*
Y130542D01*
X99741Y122942D02*
X99075D01*
X98908Y122776D01*
Y122443D01*
X99075Y122276D01*
X99741D01*
X99908Y122443D01*
Y122776D01*
X99575Y122609D02*
X99908Y122942D01*
Y122776D02*
X99741Y122942D01*
X99908Y123276D02*
Y123609D01*
Y123442D01*
X98908D01*
X99075Y123276D01*
X99908Y124609D02*
X98908D01*
X99408Y124109D01*
Y124775D01*
X117692Y126724D02*
X116859D01*
X116692Y126557D01*
Y126224D01*
X116859Y126058D01*
X117692D01*
X116692Y125724D02*
Y125391D01*
Y125558D01*
X117692D01*
X117525Y125724D01*
Y124891D02*
X117692Y124725D01*
Y124391D01*
X117525Y124225D01*
X116859D01*
X116692Y124391D01*
Y124725D01*
X116859Y124891D01*
X117525D01*
X83000Y102400D02*
Y101400D01*
X82500D01*
X82334Y101567D01*
Y101900D01*
X82500Y102067D01*
X83000D01*
X82667D02*
X82334Y102400D01*
X82000Y102233D02*
X81834Y102400D01*
X81500D01*
X81334Y102233D01*
Y101567D01*
X81500Y101400D01*
X81834D01*
X82000Y101567D01*
Y101734D01*
X81834Y101900D01*
X81334D01*
X81001Y102400D02*
X80667D01*
X80834D01*
Y101400D01*
X81001Y101567D01*
X85624Y106508D02*
Y107341D01*
X85457Y107508D01*
X85124D01*
X84958Y107341D01*
Y106508D01*
X83958D02*
X84291Y106675D01*
X84624Y107008D01*
Y107341D01*
X84458Y107508D01*
X84124D01*
X83958Y107341D01*
Y107175D01*
X84124Y107008D01*
X84624D01*
X116034Y139000D02*
X116367D01*
X116200D01*
Y139833D01*
X116367Y140000D01*
X116533D01*
X116700Y139833D01*
X115700Y139167D02*
X115534Y139000D01*
X115200D01*
X115034Y139167D01*
Y139334D01*
X115200Y139500D01*
X115367D01*
X115200D01*
X115034Y139667D01*
Y139833D01*
X115200Y140000D01*
X115534D01*
X115700Y139833D01*
X80716Y140800D02*
X80383D01*
X80550D01*
Y139967D01*
X80383Y139800D01*
X80217D01*
X80050Y139967D01*
X81716Y139800D02*
X81050D01*
X81716Y140466D01*
Y140633D01*
X81550Y140800D01*
X81216D01*
X81050Y140633D01*
X89716Y140800D02*
X89383D01*
X89550D01*
Y139967D01*
X89383Y139800D01*
X89217D01*
X89050Y139967D01*
X90050Y139800D02*
X90383D01*
X90216D01*
Y140800D01*
X90050Y140633D01*
X88516Y103100D02*
X88183D01*
X88350D01*
Y102267D01*
X88183Y102100D01*
X88017D01*
X87850Y102267D01*
X89516Y103100D02*
X88850D01*
Y102600D01*
X89183Y102766D01*
X89350D01*
X89516Y102600D01*
Y102267D01*
X89350Y102100D01*
X89016D01*
X88850Y102267D01*
X70800Y117766D02*
Y117433D01*
Y117600D01*
X71633D01*
X71800Y117433D01*
Y117267D01*
X71633Y117100D01*
X70800Y118766D02*
X70967Y118433D01*
X71300Y118100D01*
X71633D01*
X71800Y118266D01*
Y118600D01*
X71633Y118766D01*
X71467D01*
X71300Y118600D01*
Y118100D01*
X75316Y113700D02*
X74983D01*
X75150D01*
Y112867D01*
X74983Y112700D01*
X74817D01*
X74650Y112867D01*
X75650Y113700D02*
X76316D01*
Y113533D01*
X75650Y112867D01*
Y112700D01*
X121550Y106700D02*
Y105867D01*
X121717Y105700D01*
X122050D01*
X122216Y105867D01*
Y106700D01*
X122550Y105700D02*
X122883D01*
X122716D01*
Y106700D01*
X122550Y106533D01*
X86300Y121350D02*
X87133D01*
X87300Y121517D01*
Y121850D01*
X87133Y122016D01*
X86300D01*
X86467Y122350D02*
X86300Y122516D01*
Y122850D01*
X86467Y123016D01*
X86634D01*
X86800Y122850D01*
X86967Y123016D01*
X87133D01*
X87300Y122850D01*
Y122516D01*
X87133Y122350D01*
X86967D01*
X86800Y122516D01*
X86634Y122350D01*
X86467D01*
X86800Y122516D02*
Y122850D01*
X158500Y124884D02*
Y125217D01*
Y125050D01*
X157667D01*
X157500Y125217D01*
Y125383D01*
X157667Y125550D01*
X158333Y124550D02*
X158500Y124384D01*
Y124050D01*
X158333Y123884D01*
X158166D01*
X158000Y124050D01*
X157833Y123884D01*
X157667D01*
X157500Y124050D01*
Y124384D01*
X157667Y124550D01*
X157833D01*
X158000Y124384D01*
X158166Y124550D01*
X158333D01*
X158000Y124384D02*
Y124050D01*
X141434Y103600D02*
X141767D01*
X141600D01*
Y104433D01*
X141767Y104600D01*
X141933D01*
X142100Y104433D01*
X141100D02*
X140934Y104600D01*
X140600D01*
X140434Y104433D01*
Y103767D01*
X140600Y103600D01*
X140934D01*
X141100Y103767D01*
Y103934D01*
X140934Y104100D01*
X140434D01*
D87*
X125050Y129150D02*
X126550D01*
X125050Y132250D02*
X126550D01*
X125050Y129150D02*
Y132250D01*
X126550Y129150D02*
Y132250D01*
X121850Y141350D02*
X124950D01*
X121850Y139850D02*
X124950D01*
X121850D02*
Y141350D01*
X124950Y139850D02*
Y141350D01*
X127750Y134750D02*
Y136250D01*
X130850Y134750D02*
Y136250D01*
X127750D02*
X130850D01*
X127750Y134750D02*
X130850D01*
X122050Y132150D02*
X123550D01*
X122050Y129050D02*
X123550D01*
Y132150D01*
X122050Y129050D02*
Y132150D01*
X130600Y127750D02*
Y134250D01*
X127000Y127750D02*
Y134250D01*
X130600D01*
X127000Y127750D02*
X130600D01*
X126650Y124150D02*
Y127250D01*
X125150Y124150D02*
Y127250D01*
X126650D01*
X125150Y124150D02*
X126650D01*
X127750Y139650D02*
X130850D01*
X127750Y138150D02*
X130850D01*
X127750D02*
Y139650D01*
X130850Y138150D02*
Y139650D01*
X127250Y125850D02*
Y127350D01*
X130350Y125850D02*
Y127350D01*
X127250D02*
X130350D01*
X127250Y125850D02*
X130350D01*
X125350Y141350D02*
X128450D01*
X125350Y139850D02*
X128450D01*
X125350D02*
Y141350D01*
X128450Y139850D02*
Y141350D01*
X127250Y123250D02*
X130350D01*
X127250Y124750D02*
X130350D01*
Y123250D02*
Y124750D01*
X127250Y123250D02*
Y124750D01*
X130850Y136450D02*
Y137950D01*
X127750Y136450D02*
Y137950D01*
Y136450D02*
X130850D01*
X127750Y137950D02*
X130850D01*
X120925Y121100D02*
X124475D01*
X120925Y125100D02*
X124475D01*
X120925Y121100D02*
Y125100D01*
X124475Y121100D02*
Y125100D01*
Y121100D02*
Y125100D01*
X120925Y121100D02*
Y125100D01*
X124475D01*
X120925Y121100D02*
X124475D01*
X124350Y125550D02*
Y127050D01*
X121250Y125550D02*
Y127050D01*
Y125550D02*
X124350D01*
X121250Y127050D02*
X124350D01*
X114550Y129250D02*
Y132350D01*
X113050Y129250D02*
Y132350D01*
X114550D01*
X113050Y129250D02*
X114550D01*
X114750Y128650D02*
Y131750D01*
X116250Y128650D02*
Y131750D01*
X114750Y128650D02*
X116250D01*
X114750Y131750D02*
X116250D01*
X113050Y126050D02*
X114550D01*
X113050Y129150D02*
X114550D01*
X113050Y126050D02*
Y129150D01*
X114550Y126050D02*
Y129150D01*
X92750Y127050D02*
Y128550D01*
X95850Y127050D02*
Y128550D01*
X92750D02*
X95850D01*
X92750Y127050D02*
X95850D01*
X92750Y128550D02*
Y130050D01*
X95850Y128550D02*
Y130050D01*
X92750D02*
X95850D01*
X92750Y128550D02*
X95850D01*
X91050Y104850D02*
X94150D01*
X91050Y106350D02*
X94150D01*
Y104850D02*
Y106350D01*
X91050Y104850D02*
Y106350D01*
X78100Y105525D02*
Y109075D01*
X82100Y105525D02*
Y109075D01*
X78100D02*
X82100D01*
X78100Y105525D02*
X82100D01*
X78100D02*
X82100D01*
X78100Y109075D02*
X82100D01*
Y105525D02*
Y109075D01*
X78100Y105525D02*
Y109075D01*
X78600Y103200D02*
Y105400D01*
X83400D01*
Y103200D02*
Y105400D01*
X78600Y103200D02*
X83400D01*
X133950Y104650D02*
X135450D01*
X133950Y107750D02*
X135450D01*
X133950Y104650D02*
Y107750D01*
X135450Y104650D02*
Y107750D01*
X138150Y136550D02*
Y141250D01*
X140450Y136550D02*
Y141250D01*
X138150Y136550D02*
X140450D01*
X138150Y141250D02*
X140450D01*
X140900Y136550D02*
Y141250D01*
X143200Y136550D02*
Y141250D01*
X140900Y136550D02*
X143200D01*
X140900Y141250D02*
X143200D01*
X143650Y136550D02*
Y141250D01*
X145950Y136550D02*
Y141250D01*
X143650Y136550D02*
X145950D01*
X143650Y141250D02*
X145950D01*
X132050Y136850D02*
X133550D01*
X132050Y139950D02*
X133550D01*
X132050Y136850D02*
Y139950D01*
X133550Y136850D02*
Y139950D01*
X120250Y130050D02*
Y133150D01*
X118750Y130050D02*
Y133150D01*
X120250D01*
X118750Y130050D02*
X120250D01*
X118650Y130050D02*
Y133150D01*
X117150Y130050D02*
Y133150D01*
X118650D01*
X117150Y130050D02*
X118650D01*
X119850Y133450D02*
X121350D01*
X119850Y136550D02*
X121350D01*
X119850Y133450D02*
Y136550D01*
X121350Y133450D02*
Y136550D01*
X118150Y133450D02*
X119650D01*
X118150Y136550D02*
X119650D01*
X118150Y133450D02*
Y136550D01*
X119650Y133450D02*
Y136550D01*
X128250Y118450D02*
Y119950D01*
X125150Y118450D02*
Y119950D01*
Y118450D02*
X128250D01*
X125150Y119950D02*
X128250D01*
X137600Y140150D02*
Y141650D01*
X134500Y140150D02*
Y141650D01*
Y140150D02*
X137600D01*
X134500Y141650D02*
X137600D01*
X119850Y136750D02*
X121350D01*
X119850Y139850D02*
X121350D01*
X119850Y136750D02*
Y139850D01*
X121350Y136750D02*
Y139850D01*
X116450Y136550D02*
X117950D01*
X116450Y133450D02*
X117950D01*
Y136550D01*
X116450Y133450D02*
Y136550D01*
X147022Y136650D02*
X150578D01*
X147022Y140150D02*
X150578D01*
Y136650D02*
Y140150D01*
X147022Y136650D02*
Y140150D01*
X147250Y140150D02*
Y141650D01*
X150350Y140150D02*
Y141650D01*
X147250D02*
X150350D01*
X147250Y140150D02*
X150350D01*
X76450Y105650D02*
Y108750D01*
X77950Y105650D02*
Y108750D01*
X76450Y105650D02*
X77950D01*
X76450Y108750D02*
X77950D01*
X114850Y133450D02*
X116350D01*
X114850Y136550D02*
X116350D01*
X114850Y133450D02*
Y136550D01*
X116350Y133450D02*
Y136550D01*
X138150Y131050D02*
Y135750D01*
X140450Y131050D02*
Y135750D01*
X138150Y131050D02*
X140450D01*
X138150Y135750D02*
X140450D01*
X140900Y131050D02*
Y135750D01*
X143200Y131050D02*
Y135750D01*
X140900Y131050D02*
X143200D01*
X140900Y135750D02*
X143200D01*
X143650Y131050D02*
Y135750D01*
X145950Y131050D02*
Y135750D01*
X143650Y131050D02*
X145950D01*
X143650Y135750D02*
X145950D01*
X121850Y102350D02*
X124950D01*
X121850Y100850D02*
X124950D01*
X121850D02*
Y102350D01*
X124950Y100850D02*
Y102350D01*
X132050Y131850D02*
X133550D01*
X132050Y134950D02*
X133550D01*
X132050Y131850D02*
Y134950D01*
X133550Y131850D02*
Y134950D01*
X123750Y117550D02*
Y119050D01*
X120650Y117550D02*
Y119050D01*
Y117550D02*
X123750D01*
X120650Y119050D02*
X123750D01*
X137600Y135150D02*
Y136650D01*
X134500Y135150D02*
Y136650D01*
Y135150D02*
X137600D01*
X134500Y136650D02*
X137600D01*
X147022Y131150D02*
X150578D01*
X147022Y134650D02*
X150578D01*
Y131150D02*
Y134650D01*
X147022Y131150D02*
Y134650D01*
X147250Y134650D02*
Y136150D01*
X150350Y134650D02*
Y136150D01*
X147250D02*
X150350D01*
X147250Y134650D02*
X150350D01*
X117050Y112150D02*
X118550D01*
X117050Y109050D02*
X118550D01*
Y112150D01*
X117050Y109050D02*
Y112150D01*
X115550Y107250D02*
Y108750D01*
X118650Y107250D02*
Y108750D01*
X115550D02*
X118650D01*
X115550Y107250D02*
X118650D01*
X112150Y111450D02*
X115250D01*
X112150Y109950D02*
X115250D01*
X112150D02*
Y111450D01*
X115250Y109950D02*
Y111450D01*
X118650Y113550D02*
X120150D01*
X118650Y110450D02*
X120150D01*
Y113550D01*
X118650Y110450D02*
Y113550D01*
X138150Y125550D02*
Y130250D01*
X140450Y125550D02*
Y130250D01*
X138150Y125550D02*
X140450D01*
X138150Y130250D02*
X140450D01*
X140900Y125550D02*
Y130250D01*
X143200Y125550D02*
Y130250D01*
X140900Y125550D02*
X143200D01*
X140900Y130250D02*
X143200D01*
X143650Y125550D02*
Y130250D01*
X145950Y125550D02*
Y130250D01*
X143650Y125550D02*
X145950D01*
X143650Y130250D02*
X145950D01*
X113600Y135450D02*
Y136950D01*
X110500Y135450D02*
Y136950D01*
Y135450D02*
X113600D01*
X110500Y136950D02*
X113600D01*
X132050Y126850D02*
X133550D01*
X132050Y129950D02*
X133550D01*
X132050Y126850D02*
Y129950D01*
X133550Y126850D02*
Y129950D01*
X115450Y109050D02*
X116950D01*
X115450Y112150D02*
X116950D01*
X115450Y109050D02*
Y112150D01*
X116950Y109050D02*
Y112150D01*
X113650Y106650D02*
X115150D01*
X113650Y109750D02*
X115150D01*
X113650Y106650D02*
Y109750D01*
X115150Y106650D02*
Y109750D01*
X128250Y116650D02*
Y118150D01*
X125150Y116650D02*
Y118150D01*
Y116650D02*
X128250D01*
X125150Y118150D02*
X128250D01*
X137600Y130150D02*
Y131650D01*
X134500Y130150D02*
Y131650D01*
Y130150D02*
X137600D01*
X134500Y131650D02*
X137600D01*
X147022Y125650D02*
X150578D01*
X147022Y129150D02*
X150578D01*
Y125650D02*
Y129150D01*
X147022Y125650D02*
Y129150D01*
X147250Y129150D02*
Y130650D01*
X150350Y129150D02*
Y130650D01*
X147250D02*
X150350D01*
X147250Y129150D02*
X150350D01*
X118650Y102550D02*
Y104050D01*
X115550Y102550D02*
Y104050D01*
Y102550D02*
X118650D01*
X115550Y104050D02*
X118650D01*
X115550Y104250D02*
Y105750D01*
X118650Y104250D02*
Y105750D01*
X115550D02*
X118650D01*
X115550Y104250D02*
X118650D01*
X138150Y120050D02*
Y124750D01*
X140450Y120050D02*
Y124750D01*
X138150Y120050D02*
X140450D01*
X138150Y124750D02*
X140450D01*
X140900Y120050D02*
Y124750D01*
X143200Y120050D02*
Y124750D01*
X140900Y120050D02*
X143200D01*
X140900Y124750D02*
X143200D01*
X143650Y120050D02*
Y124750D01*
X145950Y120050D02*
Y124750D01*
X143650Y120050D02*
X145950D01*
X143650Y124750D02*
X145950D01*
X109550Y109850D02*
X112650D01*
X109550Y108350D02*
X112650D01*
X109550D02*
Y109850D01*
X112650Y108350D02*
Y109850D01*
X113850Y100850D02*
Y102350D01*
X116950Y100850D02*
Y102350D01*
X113850D02*
X116950D01*
X113850Y100850D02*
X116950D01*
X132050Y121850D02*
X133550D01*
X132050Y124950D02*
X133550D01*
X132050Y121850D02*
Y124950D01*
X133550Y121850D02*
Y124950D01*
X123750Y115750D02*
Y117250D01*
X120650Y115750D02*
Y117250D01*
Y115750D02*
X123750D01*
X120650Y117250D02*
X123750D01*
X113650Y102850D02*
X115150D01*
X113650Y105950D02*
X115150D01*
X113650Y102850D02*
Y105950D01*
X115150Y102850D02*
Y105950D01*
X117950Y100850D02*
Y102350D01*
X121050Y100850D02*
Y102350D01*
X117950D02*
X121050D01*
X117950Y100850D02*
X121050D01*
X137600Y125150D02*
Y126650D01*
X134500Y125150D02*
Y126650D01*
Y125150D02*
X137600D01*
X134500Y126650D02*
X137600D01*
X147022Y120150D02*
X150578D01*
X147022Y123650D02*
X150578D01*
Y120150D02*
Y123650D01*
X147022Y120150D02*
Y123650D01*
X147250Y123650D02*
Y125150D01*
X150350Y123650D02*
Y125150D01*
X147250D02*
X150350D01*
X147250Y123650D02*
X150350D01*
X138150Y114550D02*
Y119250D01*
X140450Y114550D02*
Y119250D01*
X138150Y114550D02*
X140450D01*
X138150Y119250D02*
X140450D01*
X140900Y114550D02*
Y119250D01*
X143200Y114550D02*
Y119250D01*
X140900Y114550D02*
X143200D01*
X140900Y119250D02*
X143200D01*
X143650Y114550D02*
Y119250D01*
X145950Y114550D02*
Y119250D01*
X143650Y114550D02*
X145950D01*
X143650Y119250D02*
X145950D01*
X134100Y110150D02*
Y111650D01*
X137200Y110150D02*
Y111650D01*
X134100D02*
X137200D01*
X134100Y110150D02*
X137200D01*
X130550D02*
Y111650D01*
X133650Y110150D02*
Y111650D01*
X130550D02*
X133650D01*
X130550Y110150D02*
X133650D01*
X89650Y130650D02*
X91150D01*
X89650Y133750D02*
X91150D01*
X89650Y130650D02*
Y133750D01*
X91150Y130650D02*
Y133750D01*
X131950Y116850D02*
X133450D01*
X131950Y119950D02*
X133450D01*
X131950Y116850D02*
Y119950D01*
X133450Y116850D02*
Y119950D01*
X112950Y126050D02*
Y129150D01*
X111450Y126050D02*
Y129150D01*
X112950D01*
X111450Y126050D02*
X112950D01*
X128250Y114850D02*
Y116350D01*
X125150Y114850D02*
Y116350D01*
Y114850D02*
X128250D01*
X125150Y116350D02*
X128250D01*
X82350Y134150D02*
Y137650D01*
X90450Y134150D02*
Y137650D01*
X82350D02*
X90450D01*
X82350Y134150D02*
X90450D01*
X137500Y120150D02*
Y121650D01*
X134400Y120150D02*
Y121650D01*
Y120150D02*
X137500D01*
X134400Y121650D02*
X137500D01*
X128750Y107150D02*
Y108650D01*
X131850Y107150D02*
Y108650D01*
X128750D02*
X131850D01*
X128750Y107150D02*
X131850D01*
X147022Y114650D02*
X150578D01*
X147022Y118150D02*
X150578D01*
Y114650D02*
Y118150D01*
X147022Y114650D02*
Y118150D01*
X147250Y118150D02*
Y119650D01*
X150350Y118150D02*
Y119650D01*
X147250D02*
X150350D01*
X147250Y118150D02*
X150350D01*
X132250Y102650D02*
X133750D01*
X132250Y105750D02*
X133750D01*
X132250Y102650D02*
Y105750D01*
X133750Y102650D02*
Y105750D01*
X138150Y109050D02*
Y113750D01*
X140450Y109050D02*
Y113750D01*
X138150Y109050D02*
X140450D01*
X138150Y113750D02*
X140450D01*
X140900Y109050D02*
Y113750D01*
X143200Y109050D02*
Y113750D01*
X140900Y109050D02*
X143200D01*
X140900Y113750D02*
X143200D01*
X143650Y109050D02*
Y113750D01*
X145950Y109050D02*
Y113750D01*
X143650Y109050D02*
X145950D01*
X143650Y113750D02*
X145950D01*
X131950Y116650D02*
X133450D01*
X131950Y113550D02*
X133450D01*
Y116650D01*
X131950Y113550D02*
Y116650D01*
X128850Y102650D02*
X130350D01*
X128850Y105750D02*
X130350D01*
X128850Y102650D02*
Y105750D01*
X130350Y102650D02*
Y105750D01*
X115550Y105750D02*
Y107250D01*
X118650Y105750D02*
Y107250D01*
X115550D02*
X118650D01*
X115550Y105750D02*
X118650D01*
X90550Y135950D02*
Y137450D01*
X93650Y135950D02*
Y137450D01*
X90550D02*
X93650D01*
X90550Y135950D02*
X93650D01*
X123750Y113950D02*
Y115450D01*
X120650Y113950D02*
Y115450D01*
Y113950D02*
X123750D01*
X120650Y115450D02*
X123750D01*
X121950Y111850D02*
X125050D01*
X121950Y113350D02*
X125050D01*
Y111850D02*
Y113350D01*
X121950Y111850D02*
Y113350D01*
X132050Y100850D02*
Y102350D01*
X128950Y100850D02*
Y102350D01*
Y100850D02*
X132050D01*
X128950Y102350D02*
X132050D01*
X137500Y115150D02*
Y116650D01*
X134400Y115150D02*
Y116650D01*
Y115150D02*
X137500D01*
X134400Y116650D02*
X137500D01*
X147022Y109150D02*
X150578D01*
X147022Y112650D02*
X150578D01*
Y109150D02*
Y112650D01*
X147022Y109150D02*
Y112650D01*
X147250Y112650D02*
Y114150D01*
X150350Y112650D02*
Y114150D01*
X147250D02*
X150350D01*
X147250Y112650D02*
X150350D01*
X130550Y102650D02*
X132050D01*
X130550Y105750D02*
X132050D01*
X130550Y102650D02*
Y105750D01*
X132050Y102650D02*
Y105750D01*
X125150Y100850D02*
Y102350D01*
X128250Y100850D02*
Y102350D01*
X125150D02*
X128250D01*
X125150Y100850D02*
X128250D01*
X133672Y111650D02*
X137228D01*
X133672Y115150D02*
X137228D01*
Y111650D02*
Y115150D01*
X133672Y111650D02*
Y115150D01*
X133672Y116650D02*
X137228D01*
X133672Y120150D02*
X137228D01*
Y116650D02*
Y120150D01*
X133672Y116650D02*
Y120150D01*
X91422Y130550D02*
X94978D01*
X91422Y134050D02*
X94978D01*
Y130550D02*
Y134050D01*
X91422Y130550D02*
Y134050D01*
X133772Y121650D02*
X137328D01*
X133772Y125150D02*
X137328D01*
Y121650D02*
Y125150D01*
X133772Y121650D02*
Y125150D01*
Y126650D02*
X137328D01*
X133772Y130150D02*
X137328D01*
Y126650D02*
Y130150D01*
X133772Y126650D02*
Y130150D01*
Y131650D02*
X137328D01*
X133772Y135150D02*
X137328D01*
Y131650D02*
Y135150D01*
X133772Y131650D02*
Y135150D01*
Y136650D02*
X137328D01*
X133772Y140150D02*
X137328D01*
Y136650D02*
Y140150D01*
X133772Y136650D02*
Y140150D01*
X93650Y134350D02*
Y135850D01*
X90550Y134350D02*
Y135850D01*
Y134350D02*
X93650D01*
X90550Y135850D02*
X93650D01*
X86750Y127900D02*
Y131900D01*
X83250Y127900D02*
Y131900D01*
X86750D01*
X83250Y127900D02*
X86750D01*
X95850Y130050D02*
X98950D01*
X95850Y128550D02*
X98950D01*
X95850D02*
Y130050D01*
X98950Y128550D02*
Y130050D01*
X95850Y128550D02*
X98950D01*
X95850Y127050D02*
X98950D01*
X95850D02*
Y128550D01*
X98950Y127050D02*
Y128550D01*
X90150Y126750D02*
Y129850D01*
X91650Y126750D02*
Y129850D01*
X90150Y126750D02*
X91650D01*
X90150Y129850D02*
X91650D01*
X93050Y126050D02*
X96150D01*
X93050Y124550D02*
X96150D01*
X93050D02*
Y126050D01*
X96150Y124550D02*
Y126050D01*
X93050Y124550D02*
X96150D01*
X93050Y123050D02*
X96150D01*
X93050D02*
Y124550D01*
X96150Y123050D02*
Y124550D01*
X79150Y121650D02*
X82250D01*
X79150Y120150D02*
X82250D01*
X79150D02*
Y121650D01*
X82250Y120150D02*
Y121650D01*
X86750Y129050D02*
X89850D01*
X86750Y127550D02*
X89850D01*
X86750D02*
Y129050D01*
X89850Y127550D02*
Y129050D01*
X87550Y119650D02*
X90650D01*
X87550Y118150D02*
X90650D01*
X87550D02*
Y119650D01*
X90650Y118150D02*
Y119650D01*
X93050Y122750D02*
X96150D01*
X93050Y121250D02*
X96150D01*
X93050D02*
Y122750D01*
X96150Y121250D02*
Y122750D01*
X93050Y121250D02*
X96150D01*
X93050Y119750D02*
X96150D01*
X93050D02*
Y121250D01*
X96150Y119750D02*
Y121250D01*
X79150Y121750D02*
Y124850D01*
X80650Y121750D02*
Y124850D01*
X79150Y121750D02*
X80650D01*
X79150Y124850D02*
X80650D01*
X84350Y119650D02*
X87450D01*
X84350Y118150D02*
X87450D01*
X84350D02*
Y119650D01*
X87450Y118150D02*
Y119650D01*
X75750Y127650D02*
Y130750D01*
X74250Y127650D02*
Y130750D01*
X75750D01*
X74250Y127650D02*
X75750D01*
X74250Y124550D02*
Y127650D01*
X75750Y124550D02*
Y127650D01*
X74250Y124550D02*
X75750D01*
X74250Y127650D02*
X75750D01*
X114750Y127050D02*
X117850D01*
X114750Y128550D02*
X117850D01*
Y127050D02*
Y128550D01*
X114750Y127050D02*
Y128550D01*
X79300Y115300D02*
X81500D01*
X79300D02*
Y120100D01*
X81500D01*
Y115300D02*
Y120100D01*
X79200Y115300D02*
Y117500D01*
X74400Y115300D02*
X79200D01*
X74400D02*
Y117500D01*
X79200D01*
X79100Y119900D02*
Y122100D01*
X74300Y119900D02*
X79100D01*
X74300D02*
Y122100D01*
X79100D01*
X100950Y117050D02*
X102450D01*
X100950Y120150D02*
X102450D01*
X100950Y117050D02*
Y120150D01*
X102450Y117050D02*
Y120150D01*
X110550Y126350D02*
Y127850D01*
X107450Y126350D02*
Y127850D01*
Y126350D02*
X110550D01*
X107450Y127850D02*
X110550D01*
X116450Y121850D02*
Y123350D01*
X119550Y121850D02*
Y123350D01*
X116450D02*
X119550D01*
X116450Y121850D02*
X119550D01*
X118850Y125750D02*
X120350D01*
X118850Y128850D02*
X120350D01*
X118850Y125750D02*
Y128850D01*
X120350Y125750D02*
Y128850D01*
X82350Y124450D02*
X83850D01*
X82350Y127550D02*
X83850D01*
X82350Y124450D02*
Y127550D01*
X83850Y124450D02*
Y127550D01*
X75850Y130750D02*
X77350D01*
X75850Y127650D02*
X77350D01*
Y130750D01*
X75850Y127650D02*
Y130750D01*
Y127650D02*
X77350D01*
X75850Y124550D02*
X77350D01*
Y127650D01*
X75850Y124550D02*
Y127650D01*
X94350Y118150D02*
Y119650D01*
X91250Y118150D02*
Y119650D01*
Y118150D02*
X94350D01*
X91250Y119650D02*
X94350D01*
X82750Y109050D02*
Y110550D01*
X85850Y109050D02*
Y110550D01*
X82750D02*
X85850D01*
X82750Y109050D02*
X85850D01*
X88050Y129150D02*
Y132250D01*
X89550Y129150D02*
Y132250D01*
X88050Y129150D02*
X89550D01*
X88050Y132250D02*
X89550D01*
X83150Y128350D02*
Y131450D01*
X81650Y128350D02*
Y131450D01*
X83150D01*
X81650Y128350D02*
X83150D01*
X89850Y121250D02*
X92950D01*
X89850Y119750D02*
X92950D01*
X89850D02*
Y121250D01*
X92950Y119750D02*
Y121250D01*
X89850Y122750D02*
X92950D01*
X89850Y121250D02*
X92950D01*
X89850D02*
Y122750D01*
X92950Y121250D02*
Y122750D01*
X89850Y124550D02*
X92950D01*
X89850Y123050D02*
X92950D01*
X89850D02*
Y124550D01*
X92950Y123050D02*
Y124550D01*
X89850Y126050D02*
X92950D01*
X89850Y124550D02*
X92950D01*
X89850D02*
Y126050D01*
X92950Y124550D02*
Y126050D01*
X107450Y129450D02*
X110550D01*
X107450Y127950D02*
X110550D01*
X107450D02*
Y129450D01*
X110550Y127950D02*
Y129450D01*
X101250Y126850D02*
Y129950D01*
X102750Y126850D02*
Y129950D01*
X101250Y126850D02*
X102750D01*
X101250Y129950D02*
X102750D01*
X108150Y112150D02*
X111250D01*
X108150Y110650D02*
X111250D01*
X108150D02*
Y112150D01*
X111250Y110650D02*
Y112150D01*
X116150Y117350D02*
Y120450D01*
X117650Y117350D02*
Y120450D01*
X116150Y117350D02*
X117650D01*
X116150Y120450D02*
X117650D01*
X74250Y124450D02*
X78950D01*
X74250Y122150D02*
X78950D01*
X74250D02*
Y124450D01*
X78950Y122150D02*
Y124450D01*
X74250Y119850D02*
X78950D01*
X74250Y117550D02*
X78950D01*
X74250D02*
Y119850D01*
X78950Y117550D02*
Y119850D01*
X81550Y115250D02*
Y119950D01*
X83850Y115250D02*
Y119950D01*
X81550Y115250D02*
X83850D01*
X81550Y119950D02*
X83850D01*
X77622Y128650D02*
X81178D01*
X77622Y125150D02*
X81178D01*
X77622D02*
Y128650D01*
X81178Y125150D02*
Y128650D01*
X77622Y132150D02*
X81178D01*
X77622Y128650D02*
X81178D01*
X77622D02*
Y132150D01*
X81178Y128650D02*
Y132150D01*
X97622Y125550D02*
X101178D01*
X97622Y122050D02*
X101178D01*
X97622D02*
Y125550D01*
X101178Y122050D02*
Y125550D01*
X115422Y123450D02*
X118978D01*
X115422Y126950D02*
X118978D01*
Y123450D02*
Y126950D01*
X115422Y123450D02*
Y126950D01*
X78750Y103050D02*
X83450D01*
X78750Y100750D02*
X83450D01*
X78750D02*
Y103050D01*
X83450Y100750D02*
Y103050D01*
X82350Y105222D02*
Y108778D01*
X85850Y105222D02*
Y108778D01*
X82350Y105222D02*
X85850D01*
X82350Y108778D02*
X85850D01*
X99750Y118750D02*
Y120250D01*
X96650Y118750D02*
Y120250D01*
Y118750D02*
X99750D01*
X96650Y120250D02*
X99750D01*
Y120350D02*
Y121850D01*
X96650Y120350D02*
Y121850D01*
Y120350D02*
X99750D01*
X96650Y121850D02*
X99750D01*
X103000Y126700D02*
X107200D01*
X103000Y130100D02*
X107200D01*
Y126700D02*
Y130100D01*
X103000Y126700D02*
Y130100D01*
X128450Y102450D02*
Y109950D01*
X119150Y102450D02*
Y109950D01*
X128450D01*
X119150Y102450D02*
X128450D01*
X84050Y119850D02*
X89550D01*
X84050Y127350D02*
X89550D01*
X84050Y119850D02*
Y127350D01*
X89550Y119850D02*
Y127350D01*
X125550Y129825D02*
X125425Y129700D01*
Y129450D01*
X125550Y129325D01*
X126050D01*
X126175Y129450D01*
Y129700D01*
X126050Y129825D01*
X126175Y130450D02*
X125425D01*
X125800Y130075D01*
Y130575D01*
X124800Y141000D02*
Y140250D01*
X124425D01*
X124300Y140375D01*
Y140625D01*
X124425Y140750D01*
X124800D01*
X124550D02*
X124300Y141000D01*
X124050D02*
X123800D01*
X123925D01*
Y140250D01*
X124050Y140375D01*
X123051Y141000D02*
Y140250D01*
X123425Y140625D01*
X122926D01*
X128425Y135750D02*
X128300Y135875D01*
X128050D01*
X127925Y135750D01*
Y135250D01*
X128050Y135125D01*
X128300D01*
X128425Y135250D01*
X128675Y135750D02*
X128800Y135875D01*
X129050D01*
X129175Y135750D01*
Y135625D01*
X129050Y135500D01*
X128925D01*
X129050D01*
X129175Y135375D01*
Y135250D01*
X129050Y135125D01*
X128800D01*
X128675Y135250D01*
X129799Y135125D02*
Y135875D01*
X129425Y135500D01*
X129924D01*
X123050Y131475D02*
X123175Y131600D01*
Y131850D01*
X123050Y131975D01*
X122550D01*
X122425Y131850D01*
Y131600D01*
X122550Y131475D01*
X123050Y131225D02*
X123175Y131100D01*
Y130850D01*
X123050Y130725D01*
X122925D01*
X122800Y130850D01*
Y130975D01*
Y130850D01*
X122675Y130725D01*
X122550D01*
X122425Y130850D01*
Y131100D01*
X122550Y131225D01*
X122425Y129976D02*
Y130475D01*
X122925Y129976D01*
X123050D01*
X123175Y130101D01*
Y130351D01*
X123050Y130475D01*
X126300Y124300D02*
X125550D01*
Y124675D01*
X125675Y124800D01*
X125925D01*
X126050Y124675D01*
Y124300D01*
Y124550D02*
X126300Y124800D01*
Y125050D02*
Y125300D01*
Y125175D01*
X125550D01*
X125675Y125050D01*
X126300Y125675D02*
Y125924D01*
Y125800D01*
X125550D01*
X125675Y125675D01*
Y126299D02*
X125550Y126424D01*
Y126674D01*
X125675Y126799D01*
X126175D01*
X126300Y126674D01*
Y126424D01*
X126175Y126299D01*
X125675D01*
X130700Y139300D02*
Y138550D01*
X130325D01*
X130200Y138675D01*
Y138925D01*
X130325Y139050D01*
X130700D01*
X130450D02*
X130200Y139300D01*
X129950D02*
X129700D01*
X129825D01*
Y138550D01*
X129950Y138675D01*
X129325Y139300D02*
X129076D01*
X129200D01*
Y138550D01*
X129325Y138675D01*
X128201Y139300D02*
X128701D01*
X128201Y138800D01*
Y138675D01*
X128326Y138550D01*
X128576D01*
X128701Y138675D01*
X127925Y126850D02*
X127800Y126975D01*
X127550D01*
X127425Y126850D01*
Y126350D01*
X127550Y126225D01*
X127800D01*
X127925Y126350D01*
X128175Y126850D02*
X128300Y126975D01*
X128550D01*
X128675Y126850D01*
Y126725D01*
X128550Y126600D01*
X128425D01*
X128550D01*
X128675Y126475D01*
Y126350D01*
X128550Y126225D01*
X128300D01*
X128175Y126350D01*
X128925Y126850D02*
X129049Y126975D01*
X129299D01*
X129424Y126850D01*
Y126725D01*
X129299Y126600D01*
X129174D01*
X129299D01*
X129424Y126475D01*
Y126350D01*
X129299Y126225D01*
X129049D01*
X128925Y126350D01*
X128300Y141000D02*
Y140250D01*
X127925D01*
X127800Y140375D01*
Y140625D01*
X127925Y140750D01*
X128300D01*
X128050D02*
X127800Y141000D01*
X127550D02*
X127300D01*
X127425D01*
Y140250D01*
X127550Y140375D01*
X126925Y141000D02*
X126676D01*
X126800D01*
Y140250D01*
X126925Y140375D01*
X126301D02*
X126176Y140250D01*
X125926D01*
X125801Y140375D01*
Y140500D01*
X125926Y140625D01*
X126051D01*
X125926D01*
X125801Y140750D01*
Y140875D01*
X125926Y141000D01*
X126176D01*
X126301Y140875D01*
X127400Y123600D02*
Y124350D01*
X127775D01*
X127900Y124225D01*
Y123975D01*
X127775Y123850D01*
X127400D01*
X127650D02*
X127900Y123600D01*
X128150D02*
X128400D01*
X128275D01*
Y124350D01*
X128150Y124225D01*
X128775Y123600D02*
X129024D01*
X128900D01*
Y124350D01*
X128775Y124225D01*
X129774Y123600D02*
Y124350D01*
X129399Y123975D01*
X129899D01*
X130175Y136950D02*
X130300Y136825D01*
X130550D01*
X130675Y136950D01*
Y137450D01*
X130550Y137575D01*
X130300D01*
X130175Y137450D01*
X129925Y136950D02*
X129800Y136825D01*
X129550D01*
X129425Y136950D01*
Y137075D01*
X129550Y137200D01*
X129675D01*
X129550D01*
X129425Y137325D01*
Y137450D01*
X129550Y137575D01*
X129800D01*
X129925Y137450D01*
X128676Y136825D02*
X129175D01*
Y137200D01*
X128926Y137075D01*
X128801D01*
X128676Y137200D01*
Y137450D01*
X128801Y137575D01*
X129051D01*
X129175Y137450D01*
X123675Y126050D02*
X123800Y125925D01*
X124050D01*
X124175Y126050D01*
Y126550D01*
X124050Y126675D01*
X123800D01*
X123675Y126550D01*
X123425Y126050D02*
X123300Y125925D01*
X123050D01*
X122925Y126050D01*
Y126175D01*
X123050Y126300D01*
X123175D01*
X123050D01*
X122925Y126425D01*
Y126550D01*
X123050Y126675D01*
X123300D01*
X123425Y126550D01*
X122176Y125925D02*
X122426Y126050D01*
X122675Y126300D01*
Y126550D01*
X122551Y126675D01*
X122301D01*
X122176Y126550D01*
Y126425D01*
X122301Y126300D01*
X122675D01*
X114200Y129400D02*
X113450D01*
Y129775D01*
X113575Y129900D01*
X113825D01*
X113950Y129775D01*
Y129400D01*
Y129650D02*
X114200Y129900D01*
X114075Y130150D02*
X114200Y130275D01*
Y130525D01*
X114075Y130650D01*
X113575D01*
X113450Y130525D01*
Y130275D01*
X113575Y130150D01*
X113700D01*
X113825Y130275D01*
Y130650D01*
X114200Y131274D02*
X113450D01*
X113825Y130900D01*
Y131399D01*
X115100Y131600D02*
X115850D01*
Y131225D01*
X115725Y131100D01*
X115475D01*
X115350Y131225D01*
Y131600D01*
Y131350D02*
X115100Y131100D01*
Y130850D02*
Y130600D01*
Y130725D01*
X115850D01*
X115725Y130850D01*
Y130225D02*
X115850Y130100D01*
Y129851D01*
X115725Y129726D01*
X115225D01*
X115100Y129851D01*
Y130100D01*
X115225Y130225D01*
X115725D01*
X115225Y129476D02*
X115100Y129351D01*
Y129101D01*
X115225Y128976D01*
X115725D01*
X115850Y129101D01*
Y129351D01*
X115725Y129476D01*
X115600D01*
X115475Y129351D01*
Y128976D01*
X113550Y126725D02*
X113425Y126600D01*
Y126350D01*
X113550Y126225D01*
X114050D01*
X114175Y126350D01*
Y126600D01*
X114050Y126725D01*
X113550Y126975D02*
X113425Y127100D01*
Y127350D01*
X113550Y127475D01*
X113675D01*
X113800Y127350D01*
Y127225D01*
Y127350D01*
X113925Y127475D01*
X114050D01*
X114175Y127350D01*
Y127100D01*
X114050Y126975D01*
X113550Y127725D02*
X113425Y127849D01*
Y128099D01*
X113550Y128224D01*
X114050D01*
X114175Y128099D01*
Y127849D01*
X114050Y127725D01*
X113550D01*
X92925Y128175D02*
Y127425D01*
X93300D01*
X93425Y127550D01*
Y128050D01*
X93300Y128175D01*
X92925D01*
X93675Y127550D02*
X93800Y127425D01*
X94050D01*
X94175Y127550D01*
Y128050D01*
X94050Y128175D01*
X93800D01*
X93675Y128050D01*
Y127925D01*
X93800Y127800D01*
X94175D01*
X92925Y129675D02*
Y128925D01*
X93300D01*
X93425Y129050D01*
Y129550D01*
X93300Y129675D01*
X92925D01*
X93675Y129550D02*
X93800Y129675D01*
X94050D01*
X94175Y129550D01*
Y129425D01*
X94050Y129300D01*
X94175Y129175D01*
Y129050D01*
X94050Y128925D01*
X93800D01*
X93675Y129050D01*
Y129175D01*
X93800Y129300D01*
X93675Y129425D01*
Y129550D01*
X93800Y129300D02*
X94050D01*
X91200Y105200D02*
Y105950D01*
X91575D01*
X91700Y105825D01*
Y105575D01*
X91575Y105450D01*
X91200D01*
X91450D02*
X91700Y105200D01*
X91950Y105825D02*
X92075Y105950D01*
X92325D01*
X92450Y105825D01*
Y105700D01*
X92325Y105575D01*
X92200D01*
X92325D01*
X92450Y105450D01*
Y105325D01*
X92325Y105200D01*
X92075D01*
X91950Y105325D01*
X92700D02*
X92824Y105200D01*
X93074D01*
X93199Y105325D01*
Y105825D01*
X93074Y105950D01*
X92824D01*
X92700Y105825D01*
Y105700D01*
X92824Y105575D01*
X93199D01*
X135100Y104800D02*
X134350D01*
Y105175D01*
X134475Y105300D01*
X134725D01*
X134850Y105175D01*
Y104800D01*
Y105050D02*
X135100Y105300D01*
Y106050D02*
Y105550D01*
X134600Y106050D01*
X134475D01*
X134350Y105925D01*
Y105675D01*
X134475Y105550D01*
Y106300D02*
X134350Y106424D01*
Y106674D01*
X134475Y106799D01*
X134600D01*
X134725Y106674D01*
Y106549D01*
Y106674D01*
X134850Y106799D01*
X134975D01*
X135100Y106674D01*
Y106424D01*
X134975Y106300D01*
X133200Y137000D02*
X132450D01*
Y137375D01*
X132575Y137500D01*
X132825D01*
X132950Y137375D01*
Y137000D01*
Y137250D02*
X133200Y137500D01*
X132575Y137750D02*
X132450Y137875D01*
Y138125D01*
X132575Y138250D01*
X132700D01*
X132825Y138125D01*
X132950Y138250D01*
X133075D01*
X133200Y138125D01*
Y137875D01*
X133075Y137750D01*
X132950D01*
X132825Y137875D01*
X132700Y137750D01*
X132575D01*
X132825Y137875D02*
Y138125D01*
X133200Y138874D02*
X132450D01*
X132825Y138500D01*
Y138999D01*
X119250Y130725D02*
X119125Y130600D01*
Y130350D01*
X119250Y130225D01*
X119750D01*
X119875Y130350D01*
Y130600D01*
X119750Y130725D01*
Y130975D02*
X119875Y131100D01*
Y131350D01*
X119750Y131475D01*
X119250D01*
X119125Y131350D01*
Y131100D01*
X119250Y130975D01*
X119375D01*
X119500Y131100D01*
Y131475D01*
X117650Y130725D02*
X117525Y130600D01*
Y130350D01*
X117650Y130225D01*
X118150D01*
X118275Y130350D01*
Y130600D01*
X118150Y130725D01*
X118275Y130975D02*
Y131225D01*
Y131100D01*
X117525D01*
X117650Y130975D01*
Y131600D02*
X117525Y131725D01*
Y131974D01*
X117650Y132099D01*
X118150D01*
X118275Y131974D01*
Y131725D01*
X118150Y131600D01*
X117650D01*
X121000Y133600D02*
X120250D01*
Y133975D01*
X120375Y134100D01*
X120625D01*
X120750Y133975D01*
Y133600D01*
Y133850D02*
X121000Y134100D01*
X120375Y134350D02*
X120250Y134475D01*
Y134725D01*
X120375Y134850D01*
X120500D01*
X120625Y134725D01*
X120750Y134850D01*
X120875D01*
X121000Y134725D01*
Y134475D01*
X120875Y134350D01*
X120750D01*
X120625Y134475D01*
X120500Y134350D01*
X120375D01*
X120625Y134475D02*
Y134725D01*
X121000Y135599D02*
Y135100D01*
X120500Y135599D01*
X120375D01*
X120250Y135474D01*
Y135224D01*
X120375Y135100D01*
X119300Y133600D02*
X118550D01*
Y133975D01*
X118675Y134100D01*
X118925D01*
X119050Y133975D01*
Y133600D01*
Y133850D02*
X119300Y134100D01*
X118675Y134350D02*
X118550Y134475D01*
Y134725D01*
X118675Y134850D01*
X118800D01*
X118925Y134725D01*
X119050Y134850D01*
X119175D01*
X119300Y134725D01*
Y134475D01*
X119175Y134350D01*
X119050D01*
X118925Y134475D01*
X118800Y134350D01*
X118675D01*
X118925Y134475D02*
Y134725D01*
X118675Y135100D02*
X118550Y135224D01*
Y135474D01*
X118675Y135599D01*
X118800D01*
X118925Y135474D01*
Y135349D01*
Y135474D01*
X119050Y135599D01*
X119175D01*
X119300Y135474D01*
Y135224D01*
X119175Y135100D01*
X128100Y119600D02*
Y118850D01*
X127725D01*
X127600Y118975D01*
Y119225D01*
X127725Y119350D01*
X128100D01*
X127850D02*
X127600Y119600D01*
X127350Y118975D02*
X127225Y118850D01*
X126975D01*
X126850Y118975D01*
Y119100D01*
X126975Y119225D01*
X126850Y119350D01*
Y119475D01*
X126975Y119600D01*
X127225D01*
X127350Y119475D01*
Y119350D01*
X127225Y119225D01*
X127350Y119100D01*
Y118975D01*
X127225Y119225D02*
X126975D01*
X126600Y119600D02*
X126351D01*
X126476D01*
Y118850D01*
X126600Y118975D01*
X137450Y141300D02*
Y140550D01*
X137075D01*
X136950Y140675D01*
Y140925D01*
X137075Y141050D01*
X137450D01*
X137200D02*
X136950Y141300D01*
X136700Y140550D02*
X136200D01*
Y140675D01*
X136700Y141175D01*
Y141300D01*
X135950Y140675D02*
X135826Y140550D01*
X135576D01*
X135451Y140675D01*
Y140800D01*
X135576Y140925D01*
X135451Y141050D01*
Y141175D01*
X135576Y141300D01*
X135826D01*
X135950Y141175D01*
Y141050D01*
X135826Y140925D01*
X135950Y140800D01*
Y140675D01*
X135826Y140925D02*
X135576D01*
X121000Y136900D02*
X120250D01*
Y137275D01*
X120375Y137400D01*
X120625D01*
X120750Y137275D01*
Y136900D01*
Y137150D02*
X121000Y137400D01*
X120250Y137650D02*
Y138150D01*
X120375D01*
X120875Y137650D01*
X121000D01*
X120875Y138400D02*
X121000Y138524D01*
Y138774D01*
X120875Y138899D01*
X120375D01*
X120250Y138774D01*
Y138524D01*
X120375Y138400D01*
X120500D01*
X120625Y138524D01*
Y138899D01*
X116800Y136400D02*
X117550D01*
Y136025D01*
X117425Y135900D01*
X117175D01*
X117050Y136025D01*
Y136400D01*
Y136150D02*
X116800Y135900D01*
X117425Y135650D02*
X117550Y135525D01*
Y135275D01*
X117425Y135150D01*
X117300D01*
X117175Y135275D01*
X117050Y135150D01*
X116925D01*
X116800Y135275D01*
Y135525D01*
X116925Y135650D01*
X117050D01*
X117175Y135525D01*
X117300Y135650D01*
X117425D01*
X117175Y135525D02*
Y135275D01*
X117425Y134900D02*
X117550Y134776D01*
Y134526D01*
X117425Y134401D01*
X116925D01*
X116800Y134526D01*
Y134776D01*
X116925Y134900D01*
X117425D01*
X147400Y140500D02*
Y141250D01*
X147775D01*
X147900Y141125D01*
Y140875D01*
X147775Y140750D01*
X147400D01*
X147650D02*
X147900Y140500D01*
X148150Y141250D02*
X148650D01*
Y141125D01*
X148150Y140625D01*
Y140500D01*
X148900Y141250D02*
X149399D01*
Y141125D01*
X148900Y140625D01*
Y140500D01*
X77450Y108075D02*
X77575Y108200D01*
Y108450D01*
X77450Y108575D01*
X76950D01*
X76825Y108450D01*
Y108200D01*
X76950Y108075D01*
X77450Y107825D02*
X77575Y107700D01*
Y107450D01*
X77450Y107325D01*
X77325D01*
X77200Y107450D01*
X77075Y107325D01*
X76950D01*
X76825Y107450D01*
Y107700D01*
X76950Y107825D01*
X77075D01*
X77200Y107700D01*
X77325Y107825D01*
X77450D01*
X77200Y107700D02*
Y107450D01*
X116000Y133600D02*
X115250D01*
Y133975D01*
X115375Y134100D01*
X115625D01*
X115750Y133975D01*
Y133600D01*
Y133850D02*
X116000Y134100D01*
X115250Y134350D02*
Y134850D01*
X115375D01*
X115875Y134350D01*
X116000D01*
X115250Y135599D02*
X115375Y135349D01*
X115625Y135100D01*
X115875D01*
X116000Y135224D01*
Y135474D01*
X115875Y135599D01*
X115750D01*
X115625Y135474D01*
Y135100D01*
X124275Y101350D02*
X124400Y101225D01*
X124650D01*
X124775Y101350D01*
Y101850D01*
X124650Y101975D01*
X124400D01*
X124275Y101850D01*
X124025Y101225D02*
X123525D01*
Y101350D01*
X124025Y101850D01*
Y101975D01*
X133200Y132000D02*
X132450D01*
Y132375D01*
X132575Y132500D01*
X132825D01*
X132950Y132375D01*
Y132000D01*
Y132250D02*
X133200Y132500D01*
X132450Y133250D02*
X132575Y133000D01*
X132825Y132750D01*
X133075D01*
X133200Y132875D01*
Y133125D01*
X133075Y133250D01*
X132950D01*
X132825Y133125D01*
Y132750D01*
X133075Y133500D02*
X133200Y133624D01*
Y133874D01*
X133075Y133999D01*
X132575D01*
X132450Y133874D01*
Y133624D01*
X132575Y133500D01*
X132700D01*
X132825Y133624D01*
Y133999D01*
X123600Y118700D02*
Y117950D01*
X123225D01*
X123100Y118075D01*
Y118325D01*
X123225Y118450D01*
X123600D01*
X123350D02*
X123100Y118700D01*
X122350Y117950D02*
X122600Y118075D01*
X122850Y118325D01*
Y118575D01*
X122725Y118700D01*
X122475D01*
X122350Y118575D01*
Y118450D01*
X122475Y118325D01*
X122850D01*
X122100Y118075D02*
X121976Y117950D01*
X121726D01*
X121601Y118075D01*
Y118200D01*
X121726Y118325D01*
X121601Y118450D01*
Y118575D01*
X121726Y118700D01*
X121976D01*
X122100Y118575D01*
Y118450D01*
X121976Y118325D01*
X122100Y118200D01*
Y118075D01*
X121976Y118325D02*
X121726D01*
X137450Y136300D02*
Y135550D01*
X137075D01*
X136950Y135675D01*
Y135925D01*
X137075Y136050D01*
X137450D01*
X137200D02*
X136950Y136300D01*
X136200Y135550D02*
X136450Y135675D01*
X136700Y135925D01*
Y136175D01*
X136575Y136300D01*
X136325D01*
X136200Y136175D01*
Y136050D01*
X136325Y135925D01*
X136700D01*
X135950Y135550D02*
X135451D01*
Y135675D01*
X135950Y136175D01*
Y136300D01*
X147400Y135000D02*
Y135750D01*
X147775D01*
X147900Y135625D01*
Y135375D01*
X147775Y135250D01*
X147400D01*
X147650D02*
X147900Y135000D01*
X148650Y135750D02*
X148400Y135625D01*
X148150Y135375D01*
Y135125D01*
X148275Y135000D01*
X148525D01*
X148650Y135125D01*
Y135250D01*
X148525Y135375D01*
X148150D01*
X149399Y135750D02*
X149149Y135625D01*
X148900Y135375D01*
Y135125D01*
X149024Y135000D01*
X149274D01*
X149399Y135125D01*
Y135250D01*
X149274Y135375D01*
X148900D01*
X117400Y112000D02*
X118150D01*
Y111625D01*
X118025Y111500D01*
X117775D01*
X117650Y111625D01*
Y112000D01*
Y111750D02*
X117400Y111500D01*
X118150Y110750D02*
X118025Y111000D01*
X117775Y111250D01*
X117525D01*
X117400Y111125D01*
Y110875D01*
X117525Y110750D01*
X117650D01*
X117775Y110875D01*
Y111250D01*
X118150Y110001D02*
Y110500D01*
X117775D01*
X117900Y110251D01*
Y110126D01*
X117775Y110001D01*
X117525D01*
X117400Y110126D01*
Y110376D01*
X117525Y110500D01*
X115700Y107600D02*
Y108350D01*
X116075D01*
X116200Y108225D01*
Y107975D01*
X116075Y107850D01*
X115700D01*
X115950D02*
X116200Y107600D01*
X116950Y108350D02*
X116700Y108225D01*
X116450Y107975D01*
Y107725D01*
X116575Y107600D01*
X116825D01*
X116950Y107725D01*
Y107850D01*
X116825Y107975D01*
X116450D01*
X117574Y107600D02*
Y108350D01*
X117200Y107975D01*
X117699D01*
X114575Y110450D02*
X114700Y110325D01*
X114950D01*
X115075Y110450D01*
Y110950D01*
X114950Y111075D01*
X114700D01*
X114575Y110950D01*
X113825Y110325D02*
X114075Y110450D01*
X114325Y110700D01*
Y110950D01*
X114200Y111075D01*
X113950D01*
X113825Y110950D01*
Y110825D01*
X113950Y110700D01*
X114325D01*
X119000Y113400D02*
X119750D01*
Y113025D01*
X119625Y112900D01*
X119375D01*
X119250Y113025D01*
Y113400D01*
Y113150D02*
X119000Y112900D01*
X119750Y112150D02*
X119625Y112400D01*
X119375Y112650D01*
X119125D01*
X119000Y112525D01*
Y112275D01*
X119125Y112150D01*
X119250D01*
X119375Y112275D01*
Y112650D01*
X119625Y111900D02*
X119750Y111776D01*
Y111526D01*
X119625Y111401D01*
X119500D01*
X119375Y111526D01*
Y111651D01*
Y111526D01*
X119250Y111401D01*
X119125D01*
X119000Y111526D01*
Y111776D01*
X119125Y111900D01*
X113450Y136600D02*
Y135850D01*
X113075D01*
X112950Y135975D01*
Y136225D01*
X113075Y136350D01*
X113450D01*
X113200D02*
X112950Y136600D01*
X112200Y135850D02*
X112700D01*
Y136225D01*
X112450Y136100D01*
X112325D01*
X112200Y136225D01*
Y136475D01*
X112325Y136600D01*
X112575D01*
X112700Y136475D01*
X111451Y135850D02*
X111701Y135975D01*
X111950Y136225D01*
Y136475D01*
X111826Y136600D01*
X111576D01*
X111451Y136475D01*
Y136350D01*
X111576Y136225D01*
X111950D01*
X133200Y127000D02*
X132450D01*
Y127375D01*
X132575Y127500D01*
X132825D01*
X132950Y127375D01*
Y127000D01*
Y127250D02*
X133200Y127500D01*
X132450Y128250D02*
Y127750D01*
X132825D01*
X132700Y128000D01*
Y128125D01*
X132825Y128250D01*
X133075D01*
X133200Y128125D01*
Y127875D01*
X133075Y127750D01*
X133200Y128874D02*
X132450D01*
X132825Y128500D01*
Y128999D01*
X116600Y109200D02*
X115850D01*
Y109575D01*
X115975Y109700D01*
X116225D01*
X116350Y109575D01*
Y109200D01*
Y109450D02*
X116600Y109700D01*
X115850Y110450D02*
Y109950D01*
X116225D01*
X116100Y110200D01*
Y110325D01*
X116225Y110450D01*
X116475D01*
X116600Y110325D01*
Y110075D01*
X116475Y109950D01*
X115850Y111199D02*
Y110700D01*
X116225D01*
X116100Y110949D01*
Y111074D01*
X116225Y111199D01*
X116475D01*
X116600Y111074D01*
Y110824D01*
X116475Y110700D01*
X114800Y106800D02*
X114050D01*
Y107175D01*
X114175Y107300D01*
X114425D01*
X114550Y107175D01*
Y106800D01*
Y107050D02*
X114800Y107300D01*
X114050Y108050D02*
Y107550D01*
X114425D01*
X114300Y107800D01*
Y107925D01*
X114425Y108050D01*
X114675D01*
X114800Y107925D01*
Y107675D01*
X114675Y107550D01*
X114175Y108300D02*
X114050Y108424D01*
Y108674D01*
X114175Y108799D01*
X114300D01*
X114425Y108674D01*
Y108549D01*
Y108674D01*
X114550Y108799D01*
X114675D01*
X114800Y108674D01*
Y108424D01*
X114675Y108300D01*
X128100Y117800D02*
Y117050D01*
X127725D01*
X127600Y117175D01*
Y117425D01*
X127725Y117550D01*
X128100D01*
X127850D02*
X127600Y117800D01*
X126850Y117050D02*
X127350D01*
Y117425D01*
X127100Y117300D01*
X126975D01*
X126850Y117425D01*
Y117675D01*
X126975Y117800D01*
X127225D01*
X127350Y117675D01*
X126101Y117800D02*
X126600D01*
X126101Y117300D01*
Y117175D01*
X126226Y117050D01*
X126476D01*
X126600Y117175D01*
X137450Y131300D02*
Y130550D01*
X137075D01*
X136950Y130675D01*
Y130925D01*
X137075Y131050D01*
X137450D01*
X137200D02*
X136950Y131300D01*
X136200Y130550D02*
X136700D01*
Y130925D01*
X136450Y130800D01*
X136325D01*
X136200Y130925D01*
Y131175D01*
X136325Y131300D01*
X136575D01*
X136700Y131175D01*
X135950Y131300D02*
X135701D01*
X135826D01*
Y130550D01*
X135950Y130675D01*
X147400Y129500D02*
Y130250D01*
X147775D01*
X147900Y130125D01*
Y129875D01*
X147775Y129750D01*
X147400D01*
X147650D02*
X147900Y129500D01*
X148650Y130250D02*
X148150D01*
Y129875D01*
X148400Y130000D01*
X148525D01*
X148650Y129875D01*
Y129625D01*
X148525Y129500D01*
X148275D01*
X148150Y129625D01*
X148900Y130125D02*
X149024Y130250D01*
X149274D01*
X149399Y130125D01*
Y129625D01*
X149274Y129500D01*
X149024D01*
X148900Y129625D01*
Y130125D01*
X118500Y103700D02*
Y102950D01*
X118125D01*
X118000Y103075D01*
Y103325D01*
X118125Y103450D01*
X118500D01*
X118250D02*
X118000Y103700D01*
X117375D02*
Y102950D01*
X117750Y103325D01*
X117250D01*
X117000Y103575D02*
X116876Y103700D01*
X116626D01*
X116501Y103575D01*
Y103075D01*
X116626Y102950D01*
X116876D01*
X117000Y103075D01*
Y103200D01*
X116876Y103325D01*
X116501D01*
X115700Y104600D02*
Y105350D01*
X116075D01*
X116200Y105225D01*
Y104975D01*
X116075Y104850D01*
X115700D01*
X115950D02*
X116200Y104600D01*
X116825D02*
Y105350D01*
X116450Y104975D01*
X116950D01*
X117200Y105225D02*
X117324Y105350D01*
X117574D01*
X117699Y105225D01*
Y105100D01*
X117574Y104975D01*
X117699Y104850D01*
Y104725D01*
X117574Y104600D01*
X117324D01*
X117200Y104725D01*
Y104850D01*
X117324Y104975D01*
X117200Y105100D01*
Y105225D01*
X117324Y104975D02*
X117574D01*
X111975Y108850D02*
X112100Y108725D01*
X112350D01*
X112475Y108850D01*
Y109350D01*
X112350Y109475D01*
X112100D01*
X111975Y109350D01*
X111725Y108850D02*
X111600Y108725D01*
X111350D01*
X111225Y108850D01*
Y108975D01*
X111350Y109100D01*
X111475D01*
X111350D01*
X111225Y109225D01*
Y109350D01*
X111350Y109475D01*
X111600D01*
X111725Y109350D01*
X114000Y101200D02*
Y101950D01*
X114375D01*
X114500Y101825D01*
Y101575D01*
X114375Y101450D01*
X114000D01*
X114250D02*
X114500Y101200D01*
X115125D02*
Y101950D01*
X114750Y101575D01*
X115250D01*
X115500Y101200D02*
X115749D01*
X115624D01*
Y101950D01*
X115500Y101825D01*
X133200Y122000D02*
X132450D01*
Y122375D01*
X132575Y122500D01*
X132825D01*
X132950Y122375D01*
Y122000D01*
Y122250D02*
X133200Y122500D01*
Y123125D02*
X132450D01*
X132825Y122750D01*
Y123250D01*
X132575Y123500D02*
X132450Y123624D01*
Y123874D01*
X132575Y123999D01*
X133075D01*
X133200Y123874D01*
Y123624D01*
X133075Y123500D01*
X132575D01*
X123600Y116900D02*
Y116150D01*
X123225D01*
X123100Y116275D01*
Y116525D01*
X123225Y116650D01*
X123600D01*
X123350D02*
X123100Y116900D01*
X122850Y116275D02*
X122725Y116150D01*
X122475D01*
X122350Y116275D01*
Y116400D01*
X122475Y116525D01*
X122600D01*
X122475D01*
X122350Y116650D01*
Y116775D01*
X122475Y116900D01*
X122725D01*
X122850Y116775D01*
X122100Y116150D02*
X121601D01*
Y116275D01*
X122100Y116775D01*
Y116900D01*
X114800Y103000D02*
X114050D01*
Y103375D01*
X114175Y103500D01*
X114425D01*
X114550Y103375D01*
Y103000D01*
Y103250D02*
X114800Y103500D01*
X114175Y103750D02*
X114050Y103875D01*
Y104125D01*
X114175Y104250D01*
X114300D01*
X114425Y104125D01*
Y104000D01*
Y104125D01*
X114550Y104250D01*
X114675D01*
X114800Y104125D01*
Y103875D01*
X114675Y103750D01*
X114175Y104500D02*
X114050Y104624D01*
Y104874D01*
X114175Y104999D01*
X114300D01*
X114425Y104874D01*
X114550Y104999D01*
X114675D01*
X114800Y104874D01*
Y104624D01*
X114675Y104500D01*
X114550D01*
X114425Y104624D01*
X114300Y104500D01*
X114175D01*
X114425Y104624D02*
Y104874D01*
X118100Y101200D02*
Y101950D01*
X118475D01*
X118600Y101825D01*
Y101575D01*
X118475Y101450D01*
X118100D01*
X118350D02*
X118600Y101200D01*
X118850Y101825D02*
X118975Y101950D01*
X119225D01*
X119350Y101825D01*
Y101700D01*
X119225Y101575D01*
X119100D01*
X119225D01*
X119350Y101450D01*
Y101325D01*
X119225Y101200D01*
X118975D01*
X118850Y101325D01*
X120099Y101950D02*
X119849Y101825D01*
X119600Y101575D01*
Y101325D01*
X119724Y101200D01*
X119974D01*
X120099Y101325D01*
Y101450D01*
X119974Y101575D01*
X119600D01*
X137450Y126300D02*
Y125550D01*
X137075D01*
X136950Y125675D01*
Y125925D01*
X137075Y126050D01*
X137450D01*
X137200D02*
X136950Y126300D01*
X136700Y125675D02*
X136575Y125550D01*
X136325D01*
X136200Y125675D01*
Y125800D01*
X136325Y125925D01*
X136450D01*
X136325D01*
X136200Y126050D01*
Y126175D01*
X136325Y126300D01*
X136575D01*
X136700Y126175D01*
X135451Y125550D02*
X135950D01*
Y125925D01*
X135701Y125800D01*
X135576D01*
X135451Y125925D01*
Y126175D01*
X135576Y126300D01*
X135826D01*
X135950Y126175D01*
X147400Y124000D02*
Y124750D01*
X147775D01*
X147900Y124625D01*
Y124375D01*
X147775Y124250D01*
X147400D01*
X147650D02*
X147900Y124000D01*
X148150Y124625D02*
X148275Y124750D01*
X148525D01*
X148650Y124625D01*
Y124500D01*
X148525Y124375D01*
X148400D01*
X148525D01*
X148650Y124250D01*
Y124125D01*
X148525Y124000D01*
X148275D01*
X148150Y124125D01*
X149274Y124000D02*
Y124750D01*
X148900Y124375D01*
X149399D01*
X134250Y110500D02*
Y111250D01*
X134625D01*
X134750Y111125D01*
Y110875D01*
X134625Y110750D01*
X134250D01*
X134500D02*
X134750Y110500D01*
X135500D02*
X135000D01*
X135500Y111000D01*
Y111125D01*
X135375Y111250D01*
X135125D01*
X135000Y111125D01*
X135750Y111250D02*
X136249D01*
Y111125D01*
X135750Y110625D01*
Y110500D01*
X130700D02*
Y111250D01*
X131075D01*
X131200Y111125D01*
Y110875D01*
X131075Y110750D01*
X130700D01*
X130950D02*
X131200Y110500D01*
X131950D02*
X131450D01*
X131950Y111000D01*
Y111125D01*
X131825Y111250D01*
X131575D01*
X131450Y111125D01*
X132699Y111250D02*
X132200D01*
Y110875D01*
X132449Y111000D01*
X132574D01*
X132699Y110875D01*
Y110625D01*
X132574Y110500D01*
X132324D01*
X132200Y110625D01*
X90800Y130800D02*
X90050D01*
Y131175D01*
X90175Y131300D01*
X90425D01*
X90550Y131175D01*
Y130800D01*
Y131050D02*
X90800Y131300D01*
Y132050D02*
Y131550D01*
X90300Y132050D01*
X90175D01*
X90050Y131925D01*
Y131675D01*
X90175Y131550D01*
X90050Y132799D02*
X90175Y132549D01*
X90425Y132300D01*
X90675D01*
X90800Y132424D01*
Y132674D01*
X90675Y132799D01*
X90550D01*
X90425Y132674D01*
Y132300D01*
X133100Y117000D02*
X132350D01*
Y117375D01*
X132475Y117500D01*
X132725D01*
X132850Y117375D01*
Y117000D01*
Y117250D02*
X133100Y117500D01*
Y118250D02*
Y117750D01*
X132600Y118250D01*
X132475D01*
X132350Y118125D01*
Y117875D01*
X132475Y117750D01*
X133100Y118874D02*
X132350D01*
X132725Y118500D01*
Y118999D01*
X111950Y126725D02*
X111825Y126600D01*
Y126350D01*
X111950Y126225D01*
X112450D01*
X112575Y126350D01*
Y126600D01*
X112450Y126725D01*
X112575Y127475D02*
Y126975D01*
X112075Y127475D01*
X111950D01*
X111825Y127350D01*
Y127100D01*
X111950Y126975D01*
X128100Y116000D02*
Y115250D01*
X127725D01*
X127600Y115375D01*
Y115625D01*
X127725Y115750D01*
X128100D01*
X127850D02*
X127600Y116000D01*
X126850D02*
X127350D01*
X126850Y115500D01*
Y115375D01*
X126975Y115250D01*
X127225D01*
X127350Y115375D01*
X126101Y116000D02*
X126600D01*
X126101Y115500D01*
Y115375D01*
X126226Y115250D01*
X126476D01*
X126600Y115375D01*
X137350Y121300D02*
Y120550D01*
X136975D01*
X136850Y120675D01*
Y120925D01*
X136975Y121050D01*
X137350D01*
X137100D02*
X136850Y121300D01*
X136600D02*
X136350D01*
X136475D01*
Y120550D01*
X136600Y120675D01*
X135975Y121175D02*
X135850Y121300D01*
X135601D01*
X135476Y121175D01*
Y120675D01*
X135601Y120550D01*
X135850D01*
X135975Y120675D01*
Y120800D01*
X135850Y120925D01*
X135476D01*
X128900Y107500D02*
Y108250D01*
X129275D01*
X129400Y108125D01*
Y107875D01*
X129275Y107750D01*
X128900D01*
X129150D02*
X129400Y107500D01*
X130150D02*
X129650D01*
X130150Y108000D01*
Y108125D01*
X130025Y108250D01*
X129775D01*
X129650Y108125D01*
X130400D02*
X130524Y108250D01*
X130774D01*
X130899Y108125D01*
Y107625D01*
X130774Y107500D01*
X130524D01*
X130400Y107625D01*
Y108125D01*
X147400Y118500D02*
Y119250D01*
X147775D01*
X147900Y119125D01*
Y118875D01*
X147775Y118750D01*
X147400D01*
X147650D02*
X147900Y118500D01*
X148150D02*
X148400D01*
X148275D01*
Y119250D01*
X148150Y119125D01*
X148775D02*
X148900Y119250D01*
X149149D01*
X149274Y119125D01*
Y119000D01*
X149149Y118875D01*
X149274Y118750D01*
Y118625D01*
X149149Y118500D01*
X148900D01*
X148775Y118625D01*
Y118750D01*
X148900Y118875D01*
X148775Y119000D01*
Y119125D01*
X148900Y118875D02*
X149149D01*
X133400Y102800D02*
X132650D01*
Y103175D01*
X132775Y103300D01*
X133025D01*
X133150Y103175D01*
Y102800D01*
Y103050D02*
X133400Y103300D01*
Y103550D02*
Y103800D01*
Y103675D01*
X132650D01*
X132775Y103550D01*
X132650Y104175D02*
Y104674D01*
X132775D01*
X133275Y104175D01*
X133400D01*
X132300Y116500D02*
X133050D01*
Y116125D01*
X132925Y116000D01*
X132675D01*
X132550Y116125D01*
Y116500D01*
Y116250D02*
X132300Y116000D01*
X132425Y115750D02*
X132300Y115625D01*
Y115375D01*
X132425Y115250D01*
X132925D01*
X133050Y115375D01*
Y115625D01*
X132925Y115750D01*
X132800D01*
X132675Y115625D01*
Y115250D01*
X130000Y102800D02*
X129250D01*
Y103175D01*
X129375Y103300D01*
X129625D01*
X129750Y103175D01*
Y102800D01*
Y103050D02*
X130000Y103300D01*
Y103550D02*
Y103800D01*
Y103675D01*
X129250D01*
X129375Y103550D01*
Y104175D02*
X129250Y104300D01*
Y104549D01*
X129375Y104674D01*
X129875D01*
X130000Y104549D01*
Y104300D01*
X129875Y104175D01*
X129375D01*
X115700Y106100D02*
Y106850D01*
X116075D01*
X116200Y106725D01*
Y106475D01*
X116075Y106350D01*
X115700D01*
X115950D02*
X116200Y106100D01*
X116450Y106850D02*
X116950D01*
Y106725D01*
X116450Y106225D01*
Y106100D01*
X90700Y136300D02*
Y137050D01*
X91075D01*
X91200Y136925D01*
Y136675D01*
X91075Y136550D01*
X90700D01*
X90950D02*
X91200Y136300D01*
X91450Y136925D02*
X91575Y137050D01*
X91825D01*
X91950Y136925D01*
Y136800D01*
X91825Y136675D01*
X91950Y136550D01*
Y136425D01*
X91825Y136300D01*
X91575D01*
X91450Y136425D01*
Y136550D01*
X91575Y136675D01*
X91450Y136800D01*
Y136925D01*
X91575Y136675D02*
X91825D01*
X123600Y115100D02*
Y114350D01*
X123225D01*
X123100Y114475D01*
Y114725D01*
X123225Y114850D01*
X123600D01*
X123350D02*
X123100Y115100D01*
X122350Y114350D02*
X122600Y114475D01*
X122850Y114725D01*
Y114975D01*
X122725Y115100D01*
X122475D01*
X122350Y114975D01*
Y114850D01*
X122475Y114725D01*
X122850D01*
X122625Y112850D02*
X122500Y112975D01*
X122250D01*
X122125Y112850D01*
Y112350D01*
X122250Y112225D01*
X122500D01*
X122625Y112350D01*
X122875Y112225D02*
X123125D01*
X123000D01*
Y112975D01*
X122875Y112850D01*
X131900Y102000D02*
Y101250D01*
X131525D01*
X131400Y101375D01*
Y101625D01*
X131525Y101750D01*
X131900D01*
X131650D02*
X131400Y102000D01*
X130650Y101250D02*
X131150D01*
Y101625D01*
X130900Y101500D01*
X130775D01*
X130650Y101625D01*
Y101875D01*
X130775Y102000D01*
X131025D01*
X131150Y101875D01*
X137350Y116300D02*
Y115550D01*
X136975D01*
X136850Y115675D01*
Y115925D01*
X136975Y116050D01*
X137350D01*
X137100D02*
X136850Y116300D01*
X136225D02*
Y115550D01*
X136600Y115925D01*
X136100D01*
X147400Y113000D02*
Y113750D01*
X147775D01*
X147900Y113625D01*
Y113375D01*
X147775Y113250D01*
X147400D01*
X147650D02*
X147900Y113000D01*
X148150Y113625D02*
X148275Y113750D01*
X148525D01*
X148650Y113625D01*
Y113500D01*
X148525Y113375D01*
X148400D01*
X148525D01*
X148650Y113250D01*
Y113125D01*
X148525Y113000D01*
X148275D01*
X148150Y113125D01*
X131700Y102800D02*
X130950D01*
Y103175D01*
X131075Y103300D01*
X131325D01*
X131450Y103175D01*
Y102800D01*
Y103050D02*
X131700Y103300D01*
Y104050D02*
Y103550D01*
X131200Y104050D01*
X131075D01*
X130950Y103925D01*
Y103675D01*
X131075Y103550D01*
X125300Y101200D02*
Y101950D01*
X125675D01*
X125800Y101825D01*
Y101575D01*
X125675Y101450D01*
X125300D01*
X125550D02*
X125800Y101200D01*
X126050D02*
X126300D01*
X126175D01*
Y101950D01*
X126050Y101825D01*
X93500Y135500D02*
Y134750D01*
X93125D01*
X93000Y134875D01*
Y135125D01*
X93125Y135250D01*
X93500D01*
X93250D02*
X93000Y135500D01*
X92250D02*
X92750D01*
X92250Y135000D01*
Y134875D01*
X92375Y134750D01*
X92625D01*
X92750Y134875D01*
X92000Y135500D02*
X91751D01*
X91876D01*
Y134750D01*
X92000Y134875D01*
X83476Y130192D02*
Y129525D01*
X83609Y129392D01*
X83876D01*
X84009Y129525D01*
Y130192D01*
X84276D02*
X84809D01*
Y130058D01*
X84276Y129525D01*
Y129392D01*
X98800Y129700D02*
Y128950D01*
X98425D01*
X98300Y129075D01*
Y129325D01*
X98425Y129450D01*
X98800D01*
X98550D02*
X98300Y129700D01*
X98050D02*
X97800D01*
X97925D01*
Y128950D01*
X98050Y129075D01*
X97425D02*
X97300Y128950D01*
X97051D01*
X96926Y129075D01*
Y129575D01*
X97051Y129700D01*
X97300D01*
X97425Y129575D01*
Y129075D01*
X96676D02*
X96551Y128950D01*
X96301D01*
X96176Y129075D01*
Y129200D01*
X96301Y129325D01*
X96176Y129450D01*
Y129575D01*
X96301Y129700D01*
X96551D01*
X96676Y129575D01*
Y129450D01*
X96551Y129325D01*
X96676Y129200D01*
Y129075D01*
X96551Y129325D02*
X96301D01*
X98800Y128200D02*
Y127450D01*
X98425D01*
X98300Y127575D01*
Y127825D01*
X98425Y127950D01*
X98800D01*
X98550D02*
X98300Y128200D01*
X98050D02*
X97800D01*
X97925D01*
Y127450D01*
X98050Y127575D01*
X97425D02*
X97300Y127450D01*
X97051D01*
X96926Y127575D01*
Y128075D01*
X97051Y128200D01*
X97300D01*
X97425Y128075D01*
Y127575D01*
X96676Y127450D02*
X96176D01*
Y127575D01*
X96676Y128075D01*
Y128200D01*
X90400Y129700D02*
X91150D01*
Y129325D01*
X91025Y129200D01*
X90775D01*
X90650Y129325D01*
Y129700D01*
Y129450D02*
X90400Y129200D01*
Y128950D02*
Y128700D01*
Y128825D01*
X91150D01*
X91025Y128950D01*
Y128325D02*
X91150Y128200D01*
Y127951D01*
X91025Y127826D01*
X90525D01*
X90400Y127951D01*
Y128200D01*
X90525Y128325D01*
X91025D01*
X91150Y127076D02*
X91025Y127326D01*
X90775Y127576D01*
X90525D01*
X90400Y127451D01*
Y127201D01*
X90525Y127076D01*
X90650D01*
X90775Y127201D01*
Y127576D01*
X96000Y125700D02*
Y124950D01*
X95625D01*
X95500Y125075D01*
Y125325D01*
X95625Y125450D01*
X96000D01*
X95750D02*
X95500Y125700D01*
X95250D02*
X95000D01*
X95125D01*
Y124950D01*
X95250Y125075D01*
X94625D02*
X94500Y124950D01*
X94251D01*
X94126Y125075D01*
Y125575D01*
X94251Y125700D01*
X94500D01*
X94625Y125575D01*
Y125075D01*
X93376Y124950D02*
X93876D01*
Y125325D01*
X93626Y125200D01*
X93501D01*
X93376Y125325D01*
Y125575D01*
X93501Y125700D01*
X93751D01*
X93876Y125575D01*
X96000Y124200D02*
Y123450D01*
X95625D01*
X95500Y123575D01*
Y123825D01*
X95625Y123950D01*
X96000D01*
X95750D02*
X95500Y124200D01*
X95250D02*
X95000D01*
X95125D01*
Y123450D01*
X95250Y123575D01*
X94625D02*
X94500Y123450D01*
X94251D01*
X94126Y123575D01*
Y124075D01*
X94251Y124200D01*
X94500D01*
X94625Y124075D01*
Y123575D01*
X93501Y124200D02*
Y123450D01*
X93876Y123825D01*
X93376D01*
X82100Y121300D02*
Y120550D01*
X81725D01*
X81600Y120675D01*
Y120925D01*
X81725Y121050D01*
X82100D01*
X81850D02*
X81600Y121300D01*
X81350D02*
X81100D01*
X81225D01*
Y120550D01*
X81350Y120675D01*
X80725D02*
X80600Y120550D01*
X80351D01*
X80226Y120675D01*
Y121175D01*
X80351Y121300D01*
X80600D01*
X80725Y121175D01*
Y120675D01*
X79976D02*
X79851Y120550D01*
X79601D01*
X79476Y120675D01*
Y120800D01*
X79601Y120925D01*
X79726D01*
X79601D01*
X79476Y121050D01*
Y121175D01*
X79601Y121300D01*
X79851D01*
X79976Y121175D01*
X89700Y128700D02*
Y127950D01*
X89325D01*
X89200Y128075D01*
Y128325D01*
X89325Y128450D01*
X89700D01*
X89450D02*
X89200Y128700D01*
X88950D02*
X88700D01*
X88825D01*
Y127950D01*
X88950Y128075D01*
X88325D02*
X88200Y127950D01*
X87951D01*
X87826Y128075D01*
Y128575D01*
X87951Y128700D01*
X88200D01*
X88325Y128575D01*
Y128075D01*
X87076Y128700D02*
X87576D01*
X87076Y128200D01*
Y128075D01*
X87201Y127950D01*
X87451D01*
X87576Y128075D01*
X90500Y119300D02*
Y118550D01*
X90125D01*
X90000Y118675D01*
Y118925D01*
X90125Y119050D01*
X90500D01*
X90250D02*
X90000Y119300D01*
X89750D02*
X89500D01*
X89625D01*
Y118550D01*
X89750Y118675D01*
X89125D02*
X89000Y118550D01*
X88751D01*
X88626Y118675D01*
Y119175D01*
X88751Y119300D01*
X89000D01*
X89125Y119175D01*
Y118675D01*
X88376Y119300D02*
X88126D01*
X88251D01*
Y118550D01*
X88376Y118675D01*
X96000Y122400D02*
Y121650D01*
X95625D01*
X95500Y121775D01*
Y122025D01*
X95625Y122150D01*
X96000D01*
X95750D02*
X95500Y122400D01*
X95250D02*
X95000D01*
X95125D01*
Y121650D01*
X95250Y121775D01*
X94625D02*
X94500Y121650D01*
X94251D01*
X94126Y121775D01*
Y122275D01*
X94251Y122400D01*
X94500D01*
X94625Y122275D01*
Y121775D01*
X93876D02*
X93751Y121650D01*
X93501D01*
X93376Y121775D01*
Y122275D01*
X93501Y122400D01*
X93751D01*
X93876Y122275D01*
Y121775D01*
X96000Y120900D02*
Y120150D01*
X95625D01*
X95500Y120275D01*
Y120525D01*
X95625Y120650D01*
X96000D01*
X95750D02*
X95500Y120900D01*
X95250Y120775D02*
X95125Y120900D01*
X94875D01*
X94750Y120775D01*
Y120275D01*
X94875Y120150D01*
X95125D01*
X95250Y120275D01*
Y120400D01*
X95125Y120525D01*
X94750D01*
X94500Y120775D02*
X94376Y120900D01*
X94126D01*
X94001Y120775D01*
Y120275D01*
X94126Y120150D01*
X94376D01*
X94500Y120275D01*
Y120400D01*
X94376Y120525D01*
X94001D01*
X79500Y124700D02*
X80250D01*
Y124325D01*
X80125Y124200D01*
X79875D01*
X79750Y124325D01*
Y124700D01*
Y124450D02*
X79500Y124200D01*
X79625Y123950D02*
X79500Y123825D01*
Y123575D01*
X79625Y123450D01*
X80125D01*
X80250Y123575D01*
Y123825D01*
X80125Y123950D01*
X80000D01*
X79875Y123825D01*
Y123450D01*
X80125Y123200D02*
X80250Y123076D01*
Y122826D01*
X80125Y122701D01*
X80000D01*
X79875Y122826D01*
X79750Y122701D01*
X79625D01*
X79500Y122826D01*
Y123076D01*
X79625Y123200D01*
X79750D01*
X79875Y123076D01*
X80000Y123200D01*
X80125D01*
X79875Y123076D02*
Y122826D01*
X87300Y119300D02*
Y118550D01*
X86925D01*
X86800Y118675D01*
Y118925D01*
X86925Y119050D01*
X87300D01*
X87050D02*
X86800Y119300D01*
X86550Y119175D02*
X86425Y119300D01*
X86175D01*
X86050Y119175D01*
Y118675D01*
X86175Y118550D01*
X86425D01*
X86550Y118675D01*
Y118800D01*
X86425Y118925D01*
X86050D01*
X85800Y118550D02*
X85301D01*
Y118675D01*
X85800Y119175D01*
Y119300D01*
X75400Y127800D02*
X74650D01*
Y128175D01*
X74775Y128300D01*
X75025D01*
X75150Y128175D01*
Y127800D01*
Y128050D02*
X75400Y128300D01*
X75275Y128550D02*
X75400Y128675D01*
Y128925D01*
X75275Y129050D01*
X74775D01*
X74650Y128925D01*
Y128675D01*
X74775Y128550D01*
X74900D01*
X75025Y128675D01*
Y129050D01*
X74650Y129799D02*
X74775Y129549D01*
X75025Y129300D01*
X75275D01*
X75400Y129424D01*
Y129674D01*
X75275Y129799D01*
X75150D01*
X75025Y129674D01*
Y129300D01*
X74600Y127500D02*
X75350D01*
Y127125D01*
X75225Y127000D01*
X74975D01*
X74850Y127125D01*
Y127500D01*
Y127250D02*
X74600Y127000D01*
X74725Y126750D02*
X74600Y126625D01*
Y126375D01*
X74725Y126250D01*
X75225D01*
X75350Y126375D01*
Y126625D01*
X75225Y126750D01*
X75100D01*
X74975Y126625D01*
Y126250D01*
X75350Y125501D02*
Y126000D01*
X74975D01*
X75100Y125751D01*
Y125626D01*
X74975Y125501D01*
X74725D01*
X74600Y125626D01*
Y125876D01*
X74725Y126000D01*
X114900Y128150D02*
Y127400D01*
X115400D01*
X115650D02*
X115900D01*
X115775D01*
Y128150D01*
X115650Y128025D01*
X101450Y117725D02*
X101325Y117600D01*
Y117350D01*
X101450Y117225D01*
X101950D01*
X102075Y117350D01*
Y117600D01*
X101950Y117725D01*
X102075Y118475D02*
Y117975D01*
X101575Y118475D01*
X101450D01*
X101325Y118350D01*
Y118100D01*
X101450Y117975D01*
Y118725D02*
X101325Y118849D01*
Y119099D01*
X101450Y119224D01*
X101575D01*
X101700Y119099D01*
X101825Y119224D01*
X101950D01*
X102075Y119099D01*
Y118849D01*
X101950Y118725D01*
X101825D01*
X101700Y118849D01*
X101575Y118725D01*
X101450D01*
X101700Y118849D02*
Y119099D01*
X109875Y126850D02*
X110000Y126725D01*
X110250D01*
X110375Y126850D01*
Y127350D01*
X110250Y127475D01*
X110000D01*
X109875Y127350D01*
X109125Y127475D02*
X109625D01*
X109125Y126975D01*
Y126850D01*
X109250Y126725D01*
X109500D01*
X109625Y126850D01*
X108875Y126725D02*
X108376D01*
Y126850D01*
X108875Y127350D01*
Y127475D01*
X117125Y122850D02*
X117000Y122975D01*
X116750D01*
X116625Y122850D01*
Y122350D01*
X116750Y122225D01*
X117000D01*
X117125Y122350D01*
X117875Y122225D02*
X117375D01*
X117875Y122725D01*
Y122850D01*
X117750Y122975D01*
X117500D01*
X117375Y122850D01*
X118624Y122975D02*
X118125D01*
Y122600D01*
X118374Y122725D01*
X118499D01*
X118624Y122600D01*
Y122350D01*
X118499Y122225D01*
X118249D01*
X118125Y122350D01*
X119350Y126425D02*
X119225Y126300D01*
Y126050D01*
X119350Y125925D01*
X119850D01*
X119975Y126050D01*
Y126300D01*
X119850Y126425D01*
X119975Y127175D02*
Y126675D01*
X119475Y127175D01*
X119350D01*
X119225Y127050D01*
Y126800D01*
X119350Y126675D01*
X119975Y127799D02*
X119225D01*
X119600Y127425D01*
Y127924D01*
X82850Y125125D02*
X82725Y125000D01*
Y124750D01*
X82850Y124625D01*
X83350D01*
X83475Y124750D01*
Y125000D01*
X83350Y125125D01*
X83475Y125375D02*
Y125625D01*
Y125500D01*
X82725D01*
X82850Y125375D01*
X82725Y126000D02*
Y126499D01*
X82850D01*
X83350Y126000D01*
X83475D01*
X76850Y130075D02*
X76975Y130200D01*
Y130450D01*
X76850Y130575D01*
X76350D01*
X76225Y130450D01*
Y130200D01*
X76350Y130075D01*
X76225Y129825D02*
Y129575D01*
Y129700D01*
X76975D01*
X76850Y129825D01*
X76975Y128701D02*
X76850Y128951D01*
X76600Y129200D01*
X76350D01*
X76225Y129075D01*
Y128826D01*
X76350Y128701D01*
X76475D01*
X76600Y128826D01*
Y129200D01*
X76850Y126975D02*
X76975Y127100D01*
Y127350D01*
X76850Y127475D01*
X76350D01*
X76225Y127350D01*
Y127100D01*
X76350Y126975D01*
X76225Y126725D02*
Y126475D01*
Y126600D01*
X76975D01*
X76850Y126725D01*
Y126100D02*
X76975Y125975D01*
Y125726D01*
X76850Y125601D01*
X76725D01*
X76600Y125726D01*
Y125851D01*
Y125726D01*
X76475Y125601D01*
X76350D01*
X76225Y125726D01*
Y125975D01*
X76350Y126100D01*
X93675Y118650D02*
X93800Y118525D01*
X94050D01*
X94175Y118650D01*
Y119150D01*
X94050Y119275D01*
X93800D01*
X93675Y119150D01*
X93425Y119275D02*
X93175D01*
X93300D01*
Y118525D01*
X93425Y118650D01*
X92301Y119275D02*
X92800D01*
X92301Y118775D01*
Y118650D01*
X92426Y118525D01*
X92675D01*
X92800Y118650D01*
X83425Y110050D02*
X83300Y110175D01*
X83050D01*
X82925Y110050D01*
Y109550D01*
X83050Y109425D01*
X83300D01*
X83425Y109550D01*
X83675Y109425D02*
X83925D01*
X83800D01*
Y110175D01*
X83675Y110050D01*
X84300Y109425D02*
X84549D01*
X84425D01*
Y110175D01*
X84300Y110050D01*
X89050Y131575D02*
X89175Y131700D01*
Y131950D01*
X89050Y132075D01*
X88550D01*
X88425Y131950D01*
Y131700D01*
X88550Y131575D01*
X88425Y131325D02*
Y131075D01*
Y131200D01*
X89175D01*
X89050Y131325D01*
X88425Y130326D02*
X89175D01*
X88800Y130700D01*
Y130201D01*
X82150Y129025D02*
X82025Y128900D01*
Y128650D01*
X82150Y128525D01*
X82650D01*
X82775Y128650D01*
Y128900D01*
X82650Y129025D01*
X82775Y129275D02*
Y129525D01*
Y129400D01*
X82025D01*
X82150Y129275D01*
X82025Y130399D02*
Y129900D01*
X82400D01*
X82275Y130149D01*
Y130274D01*
X82400Y130399D01*
X82650D01*
X82775Y130274D01*
Y130025D01*
X82650Y129900D01*
X92275Y120250D02*
X92400Y120125D01*
X92650D01*
X92775Y120250D01*
Y120750D01*
X92650Y120875D01*
X92400D01*
X92275Y120750D01*
X92025Y120875D02*
X91775D01*
X91900D01*
Y120125D01*
X92025Y120250D01*
X91400D02*
X91275Y120125D01*
X91026D01*
X90901Y120250D01*
Y120375D01*
X91026Y120500D01*
X90901Y120625D01*
Y120750D01*
X91026Y120875D01*
X91275D01*
X91400Y120750D01*
Y120625D01*
X91275Y120500D01*
X91400Y120375D01*
Y120250D01*
X91275Y120500D02*
X91026D01*
X92275Y121750D02*
X92400Y121625D01*
X92650D01*
X92775Y121750D01*
Y122250D01*
X92650Y122375D01*
X92400D01*
X92275Y122250D01*
X92025Y122375D02*
X91775D01*
X91900D01*
Y121625D01*
X92025Y121750D01*
X91400Y122250D02*
X91275Y122375D01*
X91026D01*
X90901Y122250D01*
Y121750D01*
X91026Y121625D01*
X91275D01*
X91400Y121750D01*
Y121875D01*
X91275Y122000D01*
X90901D01*
X92275Y123550D02*
X92400Y123425D01*
X92650D01*
X92775Y123550D01*
Y124050D01*
X92650Y124175D01*
X92400D01*
X92275Y124050D01*
X91525Y124175D02*
X92025D01*
X91525Y123675D01*
Y123550D01*
X91650Y123425D01*
X91900D01*
X92025Y123550D01*
X91275D02*
X91151Y123425D01*
X90901D01*
X90776Y123550D01*
Y124050D01*
X90901Y124175D01*
X91151D01*
X91275Y124050D01*
Y123550D01*
X92275Y125050D02*
X92400Y124925D01*
X92650D01*
X92775Y125050D01*
Y125550D01*
X92650Y125675D01*
X92400D01*
X92275Y125550D01*
X91525Y125675D02*
X92025D01*
X91525Y125175D01*
Y125050D01*
X91650Y124925D01*
X91900D01*
X92025Y125050D01*
X91275Y125675D02*
X91026D01*
X91151D01*
Y124925D01*
X91275Y125050D01*
X109875Y128450D02*
X110000Y128325D01*
X110250D01*
X110375Y128450D01*
Y128950D01*
X110250Y129075D01*
X110000D01*
X109875Y128950D01*
X109125Y129075D02*
X109625D01*
X109125Y128575D01*
Y128450D01*
X109250Y128325D01*
X109500D01*
X109625Y128450D01*
X108376Y129075D02*
X108875D01*
X108376Y128575D01*
Y128450D01*
X108501Y128325D01*
X108751D01*
X108875Y128450D01*
X102250Y129275D02*
X102375Y129400D01*
Y129650D01*
X102250Y129775D01*
X101750D01*
X101625Y129650D01*
Y129400D01*
X101750Y129275D01*
X101625Y128525D02*
Y129025D01*
X102125Y128525D01*
X102250D01*
X102375Y128650D01*
Y128900D01*
X102250Y129025D01*
Y128275D02*
X102375Y128151D01*
Y127901D01*
X102250Y127776D01*
X102125D01*
X102000Y127901D01*
Y128026D01*
Y127901D01*
X101875Y127776D01*
X101750D01*
X101625Y127901D01*
Y128151D01*
X101750Y128275D01*
X110600Y111175D02*
X110725Y111050D01*
X110975D01*
X111100Y111175D01*
Y111675D01*
X110975Y111800D01*
X110725D01*
X110600Y111675D01*
X109850Y111800D02*
X110350D01*
X109850Y111300D01*
Y111175D01*
X109975Y111050D01*
X110225D01*
X110350Y111175D01*
X109101Y111050D02*
X109351Y111175D01*
X109600Y111425D01*
Y111675D01*
X109476Y111800D01*
X109226D01*
X109101Y111675D01*
Y111550D01*
X109226Y111425D01*
X109600D01*
X117150Y119775D02*
X117275Y119900D01*
Y120150D01*
X117150Y120275D01*
X116650D01*
X116525Y120150D01*
Y119900D01*
X116650Y119775D01*
X116525Y119025D02*
Y119525D01*
X117025Y119025D01*
X117150D01*
X117275Y119150D01*
Y119400D01*
X117150Y119525D01*
X116650Y118775D02*
X116525Y118651D01*
Y118401D01*
X116650Y118276D01*
X117150D01*
X117275Y118401D01*
Y118651D01*
X117150Y118775D01*
X117025D01*
X116900Y118651D01*
Y118276D01*
X99600Y119900D02*
Y119150D01*
X99225D01*
X99100Y119275D01*
Y119525D01*
X99225Y119650D01*
X99600D01*
X99350D02*
X99100Y119900D01*
X98850Y119775D02*
X98725Y119900D01*
X98475D01*
X98350Y119775D01*
Y119275D01*
X98475Y119150D01*
X98725D01*
X98850Y119275D01*
Y119400D01*
X98725Y119525D01*
X98350D01*
X97601Y119900D02*
X98100D01*
X97601Y119400D01*
Y119275D01*
X97726Y119150D01*
X97976D01*
X98100Y119275D01*
X99600Y121500D02*
Y120750D01*
X99225D01*
X99100Y120875D01*
Y121125D01*
X99225Y121250D01*
X99600D01*
X99350D02*
X99100Y121500D01*
X98850Y121375D02*
X98725Y121500D01*
X98475D01*
X98350Y121375D01*
Y120875D01*
X98475Y120750D01*
X98725D01*
X98850Y120875D01*
Y121000D01*
X98725Y121125D01*
X98350D01*
X98100Y120875D02*
X97976Y120750D01*
X97726D01*
X97601Y120875D01*
Y121000D01*
X97726Y121125D01*
X97851D01*
X97726D01*
X97601Y121250D01*
Y121375D01*
X97726Y121500D01*
X97976D01*
X98100Y121375D01*
D88*
X121600Y138300D02*
X127200D01*
X121600Y133300D02*
Y138300D01*
Y133300D02*
X127200D01*
Y138300D01*
X86012Y118042D02*
X97188D01*
X86012Y106358D02*
Y118042D01*
Y106358D02*
X97188D01*
Y118042D01*
D89*
X102600Y112300D02*
X116000D01*
X102600Y125700D02*
X116000D01*
X102600Y112300D02*
Y125700D01*
X116000Y112300D02*
Y125700D01*
D90*
X103300Y128800D02*
X103833Y128000D01*
Y128800D02*
X103300Y128000D01*
X104100D02*
X104366D01*
X104233D01*
Y128800D01*
X104100Y128666D01*
M02*
