G04*
G04 #@! TF.GenerationSoftware,Altium Limited,Altium Designer,20.0.13 (296)*
G04*
G04 Layer_Color=32768*
%FSLAX43Y43*%
%MOMM*%
G71*
G01*
G75*
%ADD12C,0.200*%
%ADD87C,0.100*%
%ADD88C,0.127*%
%ADD89C,0.050*%
D12*
X119203Y137571D02*
Y141704D01*
X109407Y137571D02*
X119203D01*
X109407D02*
Y141704D01*
X119203D01*
X78550Y142400D02*
X86950D01*
X78550Y137800D02*
Y142400D01*
Y137800D02*
X86950D01*
Y142400D01*
X87550D02*
X95950D01*
X87550Y137800D02*
Y142400D01*
Y137800D02*
X95950D01*
Y142400D01*
X97250Y100100D02*
Y104700D01*
X83850Y100100D02*
X97250D01*
X83850D02*
Y104700D01*
X97250D01*
X69300Y109600D02*
Y133000D01*
Y109600D02*
X73900D01*
Y133000D01*
X69300D02*
X73900D01*
X74197Y110996D02*
X79493D01*
Y115129D01*
X74197D02*
X79493D01*
X74197Y110996D02*
Y115129D01*
X150900Y109450D02*
Y132850D01*
Y109450D02*
X163200D01*
Y132850D01*
X150900D02*
X163200D01*
X135700Y100100D02*
X144100D01*
Y109100D01*
X135700D02*
X144100D01*
X135700Y100100D02*
Y109100D01*
D87*
X125050Y129150D02*
X126550D01*
X125050Y132250D02*
X126550D01*
X125050Y129150D02*
Y132250D01*
X126550Y129150D02*
Y132250D01*
X125325Y130700D02*
X126275D01*
X125800Y130225D02*
Y131175D01*
X121850Y141350D02*
X124950D01*
X121850Y139850D02*
X124950D01*
X121850D02*
Y141350D01*
X124950Y139850D02*
Y141350D01*
X122925Y140600D02*
X123875D01*
X123400Y140125D02*
Y141075D01*
X127750Y134750D02*
Y136250D01*
X130850Y134750D02*
Y136250D01*
X127750D02*
X130850D01*
X127750Y134750D02*
X130850D01*
X129300Y135025D02*
Y135975D01*
X128825Y135500D02*
X129775D01*
X122050Y132150D02*
X123550D01*
X122050Y129050D02*
X123550D01*
Y132150D01*
X122050Y129050D02*
Y132150D01*
X122325Y130600D02*
X123275D01*
X122800Y130125D02*
Y131075D01*
X128800Y130500D02*
Y131500D01*
X128300Y131000D02*
X129300D01*
X130600Y127750D02*
Y134250D01*
X127000Y127750D02*
Y134250D01*
X130600D01*
X127000Y127750D02*
X130600D01*
X126650Y124150D02*
Y127250D01*
X125150Y124150D02*
Y127250D01*
X126650D01*
X125150Y124150D02*
X126650D01*
X125900Y125225D02*
Y126175D01*
X125425Y125700D02*
X126375D01*
X127750Y139650D02*
X130850D01*
X127750Y138150D02*
X130850D01*
X127750D02*
Y139650D01*
X130850Y138150D02*
Y139650D01*
X128825Y138900D02*
X129775D01*
X129300Y138425D02*
Y139375D01*
X127250Y125850D02*
Y127350D01*
X130350Y125850D02*
Y127350D01*
X127250D02*
X130350D01*
X127250Y125850D02*
X130350D01*
X128800Y126125D02*
Y127075D01*
X128325Y126600D02*
X129275D01*
X125350Y141350D02*
X128450D01*
X125350Y139850D02*
X128450D01*
X125350D02*
Y141350D01*
X128450Y139850D02*
Y141350D01*
X126425Y140600D02*
X127375D01*
X126900Y140125D02*
Y141075D01*
X127250Y123250D02*
X130350D01*
X127250Y124750D02*
X130350D01*
Y123250D02*
Y124750D01*
X127250Y123250D02*
Y124750D01*
X128325Y124000D02*
X129275D01*
X128800Y123525D02*
Y124475D01*
X130850Y136450D02*
Y137950D01*
X127750Y136450D02*
Y137950D01*
Y136450D02*
X130850D01*
X127750Y137950D02*
X130850D01*
X129300Y136725D02*
Y137675D01*
X128825Y137200D02*
X129775D01*
X120950Y120950D02*
X124450D01*
X120950Y125250D02*
X124450D01*
X120950Y120950D02*
Y125250D01*
X124450Y120950D02*
Y125250D01*
X122700Y122600D02*
Y123600D01*
X122200Y123100D02*
X123200D01*
X124350Y125550D02*
Y127050D01*
X121250Y125550D02*
Y127050D01*
Y125550D02*
X124350D01*
X121250Y127050D02*
X124350D01*
X122800Y125825D02*
Y126775D01*
X122325Y126300D02*
X123275D01*
X114550Y129250D02*
Y132350D01*
X113050Y129250D02*
Y132350D01*
X114550D01*
X113050Y129250D02*
X114550D01*
X113800Y130325D02*
Y131275D01*
X113325Y130800D02*
X114275D01*
X114750Y128650D02*
Y131750D01*
X116250Y128650D02*
Y131750D01*
X114750Y128650D02*
X116250D01*
X114750Y131750D02*
X116250D01*
X115500Y129725D02*
Y130675D01*
X115025Y130200D02*
X115975D01*
X113050Y126050D02*
X114550D01*
X113050Y129150D02*
X114550D01*
X113050Y126050D02*
Y129150D01*
X114550Y126050D02*
Y129150D01*
X113325Y127600D02*
X114275D01*
X113800Y127125D02*
Y128075D01*
X92750Y127050D02*
Y128550D01*
X95850Y127050D02*
Y128550D01*
X92750D02*
X95850D01*
X92750Y127050D02*
X95850D01*
X94300Y127325D02*
Y128275D01*
X93825Y127800D02*
X94775D01*
X92750Y128550D02*
Y130050D01*
X95850Y128550D02*
Y130050D01*
X92750D02*
X95850D01*
X92750Y128550D02*
X95850D01*
X94300Y128825D02*
Y129775D01*
X93825Y129300D02*
X94775D01*
X91050Y104850D02*
X94150D01*
X91050Y106350D02*
X94150D01*
Y104850D02*
Y106350D01*
X91050Y104850D02*
Y106350D01*
X92125Y105600D02*
X93075D01*
X92600Y105125D02*
Y106075D01*
X80100Y106800D02*
Y107800D01*
X79600Y107300D02*
X80600D01*
X77950Y105550D02*
X82250D01*
X77950Y109050D02*
X82250D01*
Y105550D02*
Y109050D01*
X77950Y105550D02*
Y109050D01*
X80700Y104300D02*
X81300D01*
X81000Y104000D02*
Y104600D01*
X78600Y103200D02*
Y105400D01*
X83400D01*
Y103200D02*
Y105400D01*
X78600Y103200D02*
X83400D01*
X134225Y106200D02*
X135175D01*
X134700Y105725D02*
Y106675D01*
X133950Y104650D02*
X135450D01*
X133950Y107750D02*
X135450D01*
X133950Y104650D02*
Y107750D01*
X135450Y104650D02*
Y107750D01*
X139300Y138400D02*
Y139400D01*
X138800Y138900D02*
X139800D01*
X138150Y136550D02*
Y141250D01*
X140450Y136550D02*
Y141250D01*
X138150Y136550D02*
X140450D01*
X138150Y141250D02*
X140450D01*
X142050Y138400D02*
Y139400D01*
X141550Y138900D02*
X142550D01*
X140900Y136550D02*
Y141250D01*
X143200Y136550D02*
Y141250D01*
X140900Y136550D02*
X143200D01*
X140900Y141250D02*
X143200D01*
X144800Y138400D02*
Y139400D01*
X144300Y138900D02*
X145300D01*
X143650Y136550D02*
Y141250D01*
X145950Y136550D02*
Y141250D01*
X143650Y136550D02*
X145950D01*
X143650Y141250D02*
X145950D01*
X132325Y138400D02*
X133275D01*
X132800Y137925D02*
Y138875D01*
X132050Y136850D02*
X133550D01*
X132050Y139950D02*
X133550D01*
X132050Y136850D02*
Y139950D01*
X133550Y136850D02*
Y139950D01*
X119500Y131125D02*
Y132075D01*
X119025Y131600D02*
X119975D01*
X120250Y130050D02*
Y133150D01*
X118750Y130050D02*
Y133150D01*
X120250D01*
X118750Y130050D02*
X120250D01*
X117900Y131125D02*
Y132075D01*
X117425Y131600D02*
X118375D01*
X118650Y130050D02*
Y133150D01*
X117150Y130050D02*
Y133150D01*
X118650D01*
X117150Y130050D02*
X118650D01*
X120125Y135000D02*
X121075D01*
X120600Y134525D02*
Y135475D01*
X119850Y133450D02*
X121350D01*
X119850Y136550D02*
X121350D01*
X119850Y133450D02*
Y136550D01*
X121350Y133450D02*
Y136550D01*
X118425Y135000D02*
X119375D01*
X118900Y134525D02*
Y135475D01*
X118150Y133450D02*
X119650D01*
X118150Y136550D02*
X119650D01*
X118150Y133450D02*
Y136550D01*
X119650Y133450D02*
Y136550D01*
X126700Y118725D02*
Y119675D01*
X126225Y119200D02*
X127175D01*
X128250Y118450D02*
Y119950D01*
X125150Y118450D02*
Y119950D01*
Y118450D02*
X128250D01*
X125150Y119950D02*
X128250D01*
X136050Y140425D02*
Y141375D01*
X135575Y140900D02*
X136525D01*
X137600Y140150D02*
Y141650D01*
X134500Y140150D02*
Y141650D01*
Y140150D02*
X137600D01*
X134500Y141650D02*
X137600D01*
X120125Y138300D02*
X121075D01*
X120600Y137825D02*
Y138775D01*
X119850Y136750D02*
X121350D01*
X119850Y139850D02*
X121350D01*
X119850Y136750D02*
Y139850D01*
X121350Y136750D02*
Y139850D01*
X116725Y135000D02*
X117675D01*
X117200Y134525D02*
Y135475D01*
X116450Y136550D02*
X117950D01*
X116450Y133450D02*
X117950D01*
Y136550D01*
X116450Y133450D02*
Y136550D01*
X146850Y136650D02*
Y140150D01*
X150750Y136650D02*
Y140150D01*
X146850D02*
X150750D01*
X146850Y136650D02*
X150750D01*
X148300Y138400D02*
X149300D01*
X148800Y137900D02*
Y138900D01*
Y140425D02*
Y141375D01*
X148325Y140900D02*
X149275D01*
X147250Y140150D02*
Y141650D01*
X150350Y140150D02*
Y141650D01*
X147250D02*
X150350D01*
X147250Y140150D02*
X150350D01*
X77200Y106725D02*
Y107675D01*
X76725Y107200D02*
X77675D01*
X76450Y105650D02*
Y108750D01*
X77950Y105650D02*
Y108750D01*
X76450Y105650D02*
X77950D01*
X76450Y108750D02*
X77950D01*
X115125Y135000D02*
X116075D01*
X115600Y134525D02*
Y135475D01*
X114850Y133450D02*
X116350D01*
X114850Y136550D02*
X116350D01*
X114850Y133450D02*
Y136550D01*
X116350Y133450D02*
Y136550D01*
X139300Y132900D02*
Y133900D01*
X138800Y133400D02*
X139800D01*
X138150Y131050D02*
Y135750D01*
X140450Y131050D02*
Y135750D01*
X138150Y131050D02*
X140450D01*
X138150Y135750D02*
X140450D01*
X142050Y132900D02*
Y133900D01*
X141550Y133400D02*
X142550D01*
X140900Y131050D02*
Y135750D01*
X143200Y131050D02*
Y135750D01*
X140900Y131050D02*
X143200D01*
X140900Y135750D02*
X143200D01*
X144800Y132900D02*
Y133900D01*
X144300Y133400D02*
X145300D01*
X143650Y131050D02*
Y135750D01*
X145950Y131050D02*
Y135750D01*
X143650Y131050D02*
X145950D01*
X143650Y135750D02*
X145950D01*
X122925Y101600D02*
X123875D01*
X123400Y101125D02*
Y102075D01*
X121850Y102350D02*
X124950D01*
X121850Y100850D02*
X124950D01*
X121850D02*
Y102350D01*
X124950Y100850D02*
Y102350D01*
X132325Y133400D02*
X133275D01*
X132800Y132925D02*
Y133875D01*
X132050Y131850D02*
X133550D01*
X132050Y134950D02*
X133550D01*
X132050Y131850D02*
Y134950D01*
X133550Y131850D02*
Y134950D01*
X122200Y117825D02*
Y118775D01*
X121725Y118300D02*
X122675D01*
X123750Y117550D02*
Y119050D01*
X120650Y117550D02*
Y119050D01*
Y117550D02*
X123750D01*
X120650Y119050D02*
X123750D01*
X136050Y135425D02*
Y136375D01*
X135575Y135900D02*
X136525D01*
X137600Y135150D02*
Y136650D01*
X134500Y135150D02*
Y136650D01*
Y135150D02*
X137600D01*
X134500Y136650D02*
X137600D01*
X146850Y131150D02*
Y134650D01*
X150750Y131150D02*
Y134650D01*
X146850D02*
X150750D01*
X146850Y131150D02*
X150750D01*
X148300Y132900D02*
X149300D01*
X148800Y132400D02*
Y133400D01*
Y134925D02*
Y135875D01*
X148325Y135400D02*
X149275D01*
X147250Y134650D02*
Y136150D01*
X150350Y134650D02*
Y136150D01*
X147250D02*
X150350D01*
X147250Y134650D02*
X150350D01*
X117325Y110600D02*
X118275D01*
X117800Y110125D02*
Y111075D01*
X117050Y112150D02*
X118550D01*
X117050Y109050D02*
X118550D01*
Y112150D01*
X117050Y109050D02*
Y112150D01*
X117100Y107525D02*
Y108475D01*
X116625Y108000D02*
X117575D01*
X115550Y107250D02*
Y108750D01*
X118650Y107250D02*
Y108750D01*
X115550D02*
X118650D01*
X115550Y107250D02*
X118650D01*
X113225Y110700D02*
X114175D01*
X113700Y110225D02*
Y111175D01*
X112150Y111450D02*
X115250D01*
X112150Y109950D02*
X115250D01*
X112150D02*
Y111450D01*
X115250Y109950D02*
Y111450D01*
X118925Y112000D02*
X119875D01*
X119400Y111525D02*
Y112475D01*
X118650Y113550D02*
X120150D01*
X118650Y110450D02*
X120150D01*
Y113550D01*
X118650Y110450D02*
Y113550D01*
X139300Y127400D02*
Y128400D01*
X138800Y127900D02*
X139800D01*
X138150Y125550D02*
Y130250D01*
X140450Y125550D02*
Y130250D01*
X138150Y125550D02*
X140450D01*
X138150Y130250D02*
X140450D01*
X142050Y127400D02*
Y128400D01*
X141550Y127900D02*
X142550D01*
X140900Y125550D02*
Y130250D01*
X143200Y125550D02*
Y130250D01*
X140900Y125550D02*
X143200D01*
X140900Y130250D02*
X143200D01*
X144800Y127400D02*
Y128400D01*
X144300Y127900D02*
X145300D01*
X143650Y125550D02*
Y130250D01*
X145950Y125550D02*
Y130250D01*
X143650Y125550D02*
X145950D01*
X143650Y130250D02*
X145950D01*
X112050Y135725D02*
Y136675D01*
X111575Y136200D02*
X112525D01*
X113600Y135450D02*
Y136950D01*
X110500Y135450D02*
Y136950D01*
Y135450D02*
X113600D01*
X110500Y136950D02*
X113600D01*
X132325Y128400D02*
X133275D01*
X132800Y127925D02*
Y128875D01*
X132050Y126850D02*
X133550D01*
X132050Y129950D02*
X133550D01*
X132050Y126850D02*
Y129950D01*
X133550Y126850D02*
Y129950D01*
X115725Y110600D02*
X116675D01*
X116200Y110125D02*
Y111075D01*
X115450Y109050D02*
X116950D01*
X115450Y112150D02*
X116950D01*
X115450Y109050D02*
Y112150D01*
X116950Y109050D02*
Y112150D01*
X113925Y108200D02*
X114875D01*
X114400Y107725D02*
Y108675D01*
X113650Y106650D02*
X115150D01*
X113650Y109750D02*
X115150D01*
X113650Y106650D02*
Y109750D01*
X115150Y106650D02*
Y109750D01*
X126700Y116925D02*
Y117875D01*
X126225Y117400D02*
X127175D01*
X128250Y116650D02*
Y118150D01*
X125150Y116650D02*
Y118150D01*
Y116650D02*
X128250D01*
X125150Y118150D02*
X128250D01*
X136050Y130425D02*
Y131375D01*
X135575Y130900D02*
X136525D01*
X137600Y130150D02*
Y131650D01*
X134500Y130150D02*
Y131650D01*
Y130150D02*
X137600D01*
X134500Y131650D02*
X137600D01*
X146850Y125650D02*
Y129150D01*
X150750Y125650D02*
Y129150D01*
X146850D02*
X150750D01*
X146850Y125650D02*
X150750D01*
X148300Y127400D02*
X149300D01*
X148800Y126900D02*
Y127900D01*
Y129425D02*
Y130375D01*
X148325Y129900D02*
X149275D01*
X147250Y129150D02*
Y130650D01*
X150350Y129150D02*
Y130650D01*
X147250D02*
X150350D01*
X147250Y129150D02*
X150350D01*
X117100Y102825D02*
Y103775D01*
X116625Y103300D02*
X117575D01*
X118650Y102550D02*
Y104050D01*
X115550Y102550D02*
Y104050D01*
Y102550D02*
X118650D01*
X115550Y104050D02*
X118650D01*
X117100Y104525D02*
Y105475D01*
X116625Y105000D02*
X117575D01*
X115550Y104250D02*
Y105750D01*
X118650Y104250D02*
Y105750D01*
X115550D02*
X118650D01*
X115550Y104250D02*
X118650D01*
X139300Y121900D02*
Y122900D01*
X138800Y122400D02*
X139800D01*
X138150Y120050D02*
Y124750D01*
X140450Y120050D02*
Y124750D01*
X138150Y120050D02*
X140450D01*
X138150Y124750D02*
X140450D01*
X142050Y121900D02*
Y122900D01*
X141550Y122400D02*
X142550D01*
X140900Y120050D02*
Y124750D01*
X143200Y120050D02*
Y124750D01*
X140900Y120050D02*
X143200D01*
X140900Y124750D02*
X143200D01*
X144800Y121900D02*
Y122900D01*
X144300Y122400D02*
X145300D01*
X143650Y120050D02*
Y124750D01*
X145950Y120050D02*
Y124750D01*
X143650Y120050D02*
X145950D01*
X143650Y124750D02*
X145950D01*
X110625Y109100D02*
X111575D01*
X111100Y108625D02*
Y109575D01*
X109550Y109850D02*
X112650D01*
X109550Y108350D02*
X112650D01*
X109550D02*
Y109850D01*
X112650Y108350D02*
Y109850D01*
X115400Y101125D02*
Y102075D01*
X114925Y101600D02*
X115875D01*
X113850Y100850D02*
Y102350D01*
X116950Y100850D02*
Y102350D01*
X113850D02*
X116950D01*
X113850Y100850D02*
X116950D01*
X132325Y123400D02*
X133275D01*
X132800Y122925D02*
Y123875D01*
X132050Y121850D02*
X133550D01*
X132050Y124950D02*
X133550D01*
X132050Y121850D02*
Y124950D01*
X133550Y121850D02*
Y124950D01*
X122200Y116025D02*
Y116975D01*
X121725Y116500D02*
X122675D01*
X123750Y115750D02*
Y117250D01*
X120650Y115750D02*
Y117250D01*
Y115750D02*
X123750D01*
X120650Y117250D02*
X123750D01*
X113925Y104400D02*
X114875D01*
X114400Y103925D02*
Y104875D01*
X113650Y102850D02*
X115150D01*
X113650Y105950D02*
X115150D01*
X113650Y102850D02*
Y105950D01*
X115150Y102850D02*
Y105950D01*
X119500Y101125D02*
Y102075D01*
X119025Y101600D02*
X119975D01*
X117950Y100850D02*
Y102350D01*
X121050Y100850D02*
Y102350D01*
X117950D02*
X121050D01*
X117950Y100850D02*
X121050D01*
X136050Y125425D02*
Y126375D01*
X135575Y125900D02*
X136525D01*
X137600Y125150D02*
Y126650D01*
X134500Y125150D02*
Y126650D01*
Y125150D02*
X137600D01*
X134500Y126650D02*
X137600D01*
X146850Y120150D02*
Y123650D01*
X150750Y120150D02*
Y123650D01*
X146850D02*
X150750D01*
X146850Y120150D02*
X150750D01*
X148300Y121900D02*
X149300D01*
X148800Y121400D02*
Y122400D01*
Y123925D02*
Y124875D01*
X148325Y124400D02*
X149275D01*
X147250Y123650D02*
Y125150D01*
X150350Y123650D02*
Y125150D01*
X147250D02*
X150350D01*
X147250Y123650D02*
X150350D01*
X139300Y116400D02*
Y117400D01*
X138800Y116900D02*
X139800D01*
X138150Y114550D02*
Y119250D01*
X140450Y114550D02*
Y119250D01*
X138150Y114550D02*
X140450D01*
X138150Y119250D02*
X140450D01*
X142050Y116400D02*
Y117400D01*
X141550Y116900D02*
X142550D01*
X140900Y114550D02*
Y119250D01*
X143200Y114550D02*
Y119250D01*
X140900Y114550D02*
X143200D01*
X140900Y119250D02*
X143200D01*
X144800Y116400D02*
Y117400D01*
X144300Y116900D02*
X145300D01*
X143650Y114550D02*
Y119250D01*
X145950Y114550D02*
Y119250D01*
X143650Y114550D02*
X145950D01*
X143650Y119250D02*
X145950D01*
X135650Y110425D02*
Y111375D01*
X135175Y110900D02*
X136125D01*
X134100Y110150D02*
Y111650D01*
X137200Y110150D02*
Y111650D01*
X134100D02*
X137200D01*
X134100Y110150D02*
X137200D01*
X132100Y110425D02*
Y111375D01*
X131625Y110900D02*
X132575D01*
X130550Y110150D02*
Y111650D01*
X133650Y110150D02*
Y111650D01*
X130550D02*
X133650D01*
X130550Y110150D02*
X133650D01*
X89925Y132200D02*
X90875D01*
X90400Y131725D02*
Y132675D01*
X89650Y130650D02*
X91150D01*
X89650Y133750D02*
X91150D01*
X89650Y130650D02*
Y133750D01*
X91150Y130650D02*
Y133750D01*
X132225Y118400D02*
X133175D01*
X132700Y117925D02*
Y118875D01*
X131950Y116850D02*
X133450D01*
X131950Y119950D02*
X133450D01*
X131950Y116850D02*
Y119950D01*
X133450Y116850D02*
Y119950D01*
X112200Y127125D02*
Y128075D01*
X111725Y127600D02*
X112675D01*
X112950Y126050D02*
Y129150D01*
X111450Y126050D02*
Y129150D01*
X112950D01*
X111450Y126050D02*
X112950D01*
X126700Y115125D02*
Y116075D01*
X126225Y115600D02*
X127175D01*
X128250Y114850D02*
Y116350D01*
X125150Y114850D02*
Y116350D01*
Y114850D02*
X128250D01*
X125150Y116350D02*
X128250D01*
X86400Y135400D02*
Y136400D01*
X85900Y135900D02*
X86900D01*
X82350Y134150D02*
Y137650D01*
X90450Y134150D02*
Y137650D01*
X82350D02*
X90450D01*
X82350Y134150D02*
X90450D01*
X135950Y120425D02*
Y121375D01*
X135475Y120900D02*
X136425D01*
X137500Y120150D02*
Y121650D01*
X134400Y120150D02*
Y121650D01*
Y120150D02*
X137500D01*
X134400Y121650D02*
X137500D01*
X130300Y107425D02*
Y108375D01*
X129825Y107900D02*
X130775D01*
X128750Y107150D02*
Y108650D01*
X131850Y107150D02*
Y108650D01*
X128750D02*
X131850D01*
X128750Y107150D02*
X131850D01*
X146850Y114650D02*
Y118150D01*
X150750Y114650D02*
Y118150D01*
X146850D02*
X150750D01*
X146850Y114650D02*
X150750D01*
X148300Y116400D02*
X149300D01*
X148800Y115900D02*
Y116900D01*
Y118425D02*
Y119375D01*
X148325Y118900D02*
X149275D01*
X147250Y118150D02*
Y119650D01*
X150350Y118150D02*
Y119650D01*
X147250D02*
X150350D01*
X147250Y118150D02*
X150350D01*
X132525Y104200D02*
X133475D01*
X133000Y103725D02*
Y104675D01*
X132250Y102650D02*
X133750D01*
X132250Y105750D02*
X133750D01*
X132250Y102650D02*
Y105750D01*
X133750Y102650D02*
Y105750D01*
X139300Y110900D02*
Y111900D01*
X138800Y111400D02*
X139800D01*
X138150Y109050D02*
Y113750D01*
X140450Y109050D02*
Y113750D01*
X138150Y109050D02*
X140450D01*
X138150Y113750D02*
X140450D01*
X142050Y110900D02*
Y111900D01*
X141550Y111400D02*
X142550D01*
X140900Y109050D02*
Y113750D01*
X143200Y109050D02*
Y113750D01*
X140900Y109050D02*
X143200D01*
X140900Y113750D02*
X143200D01*
X144800Y110900D02*
Y111900D01*
X144300Y111400D02*
X145300D01*
X143650Y109050D02*
Y113750D01*
X145950Y109050D02*
Y113750D01*
X143650Y109050D02*
X145950D01*
X143650Y113750D02*
X145950D01*
X132225Y115100D02*
X133175D01*
X132700Y114625D02*
Y115575D01*
X131950Y116650D02*
X133450D01*
X131950Y113550D02*
X133450D01*
Y116650D01*
X131950Y113550D02*
Y116650D01*
X129125Y104200D02*
X130075D01*
X129600Y103725D02*
Y104675D01*
X128850Y102650D02*
X130350D01*
X128850Y105750D02*
X130350D01*
X128850Y102650D02*
Y105750D01*
X130350Y102650D02*
Y105750D01*
X117100Y106025D02*
Y106975D01*
X116625Y106500D02*
X117575D01*
X115550Y105750D02*
Y107250D01*
X118650Y105750D02*
Y107250D01*
X115550D02*
X118650D01*
X115550Y105750D02*
X118650D01*
X92100Y136225D02*
Y137175D01*
X91625Y136700D02*
X92575D01*
X90550Y135950D02*
Y137450D01*
X93650Y135950D02*
Y137450D01*
X90550D02*
X93650D01*
X90550Y135950D02*
X93650D01*
X122200Y114225D02*
Y115175D01*
X121725Y114700D02*
X122675D01*
X123750Y113950D02*
Y115450D01*
X120650Y113950D02*
Y115450D01*
Y113950D02*
X123750D01*
X120650Y115450D02*
X123750D01*
X123025Y112600D02*
X123975D01*
X123500Y112125D02*
Y113075D01*
X121950Y111850D02*
X125050D01*
X121950Y113350D02*
X125050D01*
Y111850D02*
Y113350D01*
X121950Y111850D02*
Y113350D01*
X130500Y101125D02*
Y102075D01*
X130025Y101600D02*
X130975D01*
X132050Y100850D02*
Y102350D01*
X128950Y100850D02*
Y102350D01*
Y100850D02*
X132050D01*
X128950Y102350D02*
X132050D01*
X135950Y115425D02*
Y116375D01*
X135475Y115900D02*
X136425D01*
X137500Y115150D02*
Y116650D01*
X134400Y115150D02*
Y116650D01*
Y115150D02*
X137500D01*
X134400Y116650D02*
X137500D01*
X146850Y109150D02*
Y112650D01*
X150750Y109150D02*
Y112650D01*
X146850D02*
X150750D01*
X146850Y109150D02*
X150750D01*
X148300Y110900D02*
X149300D01*
X148800Y110400D02*
Y111400D01*
Y112925D02*
Y113875D01*
X148325Y113400D02*
X149275D01*
X147250Y112650D02*
Y114150D01*
X150350Y112650D02*
Y114150D01*
X147250D02*
X150350D01*
X147250Y112650D02*
X150350D01*
X130825Y104200D02*
X131775D01*
X131300Y103725D02*
Y104675D01*
X130550Y102650D02*
X132050D01*
X130550Y105750D02*
X132050D01*
X130550Y102650D02*
Y105750D01*
X132050Y102650D02*
Y105750D01*
X126700Y101125D02*
Y102075D01*
X126225Y101600D02*
X127175D01*
X125150Y100850D02*
Y102350D01*
X128250Y100850D02*
Y102350D01*
X125150D02*
X128250D01*
X125150Y100850D02*
X128250D01*
X133500Y111650D02*
Y115150D01*
X137400Y111650D02*
Y115150D01*
X133500D02*
X137400D01*
X133500Y111650D02*
X137400D01*
X134950Y113400D02*
X135950D01*
X135450Y112900D02*
Y113900D01*
X133500Y116650D02*
Y120150D01*
X137400Y116650D02*
Y120150D01*
X133500D02*
X137400D01*
X133500Y116650D02*
X137400D01*
X134950Y118400D02*
X135950D01*
X135450Y117900D02*
Y118900D01*
X91250Y130550D02*
Y134050D01*
X95150Y130550D02*
Y134050D01*
X91250D02*
X95150D01*
X91250Y130550D02*
X95150D01*
X92700Y132300D02*
X93700D01*
X93200Y131800D02*
Y132800D01*
X133600Y121650D02*
Y125150D01*
X137500Y121650D02*
Y125150D01*
X133600D02*
X137500D01*
X133600Y121650D02*
X137500D01*
X135050Y123400D02*
X136050D01*
X135550Y122900D02*
Y123900D01*
X133600Y126650D02*
Y130150D01*
X137500Y126650D02*
Y130150D01*
X133600D02*
X137500D01*
X133600Y126650D02*
X137500D01*
X135050Y128400D02*
X136050D01*
X135550Y127900D02*
Y128900D01*
X133600Y131650D02*
Y135150D01*
X137500Y131650D02*
Y135150D01*
X133600D02*
X137500D01*
X133600Y131650D02*
X137500D01*
X135050Y133400D02*
X136050D01*
X135550Y132900D02*
Y133900D01*
X133600Y136650D02*
Y140150D01*
X137500Y136650D02*
Y140150D01*
X133600D02*
X137500D01*
X133600Y136650D02*
X137500D01*
X135050Y138400D02*
X136050D01*
X135550Y137900D02*
Y138900D01*
X92100Y134625D02*
Y135575D01*
X91625Y135100D02*
X92575D01*
X93650Y134350D02*
Y135850D01*
X90550Y134350D02*
Y135850D01*
Y134350D02*
X93650D01*
X90550Y135850D02*
X93650D01*
X109300Y118500D02*
Y119500D01*
X108800Y119000D02*
X109800D01*
X84500Y129900D02*
X85500D01*
X85000Y129400D02*
Y130400D01*
X86750Y127900D02*
Y131900D01*
X83250Y127900D02*
Y131900D01*
X86750D01*
X83250Y127900D02*
X86750D01*
X95850Y130050D02*
X98950D01*
X95850Y128550D02*
X98950D01*
X95850D02*
Y130050D01*
X98950Y128550D02*
Y130050D01*
X96925Y129300D02*
X97875D01*
X97400Y128825D02*
Y129775D01*
X95850Y128550D02*
X98950D01*
X95850Y127050D02*
X98950D01*
X95850D02*
Y128550D01*
X98950Y127050D02*
Y128550D01*
X96925Y127800D02*
X97875D01*
X97400Y127325D02*
Y128275D01*
X90150Y126750D02*
Y129850D01*
X91650Y126750D02*
Y129850D01*
X90150Y126750D02*
X91650D01*
X90150Y129850D02*
X91650D01*
X90900Y127825D02*
Y128775D01*
X90425Y128300D02*
X91375D01*
X93050Y126050D02*
X96150D01*
X93050Y124550D02*
X96150D01*
X93050D02*
Y126050D01*
X96150Y124550D02*
Y126050D01*
X94125Y125300D02*
X95075D01*
X94600Y124825D02*
Y125775D01*
X93050Y124550D02*
X96150D01*
X93050Y123050D02*
X96150D01*
X93050D02*
Y124550D01*
X96150Y123050D02*
Y124550D01*
X94125Y123800D02*
X95075D01*
X94600Y123325D02*
Y124275D01*
X79150Y121650D02*
X82250D01*
X79150Y120150D02*
X82250D01*
X79150D02*
Y121650D01*
X82250Y120150D02*
Y121650D01*
X80225Y120900D02*
X81175D01*
X80700Y120425D02*
Y121375D01*
X86750Y129050D02*
X89850D01*
X86750Y127550D02*
X89850D01*
X86750D02*
Y129050D01*
X89850Y127550D02*
Y129050D01*
X87825Y128300D02*
X88775D01*
X88300Y127825D02*
Y128775D01*
X87550Y119650D02*
X90650D01*
X87550Y118150D02*
X90650D01*
X87550D02*
Y119650D01*
X90650Y118150D02*
Y119650D01*
X88625Y118900D02*
X89575D01*
X89100Y118425D02*
Y119375D01*
X93050Y122750D02*
X96150D01*
X93050Y121250D02*
X96150D01*
X93050D02*
Y122750D01*
X96150Y121250D02*
Y122750D01*
X94125Y122000D02*
X95075D01*
X94600Y121525D02*
Y122475D01*
X93050Y121250D02*
X96150D01*
X93050Y119750D02*
X96150D01*
X93050D02*
Y121250D01*
X96150Y119750D02*
Y121250D01*
X94125Y120500D02*
X95075D01*
X94600Y120025D02*
Y120975D01*
X79150Y121750D02*
Y124850D01*
X80650Y121750D02*
Y124850D01*
X79150Y121750D02*
X80650D01*
X79150Y124850D02*
X80650D01*
X79900Y122825D02*
Y123775D01*
X79425Y123300D02*
X80375D01*
X84350Y119650D02*
X87450D01*
X84350Y118150D02*
X87450D01*
X84350D02*
Y119650D01*
X87450Y118150D02*
Y119650D01*
X85425Y118900D02*
X86375D01*
X85900Y118425D02*
Y119375D01*
X75750Y127650D02*
Y130750D01*
X74250Y127650D02*
Y130750D01*
X75750D01*
X74250Y127650D02*
X75750D01*
X75000Y128725D02*
Y129675D01*
X74525Y129200D02*
X75475D01*
X74250Y124550D02*
Y127650D01*
X75750Y124550D02*
Y127650D01*
X74250Y124550D02*
X75750D01*
X74250Y127650D02*
X75750D01*
X75000Y125625D02*
Y126575D01*
X74525Y126100D02*
X75475D01*
X115825Y127800D02*
X116775D01*
X116300Y127325D02*
Y128275D01*
X114750Y127050D02*
X117850D01*
X114750Y128550D02*
X117850D01*
Y127050D02*
Y128550D01*
X114750Y127050D02*
Y128550D01*
X80400Y117400D02*
Y118000D01*
X80100Y117700D02*
X80700D01*
X79300Y115300D02*
X81500D01*
X79300D02*
Y120100D01*
X81500D01*
Y115300D02*
Y120100D01*
X76500Y116400D02*
X77100D01*
X76800Y116100D02*
Y116700D01*
X79200Y115300D02*
Y117500D01*
X74400Y115300D02*
X79200D01*
X74400D02*
Y117500D01*
X79200D01*
X76400Y121000D02*
X77000D01*
X76700Y120700D02*
Y121300D01*
X79100Y119900D02*
Y122100D01*
X74300Y119900D02*
X79100D01*
X74300D02*
Y122100D01*
X79100D01*
X100950Y117050D02*
X102450D01*
X100950Y120150D02*
X102450D01*
X100950Y117050D02*
Y120150D01*
X102450Y117050D02*
Y120150D01*
X101225Y118600D02*
X102175D01*
X101700Y118125D02*
Y119075D01*
X110550Y126350D02*
Y127850D01*
X107450Y126350D02*
Y127850D01*
Y126350D02*
X110550D01*
X107450Y127850D02*
X110550D01*
X109000Y126625D02*
Y127575D01*
X108525Y127100D02*
X109475D01*
X116450Y121850D02*
Y123350D01*
X119550Y121850D02*
Y123350D01*
X116450D02*
X119550D01*
X116450Y121850D02*
X119550D01*
X118000Y122125D02*
Y123075D01*
X117525Y122600D02*
X118475D01*
X118850Y125750D02*
X120350D01*
X118850Y128850D02*
X120350D01*
X118850Y125750D02*
Y128850D01*
X120350Y125750D02*
Y128850D01*
X119125Y127300D02*
X120075D01*
X119600Y126825D02*
Y127775D01*
X82350Y124450D02*
X83850D01*
X82350Y127550D02*
X83850D01*
X82350Y124450D02*
Y127550D01*
X83850Y124450D02*
Y127550D01*
X82625Y126000D02*
X83575D01*
X83100Y125525D02*
Y126475D01*
X75850Y130750D02*
X77350D01*
X75850Y127650D02*
X77350D01*
Y130750D01*
X75850Y127650D02*
Y130750D01*
X76125Y129200D02*
X77075D01*
X76600Y128725D02*
Y129675D01*
X75850Y127650D02*
X77350D01*
X75850Y124550D02*
X77350D01*
Y127650D01*
X75850Y124550D02*
Y127650D01*
X76125Y126100D02*
X77075D01*
X76600Y125625D02*
Y126575D01*
X94350Y118150D02*
Y119650D01*
X91250Y118150D02*
Y119650D01*
Y118150D02*
X94350D01*
X91250Y119650D02*
X94350D01*
X92800Y118425D02*
Y119375D01*
X92325Y118900D02*
X93275D01*
X82750Y109050D02*
Y110550D01*
X85850Y109050D02*
Y110550D01*
X82750D02*
X85850D01*
X82750Y109050D02*
X85850D01*
X84300Y109325D02*
Y110275D01*
X83825Y109800D02*
X84775D01*
X88800Y130225D02*
Y131175D01*
X88325Y130700D02*
X89275D01*
X88050Y129150D02*
Y132250D01*
X89550Y129150D02*
Y132250D01*
X88050Y129150D02*
X89550D01*
X88050Y132250D02*
X89550D01*
X82400Y129425D02*
Y130375D01*
X81925Y129900D02*
X82875D01*
X83150Y128350D02*
Y131450D01*
X81650Y128350D02*
Y131450D01*
X83150D01*
X81650Y128350D02*
X83150D01*
X90925Y120500D02*
X91875D01*
X91400Y120025D02*
Y120975D01*
X89850Y121250D02*
X92950D01*
X89850Y119750D02*
X92950D01*
X89850D02*
Y121250D01*
X92950Y119750D02*
Y121250D01*
X90925Y122000D02*
X91875D01*
X91400Y121525D02*
Y122475D01*
X89850Y122750D02*
X92950D01*
X89850Y121250D02*
X92950D01*
X89850D02*
Y122750D01*
X92950Y121250D02*
Y122750D01*
X90925Y123800D02*
X91875D01*
X91400Y123325D02*
Y124275D01*
X89850Y124550D02*
X92950D01*
X89850Y123050D02*
X92950D01*
X89850D02*
Y124550D01*
X92950Y123050D02*
Y124550D01*
X90925Y125300D02*
X91875D01*
X91400Y124825D02*
Y125775D01*
X89850Y126050D02*
X92950D01*
X89850Y124550D02*
X92950D01*
X89850D02*
Y126050D01*
X92950Y124550D02*
Y126050D01*
X108525Y128700D02*
X109475D01*
X109000Y128225D02*
Y129175D01*
X107450Y129450D02*
X110550D01*
X107450Y127950D02*
X110550D01*
X107450D02*
Y129450D01*
X110550Y127950D02*
Y129450D01*
X102000Y127925D02*
Y128875D01*
X101525Y128400D02*
X102475D01*
X101250Y126850D02*
Y129950D01*
X102750Y126850D02*
Y129950D01*
X101250Y126850D02*
X102750D01*
X101250Y129950D02*
X102750D01*
X109225Y111400D02*
X110175D01*
X109700Y110925D02*
Y111875D01*
X108150Y112150D02*
X111250D01*
X108150Y110650D02*
X111250D01*
X108150D02*
Y112150D01*
X111250Y110650D02*
Y112150D01*
X116900Y118425D02*
Y119375D01*
X116425Y118900D02*
X117375D01*
X116150Y117350D02*
Y120450D01*
X117650Y117350D02*
Y120450D01*
X116150Y117350D02*
X117650D01*
X116150Y120450D02*
X117650D01*
X76100Y123300D02*
X77100D01*
X76600Y122800D02*
Y123800D01*
X74250Y124450D02*
X78950D01*
X74250Y122150D02*
X78950D01*
X74250D02*
Y124450D01*
X78950Y122150D02*
Y124450D01*
X76100Y118700D02*
X77100D01*
X76600Y118200D02*
Y119200D01*
X74250Y119850D02*
X78950D01*
X74250Y117550D02*
X78950D01*
X74250D02*
Y119850D01*
X78950Y117550D02*
Y119850D01*
X82700Y117100D02*
Y118100D01*
X82200Y117600D02*
X83200D01*
X81550Y115250D02*
Y119950D01*
X83850Y115250D02*
Y119950D01*
X81550Y115250D02*
X83850D01*
X81550Y119950D02*
X83850D01*
X81350Y125150D02*
Y128650D01*
X77450Y125150D02*
Y128650D01*
Y125150D02*
X81350D01*
X77450Y128650D02*
X81350D01*
X78900Y126900D02*
X79900D01*
X79400Y126400D02*
Y127400D01*
X81350Y128650D02*
Y132150D01*
X77450Y128650D02*
Y132150D01*
Y128650D02*
X81350D01*
X77450Y132150D02*
X81350D01*
X78900Y130400D02*
X79900D01*
X79400Y129900D02*
Y130900D01*
X101350Y122050D02*
Y125550D01*
X97450Y122050D02*
Y125550D01*
Y122050D02*
X101350D01*
X97450Y125550D02*
X101350D01*
X98900Y123800D02*
X99900D01*
X99400Y123300D02*
Y124300D01*
X115250Y123450D02*
Y126950D01*
X119150Y123450D02*
Y126950D01*
X115250D02*
X119150D01*
X115250Y123450D02*
X119150D01*
X116700Y125200D02*
X117700D01*
X117200Y124700D02*
Y125700D01*
X80600Y101900D02*
X81600D01*
X81100Y101400D02*
Y102400D01*
X78750Y103050D02*
X83450D01*
X78750Y100750D02*
X83450D01*
X78750D02*
Y103050D01*
X83450Y100750D02*
Y103050D01*
X82350Y108950D02*
X85850D01*
X82350Y105050D02*
X85850D01*
Y108950D01*
X82350Y105050D02*
Y108950D01*
X84100Y106500D02*
Y107500D01*
X83600Y107000D02*
X84600D01*
X98200Y119025D02*
Y119975D01*
X97725Y119500D02*
X98675D01*
X99750Y118750D02*
Y120250D01*
X96650Y118750D02*
Y120250D01*
Y118750D02*
X99750D01*
X96650Y120250D02*
X99750D01*
X98200Y120625D02*
Y121575D01*
X97725Y121100D02*
X98675D01*
X99750Y120350D02*
Y121850D01*
X96650Y120350D02*
Y121850D01*
Y120350D02*
X99750D01*
X96650Y121850D02*
X99750D01*
X103000Y126700D02*
X107200D01*
X103000Y130100D02*
X107200D01*
Y126700D02*
Y130100D01*
X103000Y126700D02*
Y130100D01*
X104600Y128400D02*
X105600D01*
X105100Y127900D02*
Y128900D01*
X123300Y106200D02*
X124300D01*
X123800Y105700D02*
Y106700D01*
X119150Y102450D02*
X128450D01*
X119150Y109950D02*
X128450D01*
X119150Y102450D02*
Y109950D01*
X128450Y102450D02*
Y109950D01*
X86800Y123100D02*
Y124100D01*
X86300Y123600D02*
X87300D01*
X89550Y119850D02*
Y127350D01*
X84050Y119850D02*
Y127350D01*
X89550D01*
X84050Y119850D02*
X89550D01*
D88*
X97188Y106358D02*
Y118042D01*
X86012Y106358D02*
X97188D01*
X86012D02*
Y118042D01*
X97188D01*
D89*
X116000Y112300D02*
Y125700D01*
X102600Y112300D02*
Y125700D01*
X116000D01*
X102600Y112300D02*
X116000D01*
M02*
