G04*
G04 #@! TF.GenerationSoftware,Altium Limited,Altium Designer,20.0.13 (296)*
G04*
G04 Layer_Color=16711935*
%FSLAX43Y43*%
%MOMM*%
G71*
G01*
G75*
%ADD15C,0.254*%
%ADD86C,0.152*%
D15*
X81300Y135800D02*
G03*
X85300Y135800I2000J0D01*
G01*
X80300Y135800D02*
G03*
X86300Y135800I3000J0D01*
G01*
X81300Y136700D02*
G03*
X80300Y136700I-500J0D01*
G01*
X86300Y136700D02*
G03*
X85300Y136700I-500J0D01*
G01*
X75300Y110700D02*
G03*
X75300Y109700I0J-500D01*
G01*
X82300Y112200D02*
G03*
X81593Y112907I-354J354D01*
G01*
X69000Y100000D02*
X163000D01*
Y142500D01*
X69000D02*
X163000D01*
X69000Y100000D02*
Y142500D01*
X81300Y135800D02*
Y136700D01*
X80300Y135800D02*
Y136700D01*
X85300Y135800D02*
Y136700D01*
X86300Y135800D02*
Y136700D01*
X75300Y110700D02*
X79375D01*
X81575Y112900D01*
X75300Y109700D02*
X79800D01*
X82287Y112188D01*
X69000Y86000D02*
X70524Y86508D01*
X69000Y86000D02*
X70524Y85492D01*
X161476D02*
X163000Y86000D01*
X161476Y86508D02*
X163000Y86000D01*
X69000D02*
X111759D01*
X119428D02*
X163000D01*
X69000Y85746D02*
Y99619D01*
X163000Y85746D02*
Y99619D01*
X172192Y101524D02*
X172700Y100000D01*
X173208Y101524D01*
X172700Y142500D02*
X173208Y140976D01*
X172192D02*
X172700Y142500D01*
Y100000D02*
Y117009D01*
Y124678D02*
Y142500D01*
X163381Y100000D02*
X172954D01*
X163381Y142500D02*
X172954D01*
D86*
X112166Y85340D02*
X112420Y85086D01*
X112927D01*
X113181Y85340D01*
Y86355D01*
X112927Y86609D01*
X112420D01*
X112166Y86355D01*
Y86102D01*
X112420Y85848D01*
X113181D01*
X114451Y85086D02*
Y86609D01*
X113689Y85848D01*
X114705D01*
X115213Y85086D02*
Y85340D01*
X115467D01*
Y85086D01*
X115213D01*
X116482Y86355D02*
X116736Y86609D01*
X117244D01*
X117498Y86355D01*
Y85340D01*
X117244Y85086D01*
X116736D01*
X116482Y85340D01*
Y86355D01*
X118006D02*
X118260Y86609D01*
X118768D01*
X119021Y86355D01*
Y85340D01*
X118768Y85086D01*
X118260D01*
X118006Y85340D01*
Y86355D01*
X173614Y118177D02*
X172091D01*
X172852Y117416D01*
Y118431D01*
X173614Y119955D02*
Y118939D01*
X172598Y119955D01*
X172345D01*
X172091Y119701D01*
Y119193D01*
X172345Y118939D01*
X173614Y120463D02*
X173360D01*
Y120717D01*
X173614D01*
Y120463D01*
X172091Y122748D02*
Y121732D01*
X172852D01*
X172598Y122240D01*
Y122494D01*
X172852Y122748D01*
X173360D01*
X173614Y122494D01*
Y121986D01*
X173360Y121732D01*
X172345Y123256D02*
X172091Y123510D01*
Y124018D01*
X172345Y124271D01*
X173360D01*
X173614Y124018D01*
Y123510D01*
X173360Y123256D01*
X172345D01*
M02*
