G04*
G04 #@! TF.GenerationSoftware,Altium Limited,Altium Designer,20.0.10 (225)*
G04*
G04 Layer_Color=16711935*
%FSLAX43Y43*%
%MOMM*%
G71*
G01*
G75*
%ADD63C,6.703*%
%ADD64R,1.353X1.703*%
%ADD65O,1.353X1.703*%
%ADD66O,1.703X2.203*%
G04:AMPARAMS|DCode=67|XSize=1.703mm|YSize=2.203mm|CornerRadius=0.477mm|HoleSize=0mm|Usage=FLASHONLY|Rotation=0.000|XOffset=0mm|YOffset=0mm|HoleType=Round|Shape=RoundedRectangle|*
%AMROUNDEDRECTD67*
21,1,1.703,1.250,0,0,0.0*
21,1,0.750,2.203,0,0,0.0*
1,1,0.953,0.375,-0.625*
1,1,0.953,-0.375,-0.625*
1,1,0.953,-0.375,0.625*
1,1,0.953,0.375,0.625*
%
%ADD67ROUNDEDRECTD67*%
%ADD68R,1.703X2.203*%
%ADD69O,2.203X1.703*%
%ADD70R,2.203X1.703*%
G04:AMPARAMS|DCode=71|XSize=1.353mm|YSize=1.703mm|CornerRadius=0.389mm|HoleSize=0mm|Usage=FLASHONLY|Rotation=0.000|XOffset=0mm|YOffset=0mm|HoleType=Round|Shape=RoundedRectangle|*
%AMROUNDEDRECTD71*
21,1,1.353,0.925,0,0,0.0*
21,1,0.575,1.703,0,0,0.0*
1,1,0.778,0.288,-0.463*
1,1,0.778,-0.288,-0.463*
1,1,0.778,-0.288,0.463*
1,1,0.778,0.288,0.463*
%
%ADD71ROUNDEDRECTD71*%
D63*
X72500Y139000D02*
D03*
Y103500D02*
D03*
X102000D02*
D03*
X159500D02*
D03*
Y139000D02*
D03*
X102000D02*
D03*
D64*
X117300Y139200D02*
D03*
D65*
X115800D02*
D03*
X114300D02*
D03*
X112800D02*
D03*
X111300D02*
D03*
X77600Y113500D02*
D03*
D66*
X84000Y140400D02*
D03*
X93000D02*
D03*
X89300Y102700D02*
D03*
X91800D02*
D03*
X94300D02*
D03*
X138650Y107200D02*
D03*
D67*
X81500Y140400D02*
D03*
D68*
X90500D02*
D03*
X86800Y102700D02*
D03*
X141150Y107200D02*
D03*
D69*
X71300Y130050D02*
D03*
Y122550D02*
D03*
Y125050D02*
D03*
Y127550D02*
D03*
Y120050D02*
D03*
Y117550D02*
D03*
Y115050D02*
D03*
X153600Y129950D02*
D03*
Y127450D02*
D03*
Y124950D02*
D03*
Y122450D02*
D03*
Y119950D02*
D03*
Y117450D02*
D03*
D70*
X71300Y112550D02*
D03*
X153600Y112450D02*
D03*
Y114950D02*
D03*
D71*
X76100Y113500D02*
D03*
M02*
