G04*
G04 #@! TF.GenerationSoftware,Altium Limited,Altium Designer,20.0.13 (296)*
G04*
G04 Layer_Physical_Order=2*
G04 Layer_Color=16711680*
%FSLAX43Y43*%
%MOMM*%
G71*
G01*
G75*
%ADD12C,0.400*%
%ADD13C,0.200*%
%ADD45C,0.300*%
%ADD46C,1.000*%
%ADD48R,1.500X2.000*%
%ADD49O,1.500X2.000*%
%ADD50R,2.000X1.500*%
%ADD51O,2.000X1.500*%
G04:AMPARAMS|DCode=52|XSize=1.5mm|YSize=2mm|CornerRadius=0.375mm|HoleSize=0mm|Usage=FLASHONLY|Rotation=90.000|XOffset=0mm|YOffset=0mm|HoleType=Round|Shape=RoundedRectangle|*
%AMROUNDEDRECTD52*
21,1,1.500,1.250,0,0,90.0*
21,1,0.750,2.000,0,0,90.0*
1,1,0.750,0.625,0.375*
1,1,0.750,0.625,-0.375*
1,1,0.750,-0.625,-0.375*
1,1,0.750,-0.625,0.375*
%
%ADD52ROUNDEDRECTD52*%
%ADD53O,1.150X1.500*%
%ADD54R,1.150X1.500*%
%ADD55C,6.500*%
%ADD56C,0.800*%
G36*
X151753Y141836D02*
X151596Y141398D01*
X151399Y140611D01*
X151280Y139810D01*
X151240Y139000D01*
X151280Y138190D01*
X151399Y137389D01*
X151596Y136602D01*
X151869Y135839D01*
X152215Y135106D01*
X152632Y134411D01*
X153115Y133760D01*
X153659Y133159D01*
X154260Y132615D01*
X154911Y132132D01*
X155606Y131715D01*
X156339Y131369D01*
X157102Y131096D01*
X157889Y130899D01*
X158690Y130780D01*
X159500Y130740D01*
X160310Y130780D01*
X161111Y130899D01*
X161898Y131096D01*
X162336Y131253D01*
X162500Y131138D01*
Y111362D01*
X162336Y111247D01*
X161898Y111404D01*
X161111Y111601D01*
X160310Y111720D01*
X159500Y111760D01*
X158690Y111720D01*
X157889Y111601D01*
X157102Y111404D01*
X156339Y111131D01*
X155606Y110785D01*
X154911Y110368D01*
X154260Y109885D01*
X153659Y109341D01*
X153115Y108740D01*
X152632Y108089D01*
X152215Y107394D01*
X151869Y106661D01*
X151596Y105898D01*
X151399Y105111D01*
X151280Y104310D01*
X151240Y103500D01*
X151280Y102690D01*
X151399Y101889D01*
X151596Y101102D01*
X151753Y100664D01*
X151638Y100500D01*
X109862D01*
X109747Y100664D01*
X109904Y101102D01*
X110101Y101889D01*
X110220Y102690D01*
X110260Y103500D01*
X110220Y104310D01*
X110101Y105111D01*
X109904Y105898D01*
X109631Y106661D01*
X109285Y107394D01*
X108868Y108089D01*
X108385Y108740D01*
X107841Y109341D01*
X107240Y109885D01*
X106589Y110368D01*
X106356Y110507D01*
X106410Y110700D01*
X108300D01*
Y112800D01*
X105700D01*
Y111063D01*
X105531Y110956D01*
X105161Y111131D01*
X104398Y111404D01*
X103611Y111601D01*
X102810Y111720D01*
X102000Y111760D01*
X101190Y111720D01*
X100389Y111601D01*
X99602Y111404D01*
X99164Y111247D01*
X99000Y111362D01*
Y120200D01*
X100100D01*
X103200Y117100D01*
X108000D01*
X111900Y121000D01*
Y124598D01*
X112290Y125182D01*
X112602Y125814D01*
X112828Y126481D01*
X112965Y127172D01*
X113012Y127875D01*
Y128625D01*
X112965Y129328D01*
X112898Y129669D01*
X112963Y129998D01*
X113012Y130750D01*
X112963Y131502D01*
X112816Y132241D01*
X112574Y132955D01*
X112240Y133631D01*
X111822Y134258D01*
X111325Y134825D01*
X110758Y135322D01*
X110131Y135740D01*
X109676Y135965D01*
X109904Y136602D01*
X110101Y137389D01*
X110220Y138190D01*
X110249Y138774D01*
X110448Y138797D01*
X110536Y138584D01*
X110676Y138401D01*
X110859Y138261D01*
X111072Y138173D01*
X111300Y138142D01*
X111528Y138173D01*
X111741Y138261D01*
X111924Y138401D01*
X111950Y138435D01*
X112132D01*
X112176Y138401D01*
X112359Y138261D01*
X112392Y138247D01*
Y136700D01*
X112392Y136700D01*
X112423Y136544D01*
X112512Y136412D01*
X115092Y133831D01*
Y125568D01*
X114912Y125388D01*
X114823Y125255D01*
X114792Y125099D01*
X114792Y125099D01*
Y123800D01*
X114792Y123800D01*
X114823Y123644D01*
X114912Y123512D01*
X115737Y122687D01*
X115737Y122687D01*
X115869Y122598D01*
X116025Y122567D01*
X116025Y122567D01*
X116156D01*
X116226Y122476D01*
X116372Y122364D01*
X116542Y122293D01*
X116725Y122269D01*
X116908Y122293D01*
X117078Y122364D01*
X117142Y122413D01*
X117329Y122304D01*
X117319Y122225D01*
X117343Y122042D01*
X117414Y121872D01*
X117526Y121726D01*
X117672Y121614D01*
X117842Y121543D01*
X118025Y121519D01*
X118208Y121543D01*
X118378Y121614D01*
X118524Y121726D01*
X118636Y121872D01*
X118707Y122042D01*
X118731Y122225D01*
X118707Y122408D01*
X118636Y122578D01*
X118524Y122724D01*
X118378Y122836D01*
X118208Y122907D01*
X118025Y122931D01*
X117842Y122907D01*
X117672Y122836D01*
X117608Y122787D01*
X117421Y122896D01*
X117431Y122975D01*
X117407Y123158D01*
X117336Y123328D01*
X117224Y123474D01*
X117078Y123586D01*
X116908Y123657D01*
X116725Y123681D01*
X116542Y123657D01*
X116372Y123586D01*
X116226Y123474D01*
X116110Y123467D01*
X115718Y123858D01*
X115727Y123883D01*
X115917Y124018D01*
X116100Y123994D01*
X116283Y124018D01*
X116453Y124089D01*
X116599Y124201D01*
X116701D01*
X116847Y124089D01*
X117017Y124018D01*
X117200Y123994D01*
X117383Y124018D01*
X117553Y124089D01*
X117699Y124201D01*
X117811Y124347D01*
X117882Y124517D01*
X117906Y124700D01*
X117882Y124883D01*
X117811Y125053D01*
X117699Y125199D01*
X117553Y125311D01*
X117383Y125382D01*
X117200Y125406D01*
X117086Y125391D01*
X116908Y125569D01*
Y128802D01*
X117108Y128821D01*
X117123Y128744D01*
X117212Y128612D01*
X118062Y127762D01*
X118062Y127762D01*
X118194Y127673D01*
X118350Y127642D01*
X130481D01*
X130551Y127551D01*
X130697Y127439D01*
X130867Y127368D01*
X131050Y127344D01*
X131233Y127368D01*
X131403Y127439D01*
X131549Y127551D01*
X131661Y127697D01*
X131732Y127867D01*
X131756Y128050D01*
X131732Y128233D01*
X131661Y128403D01*
X131549Y128549D01*
X131403Y128661D01*
X131233Y128732D01*
X131050Y128756D01*
X130867Y128732D01*
X130697Y128661D01*
X130551Y128549D01*
X130481Y128458D01*
X118616D01*
X118514Y128580D01*
X118549Y128765D01*
X118561Y128795D01*
X118700Y128900D01*
X118847Y128789D01*
X119017Y128718D01*
X119200Y128694D01*
X119383Y128718D01*
X119553Y128789D01*
X119699Y128901D01*
X119811Y129047D01*
X119882Y129217D01*
X119906Y129400D01*
X119882Y129583D01*
X119857Y129644D01*
X119858Y129650D01*
Y136881D01*
X119949Y136951D01*
X120061Y137097D01*
X120132Y137267D01*
X120156Y137450D01*
X120132Y137633D01*
X120061Y137803D01*
X119949Y137949D01*
X119803Y138061D01*
X119633Y138132D01*
X119450Y138156D01*
X119267Y138132D01*
X119097Y138061D01*
X118951Y137949D01*
X118839Y137803D01*
X118807Y137726D01*
X118753Y137711D01*
X118583Y137782D01*
X118400Y137806D01*
X118217Y137782D01*
X118047Y137711D01*
X117901Y137599D01*
X117789Y137453D01*
X117718Y137283D01*
X117694Y137100D01*
X117718Y136917D01*
X117789Y136747D01*
X117792Y136742D01*
Y135667D01*
X117592Y135585D01*
X116291Y136886D01*
X116306Y137000D01*
X116282Y137183D01*
X116211Y137353D01*
X116099Y137499D01*
X115953Y137611D01*
X115783Y137682D01*
X115600Y137706D01*
X115417Y137682D01*
X115314Y137639D01*
X115114Y137739D01*
Y137937D01*
X115414Y138238D01*
X115572Y138173D01*
X115800Y138142D01*
X116028Y138173D01*
X116241Y138261D01*
X116424Y138401D01*
X116564Y138584D01*
X116652Y138797D01*
X116683Y139025D01*
Y139375D01*
X116652Y139603D01*
X116564Y139816D01*
X116424Y139999D01*
X116241Y140139D01*
X116028Y140227D01*
X115800Y140258D01*
X115572Y140227D01*
X115359Y140139D01*
X115176Y139999D01*
X115132Y139965D01*
X114968D01*
X114924Y139999D01*
X114741Y140139D01*
X114528Y140227D01*
X114300Y140258D01*
X114072Y140227D01*
X113859Y140139D01*
X113676Y139999D01*
X113650Y139965D01*
X113468D01*
X113424Y139999D01*
X113241Y140139D01*
X113028Y140227D01*
X112800Y140258D01*
X112572Y140227D01*
X112359Y140139D01*
X112176Y139999D01*
X112132Y139965D01*
X111950D01*
X111924Y139999D01*
X111741Y140139D01*
X111528Y140227D01*
X111300Y140258D01*
X111072Y140227D01*
X110859Y140139D01*
X110676Y139999D01*
X110536Y139816D01*
X110448Y139603D01*
X110435Y139509D01*
X110235Y139518D01*
X110220Y139810D01*
X110101Y140611D01*
X109904Y141398D01*
X109747Y141836D01*
X109862Y142000D01*
X151638Y142000D01*
X151753Y141836D01*
D02*
G37*
G36*
X113676Y138401D02*
X113859Y138261D01*
X113892Y138247D01*
Y136446D01*
X113707Y136369D01*
X113208Y136869D01*
Y138247D01*
X113241Y138261D01*
X113424Y138401D01*
X113468Y138435D01*
X113650D01*
X113676Y138401D01*
D02*
G37*
G36*
X119025Y136485D02*
X119042Y136470D01*
Y130085D01*
X119017Y130082D01*
X118847Y130011D01*
X118808Y129982D01*
X118608Y130080D01*
Y130808D01*
Y136428D01*
X118753Y136489D01*
X118842Y136557D01*
X119025Y136485D01*
D02*
G37*
%LPC*%
G36*
X146900Y141606D02*
X146717Y141582D01*
X146547Y141511D01*
X146401Y141399D01*
X146370Y141359D01*
X129900D01*
X129724Y141324D01*
X129576Y141224D01*
X128751Y140399D01*
X128700Y140406D01*
X128517Y140382D01*
X128347Y140311D01*
X128201Y140199D01*
X128089Y140053D01*
X128018Y139883D01*
X127994Y139700D01*
X128018Y139517D01*
X128089Y139347D01*
X128201Y139201D01*
X128347Y139089D01*
X128517Y139018D01*
X128700Y138994D01*
X128883Y139018D01*
X129053Y139089D01*
X129199Y139201D01*
X129311Y139347D01*
X129382Y139517D01*
X129406Y139700D01*
X129399Y139751D01*
X130090Y140441D01*
X146370D01*
X146401Y140401D01*
X146547Y140289D01*
X146717Y140218D01*
X146900Y140194D01*
X147083Y140218D01*
X147253Y140289D01*
X147399Y140401D01*
X147511Y140547D01*
X147582Y140717D01*
X147606Y140900D01*
X147582Y141083D01*
X147511Y141253D01*
X147399Y141399D01*
X147253Y141511D01*
X147083Y141582D01*
X146900Y141606D01*
D02*
G37*
G36*
X120600Y141006D02*
X120417Y140982D01*
X120247Y140911D01*
X120101Y140799D01*
X119989Y140653D01*
X119918Y140483D01*
X119894Y140300D01*
X119918Y140117D01*
X119989Y139947D01*
X120101Y139801D01*
X120247Y139689D01*
X120265Y139681D01*
X120312Y139612D01*
X120444Y139523D01*
X120600Y139492D01*
X120831D01*
X127062Y133262D01*
X127062Y133262D01*
X127194Y133173D01*
X127350Y133142D01*
X127350Y133142D01*
X130481D01*
X130551Y133051D01*
X130697Y132939D01*
X130867Y132868D01*
X131050Y132844D01*
X131233Y132868D01*
X131403Y132939D01*
X131549Y133051D01*
X131661Y133197D01*
X131732Y133367D01*
X131756Y133550D01*
X131732Y133733D01*
X131661Y133903D01*
X131549Y134049D01*
X131403Y134161D01*
X131233Y134232D01*
X131050Y134256D01*
X130867Y134232D01*
X130697Y134161D01*
X130551Y134049D01*
X130481Y133958D01*
X129211D01*
X129143Y134158D01*
X129199Y134201D01*
X129311Y134347D01*
X129382Y134517D01*
X129406Y134700D01*
X129399Y134751D01*
X129590Y134941D01*
X146370D01*
X146401Y134901D01*
X146547Y134789D01*
X146717Y134718D01*
X146900Y134694D01*
X147083Y134718D01*
X147253Y134789D01*
X147399Y134901D01*
X147511Y135047D01*
X147582Y135217D01*
X147606Y135400D01*
X147582Y135583D01*
X147511Y135753D01*
X147399Y135899D01*
X147253Y136011D01*
X147083Y136082D01*
X146900Y136106D01*
X146717Y136082D01*
X146547Y136011D01*
X146401Y135899D01*
X146370Y135859D01*
X129400D01*
X129224Y135824D01*
X129076Y135724D01*
X128751Y135399D01*
X128700Y135406D01*
X128517Y135382D01*
X128347Y135311D01*
X128201Y135199D01*
X128089Y135053D01*
X128018Y134883D01*
X127994Y134700D01*
X128018Y134517D01*
X128089Y134347D01*
X128201Y134201D01*
X128257Y134158D01*
X128189Y133958D01*
X127519D01*
X121291Y140186D01*
X121306Y140300D01*
X121282Y140483D01*
X121211Y140653D01*
X121099Y140799D01*
X120953Y140911D01*
X120783Y140982D01*
X120600Y141006D01*
D02*
G37*
G36*
X146900Y130606D02*
X146717Y130582D01*
X146547Y130511D01*
X146401Y130399D01*
X146370Y130359D01*
X128939D01*
X128883Y130382D01*
X128700Y130406D01*
X128517Y130382D01*
X128347Y130311D01*
X128201Y130199D01*
X128089Y130053D01*
X128018Y129883D01*
X127994Y129700D01*
X128018Y129517D01*
X128089Y129347D01*
X128201Y129201D01*
X128347Y129089D01*
X128517Y129018D01*
X128700Y128994D01*
X128883Y129018D01*
X129053Y129089D01*
X129199Y129201D01*
X129311Y129347D01*
X129350Y129441D01*
X146370D01*
X146401Y129401D01*
X146547Y129289D01*
X146717Y129218D01*
X146900Y129194D01*
X147083Y129218D01*
X147253Y129289D01*
X147399Y129401D01*
X147511Y129547D01*
X147582Y129717D01*
X147606Y129900D01*
X147582Y130083D01*
X147511Y130253D01*
X147399Y130399D01*
X147253Y130511D01*
X147083Y130582D01*
X146900Y130606D01*
D02*
G37*
G36*
X153850Y128509D02*
X153350D01*
X153076Y128473D01*
X152820Y128367D01*
X152601Y128199D01*
X152433Y127980D01*
X152327Y127724D01*
X152291Y127450D01*
X152327Y127176D01*
X152433Y126920D01*
X152601Y126701D01*
X152820Y126533D01*
X153076Y126427D01*
X153350Y126391D01*
X153850D01*
X154124Y126427D01*
X154380Y126533D01*
X154599Y126701D01*
X154767Y126920D01*
X154873Y127176D01*
X154909Y127450D01*
X154873Y127724D01*
X154767Y127980D01*
X154599Y128199D01*
X154380Y128367D01*
X154124Y128473D01*
X153850Y128509D01*
D02*
G37*
G36*
X120200Y125106D02*
X120017Y125082D01*
X119847Y125011D01*
X119701Y124899D01*
X119589Y124753D01*
X119534Y124622D01*
X119409Y124580D01*
X119316Y124578D01*
X119299Y124599D01*
X119153Y124711D01*
X118983Y124782D01*
X118800Y124806D01*
X118617Y124782D01*
X118447Y124711D01*
X118301Y124599D01*
X118189Y124453D01*
X118118Y124283D01*
X118094Y124100D01*
X118118Y123917D01*
X118189Y123747D01*
X118301Y123601D01*
X118447Y123489D01*
X118617Y123418D01*
X118800Y123394D01*
X118914Y123409D01*
X124292Y118031D01*
Y113900D01*
X124292Y113900D01*
X124323Y113744D01*
X124412Y113612D01*
X126792Y111231D01*
Y106569D01*
X126701Y106499D01*
X126589Y106353D01*
X126518Y106183D01*
X126494Y106000D01*
X126518Y105817D01*
X126589Y105647D01*
X126701Y105501D01*
X126847Y105389D01*
X127017Y105318D01*
X127200Y105294D01*
X127383Y105318D01*
X127553Y105389D01*
X127699Y105501D01*
X127811Y105647D01*
X127882Y105817D01*
X127906Y106000D01*
X127882Y106183D01*
X127811Y106353D01*
X127699Y106499D01*
X127608Y106569D01*
Y111400D01*
X127608Y111400D01*
X127577Y111556D01*
X127488Y111688D01*
X127488Y111688D01*
X125108Y114069D01*
Y114402D01*
X125308Y114421D01*
X125323Y114344D01*
X125412Y114212D01*
X131609Y108014D01*
X131594Y107900D01*
X131618Y107717D01*
X131689Y107547D01*
X131801Y107401D01*
X131947Y107289D01*
X132117Y107218D01*
X132300Y107194D01*
X132483Y107218D01*
X132653Y107289D01*
X132799Y107401D01*
X132911Y107547D01*
X132982Y107717D01*
X133006Y107900D01*
X132982Y108083D01*
X132911Y108253D01*
X132799Y108399D01*
X132653Y108511D01*
X132483Y108582D01*
X132300Y108606D01*
X132186Y108591D01*
X126108Y114669D01*
Y118900D01*
X126108Y118900D01*
X126077Y119056D01*
X125988Y119188D01*
X120891Y124286D01*
X120906Y124400D01*
X120882Y124583D01*
X120811Y124753D01*
X120699Y124899D01*
X120553Y125011D01*
X120383Y125082D01*
X120200Y125106D01*
D02*
G37*
G36*
X153850Y126009D02*
X153350D01*
X153076Y125973D01*
X152820Y125867D01*
X152601Y125699D01*
X152433Y125480D01*
X152327Y125224D01*
X152291Y124950D01*
X152327Y124676D01*
X152394Y124515D01*
X148640Y120760D01*
X148529Y120595D01*
X148490Y120400D01*
Y112711D01*
X147989Y112210D01*
X136800D01*
X136605Y112171D01*
X136440Y112060D01*
X134040Y109660D01*
X133929Y109495D01*
X133890Y109300D01*
Y107011D01*
X131889Y105010D01*
X126511D01*
X126210Y105311D01*
Y108400D01*
X126171Y108595D01*
X126060Y108760D01*
X123160Y111660D01*
X122995Y111771D01*
X122800Y111810D01*
X120911D01*
X119510Y113210D01*
X119345Y113321D01*
X119150Y113360D01*
X118535D01*
X118403Y113461D01*
X118233Y113532D01*
X118050Y113556D01*
X117867Y113532D01*
X117697Y113461D01*
X117551Y113349D01*
X117439Y113203D01*
X117368Y113033D01*
X117344Y112850D01*
X117368Y112667D01*
X117439Y112497D01*
X117540Y112365D01*
Y111661D01*
X112283Y106404D01*
X112117Y106382D01*
X111947Y106311D01*
X111801Y106199D01*
X111689Y106053D01*
X111618Y105883D01*
X111594Y105700D01*
X111618Y105517D01*
X111689Y105347D01*
X111801Y105201D01*
X111947Y105089D01*
X112117Y105018D01*
X112300Y104994D01*
X112483Y105018D01*
X112653Y105089D01*
X112799Y105201D01*
X112911Y105347D01*
X112982Y105517D01*
X113004Y105683D01*
X118410Y111090D01*
X118521Y111255D01*
X118560Y111450D01*
Y112340D01*
X118939D01*
X120340Y110940D01*
X120505Y110829D01*
X120700Y110790D01*
X122589D01*
X124271Y109108D01*
X124188Y108908D01*
X122700D01*
X122700Y108908D01*
X122544Y108877D01*
X122412Y108788D01*
X122412Y108788D01*
X115631Y102008D01*
X114069D01*
X113999Y102099D01*
X113853Y102211D01*
X113683Y102282D01*
X113500Y102306D01*
X113317Y102282D01*
X113147Y102211D01*
X113001Y102099D01*
X112889Y101953D01*
X112818Y101783D01*
X112794Y101600D01*
X112818Y101417D01*
X112889Y101247D01*
X113001Y101101D01*
X113147Y100989D01*
X113317Y100918D01*
X113500Y100894D01*
X113683Y100918D01*
X113853Y100989D01*
X113999Y101101D01*
X114069Y101192D01*
X115800D01*
X115800Y101192D01*
X115956Y101223D01*
X116088Y101312D01*
X116802Y102025D01*
X116972Y101912D01*
X116918Y101783D01*
X116894Y101600D01*
X116918Y101417D01*
X116989Y101247D01*
X117101Y101101D01*
X117247Y100989D01*
X117417Y100918D01*
X117600Y100894D01*
X117783Y100918D01*
X117953Y100989D01*
X118099Y101101D01*
X118211Y101247D01*
X118282Y101417D01*
X118306Y101600D01*
X118291Y101714D01*
X122488Y105912D01*
X122488Y105912D01*
X122577Y106044D01*
X122608Y106200D01*
X122608Y106200D01*
Y106831D01*
X123369Y107592D01*
X124031D01*
X124092Y107531D01*
Y104800D01*
X124092Y104800D01*
X124123Y104644D01*
X124212Y104512D01*
X126012Y102712D01*
X126012Y102712D01*
X126144Y102623D01*
X126300Y102592D01*
X132800D01*
X132800Y102592D01*
X132956Y102623D01*
X133088Y102712D01*
X136288Y105912D01*
X136288Y105912D01*
X136377Y106044D01*
X136408Y106200D01*
X136408Y106200D01*
Y108731D01*
X137669Y109992D01*
X138668D01*
X138751Y109792D01*
X138079Y109121D01*
X137951Y108953D01*
X137871Y108759D01*
X137843Y108550D01*
Y108123D01*
X137733Y107980D01*
X137627Y107724D01*
X137591Y107450D01*
Y106950D01*
X137627Y106676D01*
X137733Y106420D01*
X137901Y106201D01*
X138120Y106033D01*
X138376Y105927D01*
X138650Y105891D01*
X138924Y105927D01*
X139180Y106033D01*
X139399Y106201D01*
X139567Y106420D01*
X139673Y106676D01*
X139709Y106950D01*
Y107450D01*
X139673Y107724D01*
X139567Y107980D01*
X139457Y108123D01*
Y108216D01*
X139734Y108493D01*
X144766D01*
X146429Y106829D01*
X146597Y106701D01*
X146791Y106621D01*
X147000Y106593D01*
X150300D01*
X150509Y106621D01*
X150703Y106701D01*
X150871Y106829D01*
X151571Y107529D01*
X151699Y107697D01*
X151779Y107891D01*
X151807Y108100D01*
Y108166D01*
X154171Y110529D01*
X154299Y110697D01*
X154379Y110891D01*
X154407Y111100D01*
Y111400D01*
X154900D01*
Y113500D01*
X154407D01*
Y113900D01*
X154900D01*
Y116000D01*
X153082D01*
X153006Y116185D01*
X153228Y116407D01*
X153350Y116391D01*
X153850D01*
X154124Y116427D01*
X154380Y116533D01*
X154599Y116701D01*
X154767Y116920D01*
X154873Y117176D01*
X154909Y117450D01*
X154873Y117724D01*
X154767Y117980D01*
X154599Y118199D01*
X154380Y118367D01*
X154124Y118473D01*
X153850Y118509D01*
X153350D01*
X153076Y118473D01*
X152964Y118643D01*
X153228Y118907D01*
X153350Y118891D01*
X153850D01*
X154124Y118927D01*
X154380Y119033D01*
X154599Y119201D01*
X154767Y119420D01*
X154873Y119676D01*
X154909Y119950D01*
X154873Y120224D01*
X154767Y120480D01*
X154599Y120699D01*
X154380Y120867D01*
X154124Y120973D01*
X153850Y121009D01*
X153350D01*
X153076Y120973D01*
X152964Y121143D01*
X153228Y121407D01*
X153350Y121391D01*
X153850D01*
X154124Y121427D01*
X154380Y121533D01*
X154599Y121701D01*
X154767Y121920D01*
X154873Y122176D01*
X154909Y122450D01*
X154873Y122724D01*
X154767Y122980D01*
X154599Y123199D01*
X154380Y123367D01*
X154124Y123473D01*
X153850Y123509D01*
X153350D01*
X153076Y123473D01*
X152964Y123643D01*
X153228Y123907D01*
X153350Y123891D01*
X153850D01*
X154124Y123927D01*
X154380Y124033D01*
X154599Y124201D01*
X154767Y124420D01*
X154873Y124676D01*
X154909Y124950D01*
X154873Y125224D01*
X154767Y125480D01*
X154599Y125699D01*
X154380Y125867D01*
X154124Y125973D01*
X153850Y126009D01*
D02*
G37*
G36*
X128700Y125406D02*
X128517Y125382D01*
X128347Y125311D01*
X128201Y125199D01*
X128089Y125053D01*
X128018Y124883D01*
X127994Y124700D01*
X128018Y124517D01*
X128089Y124347D01*
X128201Y124201D01*
X128347Y124089D01*
X128517Y124018D01*
X128700Y123994D01*
X128782Y124005D01*
X128824Y123976D01*
X129000Y123941D01*
X146370D01*
X146401Y123901D01*
X146547Y123789D01*
X146717Y123718D01*
X146900Y123694D01*
X147083Y123718D01*
X147253Y123789D01*
X147399Y123901D01*
X147511Y124047D01*
X147582Y124217D01*
X147606Y124400D01*
X147582Y124583D01*
X147511Y124753D01*
X147399Y124899D01*
X147253Y125011D01*
X147083Y125082D01*
X146900Y125106D01*
X146717Y125082D01*
X146547Y125011D01*
X146401Y124899D01*
X146370Y124859D01*
X129385D01*
X129382Y124883D01*
X129311Y125053D01*
X129199Y125199D01*
X129053Y125311D01*
X128883Y125382D01*
X128700Y125406D01*
D02*
G37*
G36*
X128600Y120406D02*
X128417Y120382D01*
X128247Y120311D01*
X128101Y120199D01*
X127989Y120053D01*
X127918Y119883D01*
X127894Y119700D01*
X127918Y119517D01*
X127989Y119347D01*
X128101Y119201D01*
X128247Y119089D01*
X128417Y119018D01*
X128600Y118994D01*
X128651Y119001D01*
X129076Y118576D01*
X129224Y118476D01*
X129400Y118441D01*
X146370D01*
X146401Y118401D01*
X146547Y118289D01*
X146717Y118218D01*
X146900Y118194D01*
X147083Y118218D01*
X147253Y118289D01*
X147399Y118401D01*
X147511Y118547D01*
X147582Y118717D01*
X147606Y118900D01*
X147582Y119083D01*
X147511Y119253D01*
X147399Y119399D01*
X147253Y119511D01*
X147083Y119582D01*
X146900Y119606D01*
X146717Y119582D01*
X146547Y119511D01*
X146401Y119399D01*
X146370Y119359D01*
X129590D01*
X129299Y119649D01*
X129306Y119700D01*
X129282Y119883D01*
X129211Y120053D01*
X129099Y120199D01*
X128953Y120311D01*
X128783Y120382D01*
X128600Y120406D01*
D02*
G37*
G36*
X107400Y116706D02*
X107217Y116682D01*
X107047Y116611D01*
X106901Y116499D01*
X106789Y116353D01*
X106718Y116183D01*
X106694Y116000D01*
X106718Y115817D01*
X106789Y115647D01*
X106901Y115501D01*
X107047Y115389D01*
X107217Y115318D01*
X107400Y115294D01*
X107583Y115318D01*
X107753Y115389D01*
X107899Y115501D01*
X107969Y115592D01*
X108631D01*
X110812Y113412D01*
X110944Y113323D01*
X111100Y113292D01*
X111100Y113292D01*
X114900D01*
X114900Y113292D01*
X115056Y113323D01*
X115188Y113412D01*
X115686Y113909D01*
X115800Y113894D01*
X115983Y113918D01*
X116153Y113989D01*
X116299Y114101D01*
X116411Y114247D01*
X116482Y114417D01*
X116506Y114600D01*
X116482Y114783D01*
X116411Y114953D01*
X116299Y115099D01*
X116153Y115211D01*
X115983Y115282D01*
X115800Y115306D01*
X115617Y115282D01*
X115447Y115211D01*
X115301Y115099D01*
X115189Y114953D01*
X115118Y114783D01*
X115094Y114600D01*
X115109Y114486D01*
X114731Y114108D01*
X111269D01*
X109088Y116288D01*
X108956Y116377D01*
X108800Y116408D01*
X108800Y116408D01*
X107969D01*
X107899Y116499D01*
X107753Y116611D01*
X107583Y116682D01*
X107400Y116706D01*
D02*
G37*
G36*
X113200Y120306D02*
X113017Y120282D01*
X112847Y120211D01*
X112701Y120099D01*
X112589Y119953D01*
X112518Y119783D01*
X112494Y119600D01*
X112518Y119417D01*
X112589Y119247D01*
X112701Y119101D01*
X112847Y118989D01*
X113017Y118918D01*
X113200Y118894D01*
X113383Y118918D01*
X113553Y118989D01*
X113688Y119092D01*
X115288D01*
X115422Y118892D01*
X115418Y118883D01*
X115394Y118700D01*
X115418Y118517D01*
X115489Y118347D01*
X115601Y118201D01*
X115747Y118089D01*
X115917Y118018D01*
X116100Y117994D01*
X116223Y118010D01*
X120322Y113912D01*
X120322Y113912D01*
X120454Y113823D01*
X120610Y113792D01*
X120831D01*
X120901Y113701D01*
X121047Y113589D01*
X121217Y113518D01*
X121400Y113494D01*
X121583Y113518D01*
X121753Y113589D01*
X121899Y113701D01*
X122011Y113847D01*
X122082Y114017D01*
X122106Y114200D01*
X122082Y114383D01*
X122011Y114553D01*
X121899Y114699D01*
X121753Y114811D01*
X121583Y114882D01*
X121400Y114906D01*
X121217Y114882D01*
X121047Y114811D01*
X120901Y114699D01*
X120669Y114718D01*
X117482Y117905D01*
X117525Y118144D01*
X117599Y118201D01*
X117711Y118347D01*
X117782Y118517D01*
X117806Y118700D01*
X117782Y118883D01*
X117711Y119053D01*
X117599Y119199D01*
X117453Y119311D01*
X117283Y119382D01*
X117100Y119406D01*
X116986Y119391D01*
X116588Y119788D01*
X116456Y119877D01*
X116300Y119908D01*
X116300Y119908D01*
X113830D01*
X113811Y119953D01*
X113699Y120099D01*
X113553Y120211D01*
X113383Y120282D01*
X113200Y120306D01*
D02*
G37*
G36*
X128600Y115406D02*
X128417Y115382D01*
X128247Y115311D01*
X128101Y115199D01*
X127989Y115053D01*
X127918Y114883D01*
X127894Y114700D01*
X127918Y114517D01*
X127989Y114347D01*
X128101Y114201D01*
X128247Y114089D01*
X128417Y114018D01*
X128600Y113994D01*
X128651Y114001D01*
X129576Y113076D01*
X129724Y112976D01*
X129900Y112941D01*
X146370D01*
X146401Y112901D01*
X146547Y112789D01*
X146717Y112718D01*
X146900Y112694D01*
X147083Y112718D01*
X147253Y112789D01*
X147399Y112901D01*
X147511Y113047D01*
X147582Y113217D01*
X147606Y113400D01*
X147582Y113583D01*
X147511Y113753D01*
X147399Y113899D01*
X147253Y114011D01*
X147083Y114082D01*
X146900Y114106D01*
X146717Y114082D01*
X146547Y114011D01*
X146401Y113899D01*
X146370Y113859D01*
X130090D01*
X129299Y114649D01*
X129306Y114700D01*
X129282Y114883D01*
X129211Y115053D01*
X129099Y115199D01*
X128953Y115311D01*
X128783Y115382D01*
X128600Y115406D01*
D02*
G37*
%LPD*%
G36*
X120200Y123694D02*
X120314Y123709D01*
X125292Y118731D01*
Y118298D01*
X125092Y118279D01*
X125077Y118356D01*
X124988Y118488D01*
X124988Y118488D01*
X119944Y123533D01*
X119993Y123657D01*
X120045Y123714D01*
X120200Y123694D01*
D02*
G37*
G36*
X152327Y122724D02*
X152291Y122450D01*
X152327Y122176D01*
X152394Y122015D01*
X149695Y119316D01*
X149510Y119392D01*
Y120189D01*
X152157Y122836D01*
X152327Y122724D01*
D02*
G37*
G36*
Y120224D02*
X152291Y119950D01*
X152327Y119676D01*
X152394Y119515D01*
X150408Y117529D01*
X150208Y117612D01*
Y118387D01*
X152157Y120336D01*
X152327Y120224D01*
D02*
G37*
G36*
Y117724D02*
X152291Y117450D01*
X152327Y117176D01*
X152394Y117015D01*
X151310Y115931D01*
X151110Y116014D01*
Y116789D01*
X152157Y117836D01*
X152327Y117724D01*
D02*
G37*
G36*
X152300Y115112D02*
Y113900D01*
X152793D01*
Y113500D01*
X152300D01*
Y111400D01*
X152498D01*
X152574Y111215D01*
X152195Y110836D01*
X152010Y110912D01*
Y115138D01*
X152100Y115209D01*
X152300Y115112D01*
D02*
G37*
G36*
X150090Y111531D02*
Y110911D01*
X148552Y109373D01*
X148309Y109368D01*
X147269Y110407D01*
X147346Y110592D01*
X148700D01*
X148700Y110592D01*
X148856Y110623D01*
X148988Y110712D01*
X149890Y111613D01*
X150090Y111531D01*
D02*
G37*
G36*
X147809Y108714D02*
X147794Y108600D01*
X147818Y108417D01*
X147822Y108407D01*
X147689Y108207D01*
X147334D01*
X145749Y109792D01*
X145832Y109992D01*
X146531D01*
X147809Y108714D01*
D02*
G37*
G36*
X121792Y106733D02*
Y106369D01*
X117714Y102291D01*
X117600Y102306D01*
X117417Y102282D01*
X117288Y102228D01*
X117175Y102398D01*
X121592Y106815D01*
X121792Y106733D01*
D02*
G37*
D12*
X148500Y108600D02*
X150600Y110700D01*
X149700Y108600D02*
X151500Y110400D01*
X153525Y117425D02*
X153625D01*
X148200Y111700D02*
X149000Y112500D01*
X136800Y111700D02*
X148200D01*
X134400Y109300D02*
X136800Y111700D01*
X151500Y110400D02*
Y115400D01*
X150600Y110700D02*
Y117000D01*
X126300Y104500D02*
X132100D01*
X149000Y112500D02*
Y120400D01*
X132100Y104500D02*
X134400Y106800D01*
Y109300D01*
X151500Y115400D02*
X153525Y117425D01*
Y119925D02*
X153625D01*
X150600Y117000D02*
X153525Y119925D01*
X149800Y118700D02*
X153575Y122475D01*
X149000Y120400D02*
X152950Y124350D01*
X108100Y105100D02*
X109300Y106300D01*
X110100Y107100D01*
X107600Y105100D02*
X108100D01*
X118050Y112850D02*
X119150D01*
X122800Y111300D02*
X125700Y108400D01*
X120700Y111300D02*
X122800D01*
X119150Y112850D02*
X120700Y111300D01*
X125700Y105100D02*
X126300Y104500D01*
X125700Y105100D02*
Y108400D01*
X118050Y111450D02*
Y112850D01*
X112300Y105700D02*
X118050Y111450D01*
D13*
X137500Y110400D02*
X146700D01*
X148500Y108600D01*
X136000Y108900D02*
X137500Y110400D01*
X148700Y111000D02*
X149800Y112100D01*
X137200Y111000D02*
X148700D01*
X135300Y109100D02*
X137200Y111000D01*
X126300Y103000D02*
X132800D01*
X136000Y106200D02*
Y108900D01*
X132800Y103000D02*
X136000Y106200D01*
X149800Y112100D02*
Y118700D01*
X126300Y103700D02*
X132700D01*
X135300Y106300D02*
Y109100D01*
X132700Y103700D02*
X135300Y106300D01*
X125000Y105000D02*
X126300Y103700D01*
X125000Y105000D02*
Y107900D01*
X124500Y104800D02*
X126300Y103000D01*
X124500Y104800D02*
Y107700D01*
X117500Y128900D02*
Y135100D01*
X115600Y137000D02*
X117500Y135100D01*
X124700Y113900D02*
Y118200D01*
X118800Y124100D02*
X124700Y118200D01*
X125700Y114500D02*
Y118900D01*
X120200Y124400D02*
X125700Y118900D01*
X124400Y108500D02*
X125000Y107900D01*
X122700Y108500D02*
X124400D01*
X115800Y101600D02*
X122700Y108500D01*
X124200Y108000D02*
X124500Y107700D01*
X115500Y125399D02*
Y134000D01*
X112800Y136700D02*
X115500Y134000D01*
X112800Y136700D02*
Y139200D01*
X114300Y136100D02*
X116000Y134400D01*
Y124700D02*
Y134400D01*
X114706Y138106D02*
X115800Y139200D01*
X114706Y136494D02*
Y138106D01*
Y136494D02*
X116500Y134700D01*
Y125400D02*
Y134700D01*
X116025Y122975D02*
X116725D01*
X115200Y123800D02*
X116025Y122975D01*
X115200Y123800D02*
Y125099D01*
X115500Y125399D01*
X116500Y125400D02*
X117200Y124700D01*
X114900Y113700D02*
X115800Y114600D01*
X111100Y113700D02*
X114900D01*
X108800Y116000D02*
X111100Y113700D01*
X107400Y116000D02*
X108800D01*
X123200Y108000D02*
X124200D01*
X122200Y107000D02*
X123200Y108000D01*
X122200Y106200D02*
Y107000D01*
X117600Y101600D02*
X122200Y106200D01*
X113500Y101600D02*
X115800D01*
X127200Y106000D02*
Y111400D01*
X124700Y113900D02*
X127200Y111400D01*
X127350Y133550D02*
X131050D01*
X121000Y139900D02*
X127350Y133550D01*
X120600Y139900D02*
X121000D01*
X118350Y128050D02*
X131050D01*
X119450Y129650D02*
Y137450D01*
X119200Y129400D02*
X119450Y129650D01*
X118200Y136900D02*
X118400Y137100D01*
X118200Y130808D02*
Y136900D01*
Y130300D02*
Y130808D01*
Y129400D02*
Y130300D01*
X116200Y118900D02*
X116400Y118700D01*
Y118410D02*
Y118700D01*
Y118410D02*
X120610Y114200D01*
X121400D01*
X113200Y119500D02*
X116300D01*
X117100Y118700D01*
X117500Y128900D02*
X118350Y128050D01*
X114300Y136100D02*
Y139200D01*
X125700Y114500D02*
X132300Y107900D01*
D45*
X128900Y129900D02*
X146900D01*
X129400Y135400D02*
X146900D01*
X128700Y134700D02*
X129400Y135400D01*
X128700Y129700D02*
X128900Y129900D01*
X129000Y124400D02*
X146900D01*
X128700Y124700D02*
X129000Y124400D01*
X129400Y118900D02*
X146900D01*
X128600Y119700D02*
X129400Y118900D01*
X129900Y113400D02*
X146900D01*
X128600Y114700D02*
X129900Y113400D01*
X128700Y139700D02*
X129900Y140900D01*
X146900D01*
D46*
X147000Y107400D02*
X150300D01*
X151000Y108100D01*
Y108500D02*
X153600Y111100D01*
X151000Y108100D02*
Y108500D01*
X153600Y112450D02*
Y114950D01*
Y111100D02*
Y112450D01*
X145100Y109300D02*
X147000Y107400D01*
X139400Y109300D02*
X145100D01*
X138650Y108550D02*
X139400Y109300D01*
X138650Y107200D02*
Y108550D01*
D48*
X141150Y107200D02*
D03*
D49*
X138650D02*
D03*
D50*
X153600Y114950D02*
D03*
Y112450D02*
D03*
X107000Y111750D02*
D03*
D51*
X153600Y117450D02*
D03*
Y119950D02*
D03*
Y122450D02*
D03*
Y124950D02*
D03*
Y127450D02*
D03*
Y129950D02*
D03*
X107000Y114250D02*
D03*
Y130750D02*
D03*
D52*
Y128250D02*
D03*
D53*
X111300Y139200D02*
D03*
X112800D02*
D03*
X114300D02*
D03*
X115800D02*
D03*
D54*
X117300D02*
D03*
D55*
X102000Y103500D02*
D03*
X159500D02*
D03*
Y139000D02*
D03*
X102000D02*
D03*
D56*
X148500Y108600D02*
D03*
X149800Y108600D02*
D03*
X146900Y129900D02*
D03*
Y135400D02*
D03*
X107600Y105100D02*
D03*
X116725Y122975D02*
D03*
X116100Y124700D02*
D03*
X117200D02*
D03*
X128600Y114700D02*
D03*
X128600Y119700D02*
D03*
X128700Y124700D02*
D03*
Y129700D02*
D03*
Y134700D02*
D03*
Y139700D02*
D03*
X146900Y140900D02*
D03*
Y113400D02*
D03*
Y118900D02*
D03*
Y124400D02*
D03*
X115600Y137000D02*
D03*
X131050Y133550D02*
D03*
Y128050D02*
D03*
X120600Y140300D02*
D03*
X119450Y137450D02*
D03*
X118400Y137100D02*
D03*
X123800Y106800D02*
D03*
X132300Y107900D02*
D03*
X121500Y101600D02*
D03*
X117600D02*
D03*
X113500D02*
D03*
X112300Y105700D02*
D03*
X127200Y106000D02*
D03*
X118050Y112850D02*
D03*
X116100Y118700D02*
D03*
X121400Y114200D02*
D03*
X118025Y122225D02*
D03*
X113200Y119600D02*
D03*
X120200Y124400D02*
D03*
X118800Y124100D02*
D03*
X120800Y132850D02*
D03*
X107400Y116000D02*
D03*
X115800Y114600D02*
D03*
X117100Y118700D02*
D03*
X113900Y115100D02*
D03*
X118200Y129400D02*
D03*
X119200D02*
D03*
X114775Y125825D02*
D03*
X109300Y106300D02*
D03*
X118800Y114300D02*
D03*
X113194Y108792D02*
D03*
M02*
