G04*
G04 #@! TF.GenerationSoftware,Altium Limited,Altium Designer,20.0.13 (296)*
G04*
G04 Layer_Color=16711935*
%FSLAX43Y43*%
%MOMM*%
G71*
G01*
G75*
%ADD57C,0.254*%
%ADD58C,0.152*%
D57*
X104200Y108200D02*
G03*
X103493Y107493I-354J-354D01*
G01*
X105700Y101600D02*
G03*
X106700Y101600I500J0D01*
G01*
X105900Y118300D02*
G03*
X106607Y119007I354J354D01*
G01*
X102207Y123407D02*
G03*
X101500Y122700I-354J-354D01*
G01*
X104213Y108188D02*
X106700Y105700D01*
Y101600D02*
Y105700D01*
X103500Y107475D02*
X105700Y105275D01*
Y101600D02*
Y105275D01*
X98500Y100000D02*
Y142500D01*
X163000D01*
Y100000D02*
Y142500D01*
X98500Y100000D02*
X163000D01*
X102207Y123407D02*
X106607Y119007D01*
X101500Y122700D02*
X105900Y118300D01*
X172192Y101524D02*
X172700Y100000D01*
X173208Y101524D01*
X172700Y142500D02*
X173208Y140976D01*
X172192D02*
X172700Y142500D01*
Y100000D02*
Y117009D01*
Y124678D02*
Y142500D01*
X163381Y100000D02*
X172954D01*
X163381Y142500D02*
X172954D01*
X98500Y86000D02*
X100024Y86508D01*
X98500Y86000D02*
X100024Y85492D01*
X161476D02*
X163000Y86000D01*
X161476Y86508D02*
X163000Y86000D01*
X98500D02*
X126509D01*
X134178D02*
X163000D01*
X98500Y85746D02*
Y99619D01*
X163000Y85746D02*
Y99619D01*
D58*
X173614Y118177D02*
X172091D01*
X172852Y117416D01*
Y118431D01*
X173614Y119955D02*
Y118939D01*
X172598Y119955D01*
X172345D01*
X172091Y119701D01*
Y119193D01*
X172345Y118939D01*
X173614Y120463D02*
X173360D01*
Y120717D01*
X173614D01*
Y120463D01*
X172091Y122748D02*
Y121732D01*
X172852D01*
X172598Y122240D01*
Y122494D01*
X172852Y122748D01*
X173360D01*
X173614Y122494D01*
Y121986D01*
X173360Y121732D01*
X172345Y123256D02*
X172091Y123510D01*
Y124018D01*
X172345Y124271D01*
X173360D01*
X173614Y124018D01*
Y123510D01*
X173360Y123256D01*
X172345D01*
X127931Y86609D02*
X127424Y86355D01*
X126916Y85848D01*
Y85340D01*
X127170Y85086D01*
X127677D01*
X127931Y85340D01*
Y85594D01*
X127677Y85848D01*
X126916D01*
X129201Y85086D02*
Y86609D01*
X128439Y85848D01*
X129455D01*
X129963Y85086D02*
Y85340D01*
X130217D01*
Y85086D01*
X129963D01*
X132248Y86609D02*
X131232D01*
Y85848D01*
X131740Y86102D01*
X131994D01*
X132248Y85848D01*
Y85340D01*
X131994Y85086D01*
X131486D01*
X131232Y85340D01*
X132756Y86355D02*
X133010Y86609D01*
X133518D01*
X133771Y86355D01*
Y85340D01*
X133518Y85086D01*
X133010D01*
X132756Y85340D01*
Y86355D01*
M02*
