G04*
G04 #@! TF.GenerationSoftware,Altium Limited,Altium Designer,20.0.13 (296)*
G04*
G04 Layer_Color=128*
%FSLAX43Y43*%
%MOMM*%
G71*
G01*
G75*
%ADD63C,0.050*%
D63*
X140700Y107200D02*
X141600D01*
X141150Y106750D02*
Y107650D01*
X138200Y107200D02*
X139100D01*
X138650Y106750D02*
Y107650D01*
X153150Y114950D02*
X154050D01*
X153600Y114500D02*
Y115400D01*
X153150Y117450D02*
X154050D01*
X153600Y117000D02*
Y117900D01*
X153150Y119950D02*
X154050D01*
X153600Y119500D02*
Y120400D01*
X153150Y122450D02*
X154050D01*
X153600Y122000D02*
Y122900D01*
X153150Y124950D02*
X154050D01*
X153600Y124500D02*
Y125400D01*
X153150Y127450D02*
X154050D01*
X153600Y127000D02*
Y127900D01*
X153150Y129950D02*
X154050D01*
X153600Y129500D02*
Y130400D01*
X153150Y112450D02*
X154050D01*
X153600Y112000D02*
Y112900D01*
X106550Y114250D02*
X107450D01*
X107000Y113800D02*
Y114700D01*
X106550Y111750D02*
X107450D01*
X107000Y111300D02*
Y112200D01*
X106550Y130750D02*
X107450D01*
X107000Y130300D02*
Y131200D01*
X106550Y128250D02*
X107450D01*
X107000Y127800D02*
Y128700D01*
X110950Y139200D02*
X111650D01*
X111300Y138850D02*
Y139550D01*
X112450Y139200D02*
X113150D01*
X112800Y138850D02*
Y139550D01*
X113950Y139200D02*
X114650D01*
X114300Y138850D02*
Y139550D01*
X115450Y139200D02*
X116150D01*
X115800Y138850D02*
Y139550D01*
X116950Y139200D02*
X117650D01*
X117300Y138850D02*
Y139550D01*
X100250Y103500D02*
X103750D01*
X102000Y101750D02*
Y105250D01*
X157750Y103500D02*
X161250D01*
X159500Y101750D02*
Y105250D01*
X157750Y139000D02*
X161250D01*
X159500Y137250D02*
Y140750D01*
X100250Y139000D02*
X103750D01*
X102000Y137250D02*
Y140750D01*
X148300Y108600D02*
X148700D01*
X148500Y108400D02*
Y108800D01*
X149600Y108600D02*
X150000D01*
X149800Y108400D02*
Y108800D01*
X146700Y129900D02*
X147100D01*
X146900Y129700D02*
Y130100D01*
X146700Y135400D02*
X147100D01*
X146900Y135200D02*
Y135600D01*
X107400Y105100D02*
X107800D01*
X107600Y104900D02*
Y105300D01*
X116525Y122975D02*
X116925D01*
X116725Y122775D02*
Y123175D01*
X115900Y124700D02*
X116300D01*
X116100Y124500D02*
Y124900D01*
X117000Y124700D02*
X117400D01*
X117200Y124500D02*
Y124900D01*
X128400Y114700D02*
X128800D01*
X128600Y114500D02*
Y114900D01*
X128400Y119700D02*
X128800D01*
X128600Y119500D02*
Y119900D01*
X128500Y124700D02*
X128900D01*
X128700Y124500D02*
Y124900D01*
X128500Y129700D02*
X128900D01*
X128700Y129500D02*
Y129900D01*
X128500Y134700D02*
X128900D01*
X128700Y134500D02*
Y134900D01*
X128500Y139700D02*
X128900D01*
X128700Y139500D02*
Y139900D01*
X146700Y140900D02*
X147100D01*
X146900Y140700D02*
Y141100D01*
X146700Y113400D02*
X147100D01*
X146900Y113200D02*
Y113600D01*
X146700Y118900D02*
X147100D01*
X146900Y118700D02*
Y119100D01*
X146700Y124400D02*
X147100D01*
X146900Y124200D02*
Y124600D01*
X115400Y137000D02*
X115800D01*
X115600Y136800D02*
Y137200D01*
X130850Y133550D02*
X131250D01*
X131050Y133350D02*
Y133750D01*
X130850Y128050D02*
X131250D01*
X131050Y127850D02*
Y128250D01*
X120400Y140300D02*
X120800D01*
X120600Y140100D02*
Y140500D01*
X119250Y137450D02*
X119650D01*
X119450Y137250D02*
Y137650D01*
X118200Y137100D02*
X118600D01*
X118400Y136900D02*
Y137300D01*
X123600Y106800D02*
X124000D01*
X123800Y106600D02*
Y107000D01*
X132100Y107900D02*
X132500D01*
X132300Y107700D02*
Y108100D01*
X121300Y101600D02*
X121700D01*
X121500Y101400D02*
Y101800D01*
X117400Y101600D02*
X117800D01*
X117600Y101400D02*
Y101800D01*
X113300Y101600D02*
X113700D01*
X113500Y101400D02*
Y101800D01*
X112100Y105700D02*
X112500D01*
X112300Y105500D02*
Y105900D01*
X127000Y106000D02*
X127400D01*
X127200Y105800D02*
Y106200D01*
X117850Y112850D02*
X118250D01*
X118050Y112650D02*
Y113050D01*
X115900Y118700D02*
X116300D01*
X116100Y118500D02*
Y118900D01*
X121200Y114200D02*
X121600D01*
X121400Y114000D02*
Y114400D01*
X117825Y122225D02*
X118225D01*
X118025Y122025D02*
Y122425D01*
X113000Y119600D02*
X113400D01*
X113200Y119400D02*
Y119800D01*
X120000Y124400D02*
X120400D01*
X120200Y124200D02*
Y124600D01*
X118600Y124100D02*
X119000D01*
X118800Y123900D02*
Y124300D01*
X120600Y132850D02*
X121000D01*
X120800Y132650D02*
Y133050D01*
X107200Y116000D02*
X107600D01*
X107400Y115800D02*
Y116200D01*
X115600Y114600D02*
X116000D01*
X115800Y114400D02*
Y114800D01*
X116900Y118700D02*
X117300D01*
X117100Y118500D02*
Y118900D01*
X113700Y115100D02*
X114100D01*
X113900Y114900D02*
Y115300D01*
X118000Y129400D02*
X118400D01*
X118200Y129200D02*
Y129600D01*
X119000Y129400D02*
X119400D01*
X119200Y129200D02*
Y129600D01*
X114575Y125825D02*
X114975D01*
X114775Y125625D02*
Y126025D01*
X109100Y106300D02*
X109500D01*
X109300Y106100D02*
Y106500D01*
X118600Y114300D02*
X119000D01*
X118800Y114100D02*
Y114500D01*
X112994Y108792D02*
X113394D01*
X113194Y108592D02*
Y108992D01*
M02*
