G04*
G04 #@! TF.GenerationSoftware,Altium Limited,Altium Designer,20.0.13 (296)*
G04*
G04 Layer_Color=16711935*
%FSLAX43Y43*%
%MOMM*%
G71*
G01*
G75*
%ADD37R,1.703X2.203*%
%ADD38O,1.703X2.203*%
%ADD39R,2.203X1.703*%
%ADD40O,2.203X1.703*%
G04:AMPARAMS|DCode=41|XSize=1.703mm|YSize=2.203mm|CornerRadius=0.477mm|HoleSize=0mm|Usage=FLASHONLY|Rotation=90.000|XOffset=0mm|YOffset=0mm|HoleType=Round|Shape=RoundedRectangle|*
%AMROUNDEDRECTD41*
21,1,1.703,1.250,0,0,90.0*
21,1,0.750,2.203,0,0,90.0*
1,1,0.953,0.625,0.375*
1,1,0.953,0.625,-0.375*
1,1,0.953,-0.625,-0.375*
1,1,0.953,-0.625,0.375*
%
%ADD41ROUNDEDRECTD41*%
%ADD42O,1.353X1.703*%
%ADD43R,1.353X1.703*%
%ADD44C,6.703*%
D37*
X141150Y107200D02*
D03*
D38*
X138650D02*
D03*
D39*
X153600Y114950D02*
D03*
Y112450D02*
D03*
X107000Y111750D02*
D03*
D40*
X153600Y117450D02*
D03*
Y119950D02*
D03*
Y122450D02*
D03*
Y124950D02*
D03*
Y127450D02*
D03*
Y129950D02*
D03*
X107000Y114250D02*
D03*
Y130750D02*
D03*
D41*
Y128250D02*
D03*
D42*
X111300Y139200D02*
D03*
X112800D02*
D03*
X114300D02*
D03*
X115800D02*
D03*
D43*
X117300D02*
D03*
D44*
X102000Y103500D02*
D03*
X159500D02*
D03*
Y139000D02*
D03*
X102000D02*
D03*
M02*
