G04*
G04 #@! TF.GenerationSoftware,Altium Limited,Altium Designer,20.0.13 (296)*
G04*
G04 Layer_Color=32768*
%FSLAX43Y43*%
%MOMM*%
G71*
G01*
G75*
%ADD13C,0.200*%
%ADD59C,0.100*%
D13*
X135700Y100100D02*
Y109100D01*
X144100D01*
Y100100D02*
Y109100D01*
X135700Y100100D02*
X144100D01*
X150900Y132850D02*
X163200D01*
Y109450D02*
Y132850D01*
X150900Y109450D02*
X163200D01*
X150900D02*
Y132850D01*
X99900Y108800D02*
Y117200D01*
Y108800D02*
X108900D01*
Y117200D01*
X99900D02*
X108900D01*
X99900Y125300D02*
Y133700D01*
Y125300D02*
X108900D01*
Y133700D01*
X99900D02*
X108900D01*
X109407Y141704D02*
X119203D01*
X109407Y137571D02*
Y141704D01*
Y137571D02*
X119203D01*
Y141704D01*
D59*
X121700Y119250D02*
Y128750D01*
X113700Y119250D02*
Y128750D01*
X121700D01*
X113700Y119250D02*
X121700D01*
X117700Y123500D02*
Y124500D01*
X117200Y124000D02*
X118200D01*
X128450Y102450D02*
Y109950D01*
X119150Y102450D02*
Y109950D01*
X128450D01*
X119150Y102450D02*
X128450D01*
X123800Y105700D02*
Y106700D01*
X123300Y106200D02*
X124300D01*
X109750Y111650D02*
X112850D01*
X109750Y113150D02*
X112850D01*
Y111650D02*
Y113150D01*
X109750Y111650D02*
Y113150D01*
X110825Y112400D02*
X111775D01*
X111300Y111925D02*
Y112875D01*
X127300Y137900D02*
Y138900D01*
X126800Y138400D02*
X127800D01*
X125350Y136650D02*
X129250D01*
X125350Y140150D02*
X129250D01*
Y136650D02*
Y140150D01*
X125350Y136650D02*
Y140150D01*
X127300Y132900D02*
Y133900D01*
X126800Y133400D02*
X127800D01*
X125350Y131650D02*
X129250D01*
X125350Y135150D02*
X129250D01*
Y131650D02*
Y135150D01*
X125350Y131650D02*
Y135150D01*
X127300Y127900D02*
Y128900D01*
X126800Y128400D02*
X127800D01*
X125350Y126650D02*
X129250D01*
X125350Y130150D02*
X129250D01*
Y126650D02*
Y130150D01*
X125350Y126650D02*
Y130150D01*
X127300Y122900D02*
Y123900D01*
X126800Y123400D02*
X127800D01*
X125350Y121650D02*
X129250D01*
X125350Y125150D02*
X129250D01*
Y121650D02*
Y125150D01*
X125350Y121650D02*
Y125150D01*
X110700Y115200D02*
X111700D01*
X111200Y114700D02*
Y115700D01*
X109450Y113250D02*
Y117150D01*
X112950Y113250D02*
Y117150D01*
X109450Y113250D02*
X112950D01*
X109450Y117150D02*
X112950D01*
X127200Y117900D02*
Y118900D01*
X126700Y118400D02*
X127700D01*
X125250Y116650D02*
X129150D01*
X125250Y120150D02*
X129150D01*
Y116650D02*
Y120150D01*
X125250Y116650D02*
Y120150D01*
X127200Y112900D02*
Y113900D01*
X126700Y113400D02*
X127700D01*
X125250Y111650D02*
X129150D01*
X125250Y115150D02*
X129150D01*
Y111650D02*
Y115150D01*
X125250Y111650D02*
Y115150D01*
X125150Y100850D02*
X128250D01*
X125150Y102350D02*
X128250D01*
Y100850D02*
Y102350D01*
X125150Y100850D02*
Y102350D01*
X126225Y101600D02*
X127175D01*
X126700Y101125D02*
Y102075D01*
X132050Y102650D02*
Y105750D01*
X130550Y102650D02*
Y105750D01*
X132050D01*
X130550Y102650D02*
X132050D01*
X131300Y103725D02*
Y104675D01*
X130825Y104200D02*
X131775D01*
X147250Y112650D02*
X150350D01*
X147250Y114150D02*
X150350D01*
Y112650D02*
Y114150D01*
X147250Y112650D02*
Y114150D01*
X148325Y113400D02*
X149275D01*
X148800Y112925D02*
Y113875D01*
Y110400D02*
Y111400D01*
X148300Y110900D02*
X149300D01*
X146850Y109150D02*
X150750D01*
X146850Y112650D02*
X150750D01*
Y109150D02*
Y112650D01*
X146850Y109150D02*
Y112650D01*
X126150Y116650D02*
X129250D01*
X126150Y115150D02*
X129250D01*
X126150D02*
Y116650D01*
X129250Y115150D02*
Y116650D01*
X127225Y115900D02*
X128175D01*
X127700Y115425D02*
Y116375D01*
X128950Y102350D02*
X132050D01*
X128950Y100850D02*
X132050D01*
X128950D02*
Y102350D01*
X132050Y100850D02*
Y102350D01*
X130025Y101600D02*
X130975D01*
X130500Y101125D02*
Y102075D01*
X113950Y130050D02*
X115450D01*
X113950Y133150D02*
X115450D01*
X113950Y130050D02*
Y133150D01*
X115450Y130050D02*
Y133150D01*
X114225Y131600D02*
X115175D01*
X114700Y131125D02*
Y132075D01*
X123450Y113550D02*
Y116650D01*
X121950Y113550D02*
Y116650D01*
X123450D01*
X121950Y113550D02*
X123450D01*
X122700Y114625D02*
Y115575D01*
X122225Y115100D02*
X123175D01*
X109750Y110050D02*
X112850D01*
X109750Y111550D02*
X112850D01*
Y110050D02*
Y111550D01*
X109750Y110050D02*
Y111550D01*
X110825Y110800D02*
X111775D01*
X111300Y110325D02*
Y111275D01*
X115550Y105750D02*
X118650D01*
X115550Y107250D02*
X118650D01*
Y105750D02*
Y107250D01*
X115550Y105750D02*
Y107250D01*
X116625Y106500D02*
X117575D01*
X117100Y106025D02*
Y106975D01*
X130350Y102650D02*
Y105750D01*
X128850Y102650D02*
Y105750D01*
X130350D01*
X128850Y102650D02*
X130350D01*
X129600Y103725D02*
Y104675D01*
X129125Y104200D02*
X130075D01*
X123450Y113550D02*
Y116650D01*
X124950Y113550D02*
Y116650D01*
X123450Y113550D02*
X124950D01*
X123450Y116650D02*
X124950D01*
X124200Y114625D02*
Y115575D01*
X123725Y115100D02*
X124675D01*
X138150Y113750D02*
X140450D01*
X138150Y109050D02*
X140450D01*
Y113750D01*
X138150Y109050D02*
Y113750D01*
X138800Y111400D02*
X139800D01*
X139300Y110900D02*
Y111900D01*
X140900Y113750D02*
X143200D01*
X140900Y109050D02*
X143200D01*
Y113750D01*
X140900Y109050D02*
Y113750D01*
X141550Y111400D02*
X142550D01*
X142050Y110900D02*
Y111900D01*
X143650Y113750D02*
X145950D01*
X143650Y109050D02*
X145950D01*
Y113750D01*
X143650Y109050D02*
Y113750D01*
X144300Y111400D02*
X145300D01*
X144800Y110900D02*
Y111900D01*
X129900Y113750D02*
X132200D01*
X129900Y109050D02*
X132200D01*
Y113750D01*
X129900Y109050D02*
Y113750D01*
X130550Y111400D02*
X131550D01*
X131050Y110900D02*
Y111900D01*
X132650Y113750D02*
X134950D01*
X132650Y109050D02*
X134950D01*
Y113750D01*
X132650Y109050D02*
Y113750D01*
X133300Y111400D02*
X134300D01*
X133800Y110900D02*
Y111900D01*
X135400Y113750D02*
X137700D01*
X135400Y109050D02*
X137700D01*
Y113750D01*
X135400Y109050D02*
Y113750D01*
X136050Y111400D02*
X137050D01*
X136550Y110900D02*
Y111900D01*
X133750Y102650D02*
Y105750D01*
X132250Y102650D02*
Y105750D01*
X133750D01*
X132250Y102650D02*
X133750D01*
X133000Y103725D02*
Y104675D01*
X132525Y104200D02*
X133475D01*
X147250Y118150D02*
X150350D01*
X147250Y119650D02*
X150350D01*
Y118150D02*
Y119650D01*
X147250Y118150D02*
Y119650D01*
X148325Y118900D02*
X149275D01*
X148800Y118425D02*
Y119375D01*
Y115900D02*
Y116900D01*
X148300Y116400D02*
X149300D01*
X146850Y114650D02*
X150750D01*
X146850Y118150D02*
X150750D01*
Y114650D02*
Y118150D01*
X146850Y114650D02*
Y118150D01*
X128750Y107150D02*
X131850D01*
X128750Y108650D02*
X131850D01*
Y107150D02*
Y108650D01*
X128750Y107150D02*
Y108650D01*
X129825Y107900D02*
X130775D01*
X130300Y107425D02*
Y108375D01*
X126150Y121650D02*
X129250D01*
X126150Y120150D02*
X129250D01*
X126150D02*
Y121650D01*
X129250Y120150D02*
Y121650D01*
X127225Y120900D02*
X128175D01*
X127700Y120425D02*
Y121375D01*
X105250Y121350D02*
X113350D01*
X105250Y124850D02*
X113350D01*
Y121350D02*
Y124850D01*
X105250Y121350D02*
Y124850D01*
X108800Y123100D02*
X109800D01*
X109300Y122600D02*
Y123600D01*
X121950Y116850D02*
Y119950D01*
X123450Y116850D02*
Y119950D01*
X121950Y116850D02*
X123450D01*
X121950Y119950D02*
X123450D01*
X122700Y117925D02*
Y118875D01*
X122225Y118400D02*
X123175D01*
X115550Y130050D02*
X117050D01*
X115550Y133150D02*
X117050D01*
X115550Y130050D02*
Y133150D01*
X117050Y130050D02*
Y133150D01*
X115825Y131600D02*
X116775D01*
X116300Y131125D02*
Y132075D01*
X124950Y116850D02*
Y119950D01*
X123450Y116850D02*
Y119950D01*
X124950D01*
X123450Y116850D02*
X124950D01*
X124200Y117925D02*
Y118875D01*
X123725Y118400D02*
X124675D01*
X109950Y117150D02*
X113050D01*
X109950Y118650D02*
X113050D01*
Y117150D02*
Y118650D01*
X109950Y117150D02*
Y118650D01*
X111025Y117900D02*
X111975D01*
X111500Y117425D02*
Y118375D01*
X122300Y110150D02*
X125400D01*
X122300Y111650D02*
X125400D01*
Y110150D02*
Y111650D01*
X122300Y110150D02*
Y111650D01*
X123375Y110900D02*
X124325D01*
X123850Y110425D02*
Y111375D01*
X125850Y110150D02*
X128950D01*
X125850Y111650D02*
X128950D01*
Y110150D02*
Y111650D01*
X125850Y110150D02*
Y111650D01*
X126925Y110900D02*
X127875D01*
X127400Y110425D02*
Y111375D01*
X143650Y119250D02*
X145950D01*
X143650Y114550D02*
X145950D01*
Y119250D01*
X143650Y114550D02*
Y119250D01*
X144300Y116900D02*
X145300D01*
X144800Y116400D02*
Y117400D01*
X140900Y119250D02*
X143200D01*
X140900Y114550D02*
X143200D01*
Y119250D01*
X140900Y114550D02*
Y119250D01*
X141550Y116900D02*
X142550D01*
X142050Y116400D02*
Y117400D01*
X138150Y119250D02*
X140450D01*
X138150Y114550D02*
X140450D01*
Y119250D01*
X138150Y114550D02*
Y119250D01*
X138800Y116900D02*
X139800D01*
X139300Y116400D02*
Y117400D01*
X135400Y119250D02*
X137700D01*
X135400Y114550D02*
X137700D01*
Y119250D01*
X135400Y114550D02*
Y119250D01*
X136050Y116900D02*
X137050D01*
X136550Y116400D02*
Y117400D01*
X132650Y119250D02*
X134950D01*
X132650Y114550D02*
X134950D01*
Y119250D01*
X132650Y114550D02*
Y119250D01*
X133300Y116900D02*
X134300D01*
X133800Y116400D02*
Y117400D01*
X129900Y119250D02*
X132200D01*
X129900Y114550D02*
X132200D01*
Y119250D01*
X129900Y114550D02*
Y119250D01*
X130550Y116900D02*
X131550D01*
X131050Y116400D02*
Y117400D01*
X147250Y123650D02*
X150350D01*
X147250Y125150D02*
X150350D01*
Y123650D02*
Y125150D01*
X147250Y123650D02*
Y125150D01*
X148325Y124400D02*
X149275D01*
X148800Y123925D02*
Y124875D01*
Y121400D02*
Y122400D01*
X148300Y121900D02*
X149300D01*
X146850Y120150D02*
X150750D01*
X146850Y123650D02*
X150750D01*
Y120150D02*
Y123650D01*
X146850Y120150D02*
Y123650D01*
X126250Y126650D02*
X129350D01*
X126250Y125150D02*
X129350D01*
X126250D02*
Y126650D01*
X129350Y125150D02*
Y126650D01*
X127325Y125900D02*
X128275D01*
X127800Y125425D02*
Y126375D01*
X117950Y100850D02*
X121050D01*
X117950Y102350D02*
X121050D01*
Y100850D02*
Y102350D01*
X117950Y100850D02*
Y102350D01*
X119025Y101600D02*
X119975D01*
X119500Y101125D02*
Y102075D01*
X115150Y102850D02*
Y105950D01*
X113650Y102850D02*
Y105950D01*
X115150D01*
X113650Y102850D02*
X115150D01*
X114400Y103925D02*
Y104875D01*
X113925Y104400D02*
X114875D01*
X122050Y121850D02*
Y124950D01*
X123550Y121850D02*
Y124950D01*
X122050Y121850D02*
X123550D01*
X122050Y124950D02*
X123550D01*
X122800Y122925D02*
Y123875D01*
X122325Y123400D02*
X123275D01*
X116550Y115150D02*
Y118250D01*
X115050Y115150D02*
Y118250D01*
X116550D01*
X115050Y115150D02*
X116550D01*
X115800Y116225D02*
Y117175D01*
X115325Y116700D02*
X116275D01*
X125050Y121850D02*
Y124950D01*
X123550Y121850D02*
Y124950D01*
X125050D01*
X123550Y121850D02*
X125050D01*
X124300Y122925D02*
Y123875D01*
X123825Y123400D02*
X124775D01*
X111400Y103900D02*
Y104900D01*
X110900Y104400D02*
X111900D01*
X109450Y102650D02*
X113350D01*
X109450Y106150D02*
X113350D01*
Y102650D02*
Y106150D01*
X109450Y102650D02*
Y106150D01*
X113850Y100850D02*
X116950D01*
X113850Y102350D02*
X116950D01*
Y100850D02*
Y102350D01*
X113850Y100850D02*
Y102350D01*
X114925Y101600D02*
X115875D01*
X115400Y101125D02*
Y102075D01*
X118050Y118250D02*
X119550D01*
X118050Y115150D02*
X119550D01*
Y118250D01*
X118050Y115150D02*
Y118250D01*
X118325Y116700D02*
X119275D01*
X118800Y116225D02*
Y117175D01*
X143650Y124750D02*
X145950D01*
X143650Y120050D02*
X145950D01*
Y124750D01*
X143650Y120050D02*
Y124750D01*
X144300Y122400D02*
X145300D01*
X144800Y121900D02*
Y122900D01*
X140900Y124750D02*
X143200D01*
X140900Y120050D02*
X143200D01*
Y124750D01*
X140900Y120050D02*
Y124750D01*
X141550Y122400D02*
X142550D01*
X142050Y121900D02*
Y122900D01*
X138150Y124750D02*
X140450D01*
X138150Y120050D02*
X140450D01*
Y124750D01*
X138150Y120050D02*
Y124750D01*
X138800Y122400D02*
X139800D01*
X139300Y121900D02*
Y122900D01*
X135400Y124750D02*
X137700D01*
X135400Y120050D02*
X137700D01*
Y124750D01*
X135400Y120050D02*
Y124750D01*
X136050Y122400D02*
X137050D01*
X136550Y121900D02*
Y122900D01*
X132650Y124750D02*
X134950D01*
X132650Y120050D02*
X134950D01*
Y124750D01*
X132650Y120050D02*
Y124750D01*
X133300Y122400D02*
X134300D01*
X133800Y121900D02*
Y122900D01*
X129900Y124750D02*
X132200D01*
X129900Y120050D02*
X132200D01*
Y124750D01*
X129900Y120050D02*
Y124750D01*
X130550Y122400D02*
X131550D01*
X131050Y121900D02*
Y122900D01*
X107200Y103300D02*
Y108100D01*
Y103300D02*
X109400D01*
Y108100D01*
X107200D02*
X109400D01*
X108000Y105700D02*
X108600D01*
X108300Y105400D02*
Y106000D01*
X115550Y104250D02*
X118650D01*
X115550Y105750D02*
X118650D01*
Y104250D02*
Y105750D01*
X115550Y104250D02*
Y105750D01*
X116625Y105000D02*
X117575D01*
X117100Y104525D02*
Y105475D01*
X113050Y100850D02*
Y102350D01*
X109950Y100850D02*
Y102350D01*
Y100850D02*
X113050D01*
X109950Y102350D02*
X113050D01*
X111500Y101125D02*
Y102075D01*
X111025Y101600D02*
X111975D01*
X113050Y106350D02*
Y107850D01*
X109950Y106350D02*
Y107850D01*
Y106350D02*
X113050D01*
X109950Y107850D02*
X113050D01*
X111500Y106625D02*
Y107575D01*
X111025Y107100D02*
X111975D01*
X100550Y117850D02*
X102050D01*
X100550Y120950D02*
X102050D01*
X100550Y117850D02*
Y120950D01*
X102050Y117850D02*
Y120950D01*
X100825Y119400D02*
X101775D01*
X101300Y118925D02*
Y119875D01*
X115550Y104050D02*
X118650D01*
X115550Y102550D02*
X118650D01*
X115550D02*
Y104050D01*
X118650Y102550D02*
Y104050D01*
X116625Y103300D02*
X117575D01*
X117100Y102825D02*
Y103775D01*
X147250Y129150D02*
X150350D01*
X147250Y130650D02*
X150350D01*
Y129150D02*
Y130650D01*
X147250Y129150D02*
Y130650D01*
X148325Y129900D02*
X149275D01*
X148800Y129425D02*
Y130375D01*
Y126900D02*
Y127900D01*
X148300Y127400D02*
X149300D01*
X146850Y125650D02*
X150750D01*
X146850Y129150D02*
X150750D01*
Y125650D02*
Y129150D01*
X146850Y125650D02*
Y129150D01*
X126250Y131650D02*
X129350D01*
X126250Y130150D02*
X129350D01*
X126250D02*
Y131650D01*
X129350Y130150D02*
Y131650D01*
X127325Y130900D02*
X128275D01*
X127800Y130425D02*
Y131375D01*
X122050Y126850D02*
Y129950D01*
X123550Y126850D02*
Y129950D01*
X122050Y126850D02*
X123550D01*
X122050Y129950D02*
X123550D01*
X122800Y127925D02*
Y128875D01*
X122325Y128400D02*
X123275D01*
X115150Y106650D02*
Y109750D01*
X113650Y106650D02*
Y109750D01*
X115150D01*
X113650Y106650D02*
X115150D01*
X114400Y107725D02*
Y108675D01*
X113925Y108200D02*
X114875D01*
X116950Y109050D02*
Y112150D01*
X115450Y109050D02*
Y112150D01*
X116950D01*
X115450Y109050D02*
X116950D01*
X116200Y110125D02*
Y111075D01*
X115725Y110600D02*
X116675D01*
X125050Y126850D02*
Y129950D01*
X123550Y126850D02*
Y129950D01*
X125050D01*
X123550Y126850D02*
X125050D01*
X124300Y127925D02*
Y128875D01*
X123825Y128400D02*
X124775D01*
X113150Y133450D02*
Y136550D01*
X114650Y133450D02*
Y136550D01*
X113150Y133450D02*
X114650D01*
X113150Y136550D02*
X114650D01*
X113900Y134525D02*
Y135475D01*
X113425Y135000D02*
X114375D01*
X143650Y130250D02*
X145950D01*
X143650Y125550D02*
X145950D01*
Y130250D01*
X143650Y125550D02*
Y130250D01*
X144300Y127900D02*
X145300D01*
X144800Y127400D02*
Y128400D01*
X140900Y130250D02*
X143200D01*
X140900Y125550D02*
X143200D01*
Y130250D01*
X140900Y125550D02*
Y130250D01*
X141550Y127900D02*
X142550D01*
X142050Y127400D02*
Y128400D01*
X138150Y130250D02*
X140450D01*
X138150Y125550D02*
X140450D01*
Y130250D01*
X138150Y125550D02*
Y130250D01*
X138800Y127900D02*
X139800D01*
X139300Y127400D02*
Y128400D01*
X135400Y130250D02*
X137700D01*
X135400Y125550D02*
X137700D01*
Y130250D01*
X135400Y125550D02*
Y130250D01*
X136050Y127900D02*
X137050D01*
X136550Y127400D02*
Y128400D01*
X132650Y130250D02*
X134950D01*
X132650Y125550D02*
X134950D01*
Y130250D01*
X132650Y125550D02*
Y130250D01*
X133300Y127900D02*
X134300D01*
X133800Y127400D02*
Y128400D01*
X129900Y130250D02*
X132200D01*
X129900Y125550D02*
X132200D01*
Y130250D01*
X129900Y125550D02*
Y130250D01*
X130550Y127900D02*
X131550D01*
X131050Y127400D02*
Y128400D01*
X118650Y110450D02*
Y113550D01*
X120150Y110450D02*
Y113550D01*
X118650Y110450D02*
X120150D01*
X118650Y113550D02*
X120150D01*
X119400Y111525D02*
Y112475D01*
X118925Y112000D02*
X119875D01*
X120050Y118250D02*
X121550D01*
X120050Y115150D02*
X121550D01*
Y118250D01*
X120050Y115150D02*
Y118250D01*
X120325Y116700D02*
X121275D01*
X120800Y116225D02*
Y117175D01*
X115550Y107250D02*
X118650D01*
X115550Y108750D02*
X118650D01*
Y107250D02*
Y108750D01*
X115550Y107250D02*
Y108750D01*
X116625Y108000D02*
X117575D01*
X117100Y107525D02*
Y108475D01*
X117050Y109050D02*
Y112150D01*
X118550Y109050D02*
Y112150D01*
X117050Y109050D02*
X118550D01*
X117050Y112150D02*
X118550D01*
X117800Y110125D02*
Y111075D01*
X117325Y110600D02*
X118275D01*
X147250Y134650D02*
X150350D01*
X147250Y136150D02*
X150350D01*
Y134650D02*
Y136150D01*
X147250Y134650D02*
Y136150D01*
X148325Y135400D02*
X149275D01*
X148800Y134925D02*
Y135875D01*
Y132400D02*
Y133400D01*
X148300Y132900D02*
X149300D01*
X146850Y131150D02*
X150750D01*
X146850Y134650D02*
X150750D01*
Y131150D02*
Y134650D01*
X146850Y131150D02*
Y134650D01*
X126250Y136650D02*
X129350D01*
X126250Y135150D02*
X129350D01*
X126250D02*
Y136650D01*
X129350Y135150D02*
Y136650D01*
X127325Y135900D02*
X128275D01*
X127800Y135425D02*
Y136375D01*
X122050Y131850D02*
Y134950D01*
X123550Y131850D02*
Y134950D01*
X122050Y131850D02*
X123550D01*
X122050Y134950D02*
X123550D01*
X122800Y132925D02*
Y133875D01*
X122325Y133400D02*
X123275D01*
X125050Y131850D02*
Y134950D01*
X123550Y131850D02*
Y134950D01*
X125050D01*
X123550Y131850D02*
X125050D01*
X124300Y132925D02*
Y133875D01*
X123825Y133400D02*
X124775D01*
X124950Y100850D02*
Y102350D01*
X121850Y100850D02*
Y102350D01*
Y100850D02*
X124950D01*
X121850Y102350D02*
X124950D01*
X123400Y101125D02*
Y102075D01*
X122925Y101600D02*
X123875D01*
X143650Y135750D02*
X145950D01*
X143650Y131050D02*
X145950D01*
Y135750D01*
X143650Y131050D02*
Y135750D01*
X144300Y133400D02*
X145300D01*
X144800Y132900D02*
Y133900D01*
X140900Y135750D02*
X143200D01*
X140900Y131050D02*
X143200D01*
Y135750D01*
X140900Y131050D02*
Y135750D01*
X141550Y133400D02*
X142550D01*
X142050Y132900D02*
Y133900D01*
X138150Y135750D02*
X140450D01*
X138150Y131050D02*
X140450D01*
Y135750D01*
X138150Y131050D02*
Y135750D01*
X138800Y133400D02*
X139800D01*
X139300Y132900D02*
Y133900D01*
X135400Y135750D02*
X137700D01*
X135400Y131050D02*
X137700D01*
Y135750D01*
X135400Y131050D02*
Y135750D01*
X136050Y133400D02*
X137050D01*
X136550Y132900D02*
Y133900D01*
X132650Y135750D02*
X134950D01*
X132650Y131050D02*
X134950D01*
Y135750D01*
X132650Y131050D02*
Y135750D01*
X133300Y133400D02*
X134300D01*
X133800Y132900D02*
Y133900D01*
X129900Y135750D02*
X132200D01*
X129900Y131050D02*
X132200D01*
Y135750D01*
X129900Y131050D02*
Y135750D01*
X130550Y133400D02*
X131550D01*
X131050Y132900D02*
Y133900D01*
X116350Y133450D02*
Y136550D01*
X114850Y133450D02*
Y136550D01*
X116350D01*
X114850Y133450D02*
X116350D01*
X115600Y134525D02*
Y135475D01*
X115125Y135000D02*
X116075D01*
X113150Y118550D02*
X114650D01*
X113150Y115450D02*
X114650D01*
Y118550D01*
X113150Y115450D02*
Y118550D01*
X113425Y117000D02*
X114375D01*
X113900Y116525D02*
Y117475D01*
X147250Y140150D02*
X150350D01*
X147250Y141650D02*
X150350D01*
Y140150D02*
Y141650D01*
X147250Y140150D02*
Y141650D01*
X148325Y140900D02*
X149275D01*
X148800Y140425D02*
Y141375D01*
Y137900D02*
Y138900D01*
X148300Y138400D02*
X149300D01*
X146850Y136650D02*
X150750D01*
X146850Y140150D02*
X150750D01*
Y136650D02*
Y140150D01*
X146850Y136650D02*
Y140150D01*
X116450Y133450D02*
Y136550D01*
X117950Y133450D02*
Y136550D01*
X116450Y133450D02*
X117950D01*
X116450Y136550D02*
X117950D01*
X117200Y134525D02*
Y135475D01*
X116725Y135000D02*
X117675D01*
X121350Y136750D02*
Y139850D01*
X119850Y136750D02*
Y139850D01*
X121350D01*
X119850Y136750D02*
X121350D01*
X120600Y137825D02*
Y138775D01*
X120125Y138300D02*
X121075D01*
X126250Y141650D02*
X129350D01*
X126250Y140150D02*
X129350D01*
X126250D02*
Y141650D01*
X129350Y140150D02*
Y141650D01*
X127325Y140900D02*
X128275D01*
X127800Y140425D02*
Y141375D01*
X122050Y136850D02*
Y139950D01*
X123550Y136850D02*
Y139950D01*
X122050Y136850D02*
X123550D01*
X122050Y139950D02*
X123550D01*
X122800Y137925D02*
Y138875D01*
X122325Y138400D02*
X123275D01*
X119650Y133450D02*
Y136550D01*
X118150Y133450D02*
Y136550D01*
X119650D01*
X118150Y133450D02*
X119650D01*
X118900Y134525D02*
Y135475D01*
X118425Y135000D02*
X119375D01*
X121350Y133450D02*
Y136550D01*
X119850Y133450D02*
Y136550D01*
X121350D01*
X119850Y133450D02*
X121350D01*
X120600Y134525D02*
Y135475D01*
X120125Y135000D02*
X121075D01*
X117150Y130050D02*
X118650D01*
X117150Y133150D02*
X118650D01*
X117150Y130050D02*
Y133150D01*
X118650Y130050D02*
Y133150D01*
X117425Y131600D02*
X118375D01*
X117900Y131125D02*
Y132075D01*
X118750Y130050D02*
X120250D01*
X118750Y133150D02*
X120250D01*
X118750Y130050D02*
Y133150D01*
X120250Y130050D02*
Y133150D01*
X119025Y131600D02*
X119975D01*
X119500Y131125D02*
Y132075D01*
X125050Y136850D02*
Y139950D01*
X123550Y136850D02*
Y139950D01*
X125050D01*
X123550Y136850D02*
X125050D01*
X124300Y137925D02*
Y138875D01*
X123825Y138400D02*
X124775D01*
X143650Y141250D02*
X145950D01*
X143650Y136550D02*
X145950D01*
Y141250D01*
X143650Y136550D02*
Y141250D01*
X144300Y138900D02*
X145300D01*
X144800Y138400D02*
Y139400D01*
X140900Y141250D02*
X143200D01*
X140900Y136550D02*
X143200D01*
Y141250D01*
X140900Y136550D02*
Y141250D01*
X141550Y138900D02*
X142550D01*
X142050Y138400D02*
Y139400D01*
X138150Y141250D02*
X140450D01*
X138150Y136550D02*
X140450D01*
Y141250D01*
X138150Y136550D02*
Y141250D01*
X138800Y138900D02*
X139800D01*
X139300Y138400D02*
Y139400D01*
X135400Y141250D02*
X137700D01*
X135400Y136550D02*
X137700D01*
Y141250D01*
X135400Y136550D02*
Y141250D01*
X136050Y138900D02*
X137050D01*
X136550Y138400D02*
Y139400D01*
X132650Y141250D02*
X134950D01*
X132650Y136550D02*
X134950D01*
Y141250D01*
X132650Y136550D02*
Y141250D01*
X133300Y138900D02*
X134300D01*
X133800Y138400D02*
Y139400D01*
X129900Y141250D02*
X132200D01*
X129900Y136550D02*
X132200D01*
Y141250D01*
X129900Y136550D02*
Y141250D01*
X130550Y138900D02*
X131550D01*
X131050Y138400D02*
Y139400D01*
X135450Y104650D02*
Y107750D01*
X133950Y104650D02*
Y107750D01*
X135450D01*
X133950Y104650D02*
X135450D01*
X134700Y105725D02*
Y106675D01*
X134225Y106200D02*
X135175D01*
M02*
