G04*
G04 #@! TF.GenerationSoftware,Altium Limited,Altium Designer,20.0.13 (296)*
G04*
G04 Layer_Color=32768*
%FSLAX43Y43*%
%MOMM*%
G71*
G01*
G75*
%ADD13C,0.200*%
%ADD59C,0.100*%
%ADD60C,0.150*%
%ADD61C,0.127*%
D13*
X136100Y100500D02*
X143700D01*
Y108700D01*
X136100D02*
X143700D01*
X136100Y100500D02*
Y108700D01*
X151300Y109950D02*
Y132450D01*
Y109950D02*
X162800D01*
Y132450D01*
X151300D02*
X162800D01*
X100300Y116800D02*
X108500D01*
Y109200D02*
Y116800D01*
X100300Y109200D02*
X108500D01*
X100300D02*
Y116800D01*
Y133300D02*
X108500D01*
Y125700D02*
Y133300D01*
X100300Y125700D02*
X108500D01*
X100300D02*
Y133300D01*
X118795Y137904D02*
Y141396D01*
X109800Y137904D02*
X118795D01*
X109800D02*
Y141396D01*
X118795D01*
D59*
X113700Y119250D02*
X121700D01*
X113700Y128750D02*
X121700D01*
X113700Y119250D02*
Y128750D01*
X121700Y119250D02*
Y128750D01*
X119150Y102450D02*
X128450D01*
X119150Y109950D02*
X128450D01*
X119150Y102450D02*
Y109950D01*
X128450Y102450D02*
Y109950D01*
X109750Y111650D02*
X112850D01*
X109750Y113150D02*
X112850D01*
Y111650D02*
Y113150D01*
X109750Y111650D02*
Y113150D01*
X125522Y136650D02*
Y140150D01*
X129078Y136650D02*
Y140150D01*
X125522D02*
X129078D01*
X125522Y136650D02*
X129078D01*
X125522Y131650D02*
Y135150D01*
X129078Y131650D02*
Y135150D01*
X125522D02*
X129078D01*
X125522Y131650D02*
X129078D01*
X125522Y126650D02*
Y130150D01*
X129078Y126650D02*
Y130150D01*
X125522D02*
X129078D01*
X125522Y126650D02*
X129078D01*
X125522Y121650D02*
Y125150D01*
X129078Y121650D02*
Y125150D01*
X125522D02*
X129078D01*
X125522Y121650D02*
X129078D01*
X109450Y116978D02*
X112950D01*
X109450Y113422D02*
X112950D01*
Y116978D01*
X109450Y113422D02*
Y116978D01*
X125422Y116650D02*
Y120150D01*
X128978Y116650D02*
Y120150D01*
X125422D02*
X128978D01*
X125422Y116650D02*
X128978D01*
X125422Y111650D02*
Y115150D01*
X128978Y111650D02*
Y115150D01*
X125422D02*
X128978D01*
X125422Y111650D02*
X128978D01*
X125150Y100850D02*
X128250D01*
X125150Y102350D02*
X128250D01*
Y100850D02*
Y102350D01*
X125150Y100850D02*
Y102350D01*
X132050Y102650D02*
Y105750D01*
X130550Y102650D02*
Y105750D01*
X132050D01*
X130550Y102650D02*
X132050D01*
X147250Y112650D02*
X150350D01*
X147250Y114150D02*
X150350D01*
Y112650D02*
Y114150D01*
X147250Y112650D02*
Y114150D01*
X147022Y109150D02*
Y112650D01*
X150578Y109150D02*
Y112650D01*
X147022D02*
X150578D01*
X147022Y109150D02*
X150578D01*
X126150Y116650D02*
X129250D01*
X126150Y115150D02*
X129250D01*
X126150D02*
Y116650D01*
X129250Y115150D02*
Y116650D01*
X128950Y102350D02*
X132050D01*
X128950Y100850D02*
X132050D01*
X128950D02*
Y102350D01*
X132050Y100850D02*
Y102350D01*
X113950Y130050D02*
X115450D01*
X113950Y133150D02*
X115450D01*
X113950Y130050D02*
Y133150D01*
X115450Y130050D02*
Y133150D01*
X123450Y113550D02*
Y116650D01*
X121950Y113550D02*
Y116650D01*
X123450D01*
X121950Y113550D02*
X123450D01*
X109750Y110050D02*
X112850D01*
X109750Y111550D02*
X112850D01*
Y110050D02*
Y111550D01*
X109750Y110050D02*
Y111550D01*
X115550Y105750D02*
X118650D01*
X115550Y107250D02*
X118650D01*
Y105750D02*
Y107250D01*
X115550Y105750D02*
Y107250D01*
X130350Y102650D02*
Y105750D01*
X128850Y102650D02*
Y105750D01*
X130350D01*
X128850Y102650D02*
X130350D01*
X123450Y113550D02*
Y116650D01*
X124950Y113550D02*
Y116650D01*
X123450Y113550D02*
X124950D01*
X123450Y116650D02*
X124950D01*
X138150Y113750D02*
X140450D01*
X138150Y109050D02*
X140450D01*
Y113750D01*
X138150Y109050D02*
Y113750D01*
X140900D02*
X143200D01*
X140900Y109050D02*
X143200D01*
Y113750D01*
X140900Y109050D02*
Y113750D01*
X143650D02*
X145950D01*
X143650Y109050D02*
X145950D01*
Y113750D01*
X143650Y109050D02*
Y113750D01*
X129900D02*
X132200D01*
X129900Y109050D02*
X132200D01*
Y113750D01*
X129900Y109050D02*
Y113750D01*
X132650D02*
X134950D01*
X132650Y109050D02*
X134950D01*
Y113750D01*
X132650Y109050D02*
Y113750D01*
X135400D02*
X137700D01*
X135400Y109050D02*
X137700D01*
Y113750D01*
X135400Y109050D02*
Y113750D01*
X133750Y102650D02*
Y105750D01*
X132250Y102650D02*
Y105750D01*
X133750D01*
X132250Y102650D02*
X133750D01*
X147250Y118150D02*
X150350D01*
X147250Y119650D02*
X150350D01*
Y118150D02*
Y119650D01*
X147250Y118150D02*
Y119650D01*
X147022Y114650D02*
Y118150D01*
X150578Y114650D02*
Y118150D01*
X147022D02*
X150578D01*
X147022Y114650D02*
X150578D01*
X128750Y107150D02*
X131850D01*
X128750Y108650D02*
X131850D01*
Y107150D02*
Y108650D01*
X128750Y107150D02*
Y108650D01*
X126150Y121650D02*
X129250D01*
X126150Y120150D02*
X129250D01*
X126150D02*
Y121650D01*
X129250Y120150D02*
Y121650D01*
X105250Y121350D02*
X113350D01*
X105250Y124850D02*
X113350D01*
Y121350D02*
Y124850D01*
X105250Y121350D02*
Y124850D01*
X121950Y116850D02*
Y119950D01*
X123450Y116850D02*
Y119950D01*
X121950Y116850D02*
X123450D01*
X121950Y119950D02*
X123450D01*
X115550Y130050D02*
X117050D01*
X115550Y133150D02*
X117050D01*
X115550Y130050D02*
Y133150D01*
X117050Y130050D02*
Y133150D01*
X124950Y116850D02*
Y119950D01*
X123450Y116850D02*
Y119950D01*
X124950D01*
X123450Y116850D02*
X124950D01*
X109950Y117150D02*
X113050D01*
X109950Y118650D02*
X113050D01*
Y117150D02*
Y118650D01*
X109950Y117150D02*
Y118650D01*
X122300Y110150D02*
X125400D01*
X122300Y111650D02*
X125400D01*
Y110150D02*
Y111650D01*
X122300Y110150D02*
Y111650D01*
X125850Y110150D02*
X128950D01*
X125850Y111650D02*
X128950D01*
Y110150D02*
Y111650D01*
X125850Y110150D02*
Y111650D01*
X143650Y119250D02*
X145950D01*
X143650Y114550D02*
X145950D01*
Y119250D01*
X143650Y114550D02*
Y119250D01*
X140900D02*
X143200D01*
X140900Y114550D02*
X143200D01*
Y119250D01*
X140900Y114550D02*
Y119250D01*
X138150D02*
X140450D01*
X138150Y114550D02*
X140450D01*
Y119250D01*
X138150Y114550D02*
Y119250D01*
X135400Y119250D02*
X137700D01*
X135400Y114550D02*
X137700D01*
Y119250D01*
X135400Y114550D02*
Y119250D01*
X132650D02*
X134950D01*
X132650Y114550D02*
X134950D01*
Y119250D01*
X132650Y114550D02*
Y119250D01*
X129900D02*
X132200D01*
X129900Y114550D02*
X132200D01*
Y119250D01*
X129900Y114550D02*
Y119250D01*
X147250Y123650D02*
X150350D01*
X147250Y125150D02*
X150350D01*
Y123650D02*
Y125150D01*
X147250Y123650D02*
Y125150D01*
X147022Y120150D02*
Y123650D01*
X150578Y120150D02*
Y123650D01*
X147022D02*
X150578D01*
X147022Y120150D02*
X150578D01*
X126250Y126650D02*
X129350D01*
X126250Y125150D02*
X129350D01*
X126250D02*
Y126650D01*
X129350Y125150D02*
Y126650D01*
X117950Y100850D02*
X121050D01*
X117950Y102350D02*
X121050D01*
Y100850D02*
Y102350D01*
X117950Y100850D02*
Y102350D01*
X115150Y102850D02*
Y105950D01*
X113650Y102850D02*
Y105950D01*
X115150D01*
X113650Y102850D02*
X115150D01*
X122050Y121850D02*
Y124950D01*
X123550Y121850D02*
Y124950D01*
X122050Y121850D02*
X123550D01*
X122050Y124950D02*
X123550D01*
X116550Y115150D02*
Y118250D01*
X115050Y115150D02*
Y118250D01*
X116550D01*
X115050Y115150D02*
X116550D01*
X125050Y121850D02*
Y124950D01*
X123550Y121850D02*
Y124950D01*
X125050D01*
X123550Y121850D02*
X125050D01*
X109622Y102650D02*
Y106150D01*
X113178Y102650D02*
Y106150D01*
X109622D02*
X113178D01*
X109622Y102650D02*
X113178D01*
X113850Y100850D02*
X116950D01*
X113850Y102350D02*
X116950D01*
Y100850D02*
Y102350D01*
X113850Y100850D02*
Y102350D01*
X118050Y118250D02*
X119550D01*
X118050Y115150D02*
X119550D01*
Y118250D01*
X118050Y115150D02*
Y118250D01*
X143650Y124750D02*
X145950D01*
X143650Y120050D02*
X145950D01*
Y124750D01*
X143650Y120050D02*
Y124750D01*
X140900D02*
X143200D01*
X140900Y120050D02*
X143200D01*
Y124750D01*
X140900Y120050D02*
Y124750D01*
X138150D02*
X140450D01*
X138150Y120050D02*
X140450D01*
Y124750D01*
X138150Y120050D02*
Y124750D01*
X135400Y124750D02*
X137700D01*
X135400Y120050D02*
X137700D01*
Y124750D01*
X135400Y120050D02*
Y124750D01*
X132650D02*
X134950D01*
X132650Y120050D02*
X134950D01*
Y124750D01*
X132650Y120050D02*
Y124750D01*
X129900D02*
X132200D01*
X129900Y120050D02*
X132200D01*
Y124750D01*
X129900Y120050D02*
Y124750D01*
X107200Y103300D02*
Y108100D01*
Y103300D02*
X109400D01*
Y108100D01*
X107200D02*
X109400D01*
X115550Y104250D02*
X118650D01*
X115550Y105750D02*
X118650D01*
Y104250D02*
Y105750D01*
X115550Y104250D02*
Y105750D01*
X113050Y100850D02*
Y102350D01*
X109950Y100850D02*
Y102350D01*
Y100850D02*
X113050D01*
X109950Y102350D02*
X113050D01*
Y106350D02*
Y107850D01*
X109950Y106350D02*
Y107850D01*
Y106350D02*
X113050D01*
X109950Y107850D02*
X113050D01*
X100550Y117850D02*
X102050D01*
X100550Y120950D02*
X102050D01*
X100550Y117850D02*
Y120950D01*
X102050Y117850D02*
Y120950D01*
X115550Y104050D02*
X118650D01*
X115550Y102550D02*
X118650D01*
X115550D02*
Y104050D01*
X118650Y102550D02*
Y104050D01*
X147250Y129150D02*
X150350D01*
X147250Y130650D02*
X150350D01*
Y129150D02*
Y130650D01*
X147250Y129150D02*
Y130650D01*
X147022Y125650D02*
Y129150D01*
X150578Y125650D02*
Y129150D01*
X147022D02*
X150578D01*
X147022Y125650D02*
X150578D01*
X126250Y131650D02*
X129350D01*
X126250Y130150D02*
X129350D01*
X126250D02*
Y131650D01*
X129350Y130150D02*
Y131650D01*
X122050Y126850D02*
Y129950D01*
X123550Y126850D02*
Y129950D01*
X122050Y126850D02*
X123550D01*
X122050Y129950D02*
X123550D01*
X115150Y106650D02*
Y109750D01*
X113650Y106650D02*
Y109750D01*
X115150D01*
X113650Y106650D02*
X115150D01*
X116950Y109050D02*
Y112150D01*
X115450Y109050D02*
Y112150D01*
X116950D01*
X115450Y109050D02*
X116950D01*
X125050Y126850D02*
Y129950D01*
X123550Y126850D02*
Y129950D01*
X125050D01*
X123550Y126850D02*
X125050D01*
X113150Y133450D02*
Y136550D01*
X114650Y133450D02*
Y136550D01*
X113150Y133450D02*
X114650D01*
X113150Y136550D02*
X114650D01*
X143650Y130250D02*
X145950D01*
X143650Y125550D02*
X145950D01*
Y130250D01*
X143650Y125550D02*
Y130250D01*
X140900D02*
X143200D01*
X140900Y125550D02*
X143200D01*
Y130250D01*
X140900Y125550D02*
Y130250D01*
X138150D02*
X140450D01*
X138150Y125550D02*
X140450D01*
Y130250D01*
X138150Y125550D02*
Y130250D01*
X135400Y130250D02*
X137700D01*
X135400Y125550D02*
X137700D01*
Y130250D01*
X135400Y125550D02*
Y130250D01*
X132650D02*
X134950D01*
X132650Y125550D02*
X134950D01*
Y130250D01*
X132650Y125550D02*
Y130250D01*
X129900D02*
X132200D01*
X129900Y125550D02*
X132200D01*
Y130250D01*
X129900Y125550D02*
Y130250D01*
X118650Y110450D02*
Y113550D01*
X120150Y110450D02*
Y113550D01*
X118650Y110450D02*
X120150D01*
X118650Y113550D02*
X120150D01*
X120050Y118250D02*
X121550D01*
X120050Y115150D02*
X121550D01*
Y118250D01*
X120050Y115150D02*
Y118250D01*
X115550Y107250D02*
X118650D01*
X115550Y108750D02*
X118650D01*
Y107250D02*
Y108750D01*
X115550Y107250D02*
Y108750D01*
X117050Y109050D02*
Y112150D01*
X118550Y109050D02*
Y112150D01*
X117050Y109050D02*
X118550D01*
X117050Y112150D02*
X118550D01*
X147250Y134650D02*
X150350D01*
X147250Y136150D02*
X150350D01*
Y134650D02*
Y136150D01*
X147250Y134650D02*
Y136150D01*
X147022Y131150D02*
Y134650D01*
X150578Y131150D02*
Y134650D01*
X147022D02*
X150578D01*
X147022Y131150D02*
X150578D01*
X126250Y136650D02*
X129350D01*
X126250Y135150D02*
X129350D01*
X126250D02*
Y136650D01*
X129350Y135150D02*
Y136650D01*
X122050Y131850D02*
Y134950D01*
X123550Y131850D02*
Y134950D01*
X122050Y131850D02*
X123550D01*
X122050Y134950D02*
X123550D01*
X125050Y131850D02*
Y134950D01*
X123550Y131850D02*
Y134950D01*
X125050D01*
X123550Y131850D02*
X125050D01*
X124950Y100850D02*
Y102350D01*
X121850Y100850D02*
Y102350D01*
Y100850D02*
X124950D01*
X121850Y102350D02*
X124950D01*
X143650Y135750D02*
X145950D01*
X143650Y131050D02*
X145950D01*
Y135750D01*
X143650Y131050D02*
Y135750D01*
X140900D02*
X143200D01*
X140900Y131050D02*
X143200D01*
Y135750D01*
X140900Y131050D02*
Y135750D01*
X138150D02*
X140450D01*
X138150Y131050D02*
X140450D01*
Y135750D01*
X138150Y131050D02*
Y135750D01*
X135400Y135750D02*
X137700D01*
X135400Y131050D02*
X137700D01*
Y135750D01*
X135400Y131050D02*
Y135750D01*
X132650D02*
X134950D01*
X132650Y131050D02*
X134950D01*
Y135750D01*
X132650Y131050D02*
Y135750D01*
X129900D02*
X132200D01*
X129900Y131050D02*
X132200D01*
Y135750D01*
X129900Y131050D02*
Y135750D01*
X116350Y133450D02*
Y136550D01*
X114850Y133450D02*
Y136550D01*
X116350D01*
X114850Y133450D02*
X116350D01*
X113150Y118550D02*
X114650D01*
X113150Y115450D02*
X114650D01*
Y118550D01*
X113150Y115450D02*
Y118550D01*
X147250Y140150D02*
X150350D01*
X147250Y141650D02*
X150350D01*
Y140150D02*
Y141650D01*
X147250Y140150D02*
Y141650D01*
X147022Y136650D02*
Y140150D01*
X150578Y136650D02*
Y140150D01*
X147022D02*
X150578D01*
X147022Y136650D02*
X150578D01*
X116450Y133450D02*
Y136550D01*
X117950Y133450D02*
Y136550D01*
X116450Y133450D02*
X117950D01*
X116450Y136550D02*
X117950D01*
X121350Y136750D02*
Y139850D01*
X119850Y136750D02*
Y139850D01*
X121350D01*
X119850Y136750D02*
X121350D01*
X126250Y141650D02*
X129350D01*
X126250Y140150D02*
X129350D01*
X126250D02*
Y141650D01*
X129350Y140150D02*
Y141650D01*
X122050Y136850D02*
Y139950D01*
X123550Y136850D02*
Y139950D01*
X122050Y136850D02*
X123550D01*
X122050Y139950D02*
X123550D01*
X119650Y133450D02*
Y136550D01*
X118150Y133450D02*
Y136550D01*
X119650D01*
X118150Y133450D02*
X119650D01*
X121350D02*
Y136550D01*
X119850Y133450D02*
Y136550D01*
X121350D01*
X119850Y133450D02*
X121350D01*
X117150Y130050D02*
X118650D01*
X117150Y133150D02*
X118650D01*
X117150Y130050D02*
Y133150D01*
X118650Y130050D02*
Y133150D01*
X118750Y130050D02*
X120250D01*
X118750Y133150D02*
X120250D01*
X118750Y130050D02*
Y133150D01*
X120250Y130050D02*
Y133150D01*
X125050Y136850D02*
Y139950D01*
X123550Y136850D02*
Y139950D01*
X125050D01*
X123550Y136850D02*
X125050D01*
X143650Y141250D02*
X145950D01*
X143650Y136550D02*
X145950D01*
Y141250D01*
X143650Y136550D02*
Y141250D01*
X140900D02*
X143200D01*
X140900Y136550D02*
X143200D01*
Y141250D01*
X140900Y136550D02*
Y141250D01*
X138150D02*
X140450D01*
X138150Y136550D02*
X140450D01*
Y141250D01*
X138150Y136550D02*
Y141250D01*
X135400Y141250D02*
X137700D01*
X135400Y136550D02*
X137700D01*
Y141250D01*
X135400Y136550D02*
Y141250D01*
X132650D02*
X134950D01*
X132650Y136550D02*
X134950D01*
Y141250D01*
X132650Y136550D02*
Y141250D01*
X129900D02*
X132200D01*
X129900Y136550D02*
X132200D01*
Y141250D01*
X129900Y136550D02*
Y141250D01*
X135450Y104650D02*
Y107750D01*
X133950Y104650D02*
Y107750D01*
X135450D01*
X133950Y104650D02*
X135450D01*
X109900Y112000D02*
Y112750D01*
X110275D01*
X110400Y112625D01*
Y112375D01*
X110275Y112250D01*
X109900D01*
X110150D02*
X110400Y112000D01*
X111150D02*
X110650D01*
X111150Y112500D01*
Y112625D01*
X111025Y112750D01*
X110775D01*
X110650Y112625D01*
X111400Y112000D02*
X111649D01*
X111524D01*
Y112750D01*
X111400Y112625D01*
X125300Y101200D02*
Y101950D01*
X125675D01*
X125800Y101825D01*
Y101575D01*
X125675Y101450D01*
X125300D01*
X125550D02*
X125800Y101200D01*
X126050D02*
X126300D01*
X126175D01*
Y101950D01*
X126050Y101825D01*
X131700Y102800D02*
X130950D01*
Y103175D01*
X131075Y103300D01*
X131325D01*
X131450Y103175D01*
Y102800D01*
Y103050D02*
X131700Y103300D01*
Y104050D02*
Y103550D01*
X131200Y104050D01*
X131075D01*
X130950Y103925D01*
Y103675D01*
X131075Y103550D01*
X147400Y113000D02*
Y113750D01*
X147775D01*
X147900Y113625D01*
Y113375D01*
X147775Y113250D01*
X147400D01*
X147650D02*
X147900Y113000D01*
X148150Y113625D02*
X148275Y113750D01*
X148525D01*
X148650Y113625D01*
Y113500D01*
X148525Y113375D01*
X148400D01*
X148525D01*
X148650Y113250D01*
Y113125D01*
X148525Y113000D01*
X148275D01*
X148150Y113125D01*
X129100Y116300D02*
Y115550D01*
X128725D01*
X128600Y115675D01*
Y115925D01*
X128725Y116050D01*
X129100D01*
X128850D02*
X128600Y116300D01*
X127975D02*
Y115550D01*
X128350Y115925D01*
X127850D01*
X131900Y102000D02*
Y101250D01*
X131525D01*
X131400Y101375D01*
Y101625D01*
X131525Y101750D01*
X131900D01*
X131650D02*
X131400Y102000D01*
X130650Y101250D02*
X131150D01*
Y101625D01*
X130900Y101500D01*
X130775D01*
X130650Y101625D01*
Y101875D01*
X130775Y102000D01*
X131025D01*
X131150Y101875D01*
X114450Y130725D02*
X114325Y130600D01*
Y130350D01*
X114450Y130225D01*
X114950D01*
X115075Y130350D01*
Y130600D01*
X114950Y130725D01*
X115075Y130975D02*
Y131225D01*
Y131100D01*
X114325D01*
X114450Y130975D01*
X123100Y113700D02*
X122350D01*
Y114075D01*
X122475Y114200D01*
X122725D01*
X122850Y114075D01*
Y113700D01*
Y113950D02*
X123100Y114200D01*
X122350Y114950D02*
X122475Y114700D01*
X122725Y114450D01*
X122975D01*
X123100Y114575D01*
Y114825D01*
X122975Y114950D01*
X122850D01*
X122725Y114825D01*
Y114450D01*
X109900Y110400D02*
Y111150D01*
X110275D01*
X110400Y111025D01*
Y110775D01*
X110275Y110650D01*
X109900D01*
X110150D02*
X110400Y110400D01*
X110650Y111025D02*
X110775Y111150D01*
X111025D01*
X111150Y111025D01*
Y110900D01*
X111025Y110775D01*
X111150Y110650D01*
Y110525D01*
X111025Y110400D01*
X110775D01*
X110650Y110525D01*
Y110650D01*
X110775Y110775D01*
X110650Y110900D01*
Y111025D01*
X110775Y110775D02*
X111025D01*
X115700Y106100D02*
Y106850D01*
X116075D01*
X116200Y106725D01*
Y106475D01*
X116075Y106350D01*
X115700D01*
X115950D02*
X116200Y106100D01*
X116450Y106850D02*
X116950D01*
Y106725D01*
X116450Y106225D01*
Y106100D01*
X130000Y102800D02*
X129250D01*
Y103175D01*
X129375Y103300D01*
X129625D01*
X129750Y103175D01*
Y102800D01*
Y103050D02*
X130000Y103300D01*
Y103550D02*
Y103800D01*
Y103675D01*
X129250D01*
X129375Y103550D01*
Y104175D02*
X129250Y104300D01*
Y104549D01*
X129375Y104674D01*
X129875D01*
X130000Y104549D01*
Y104300D01*
X129875Y104175D01*
X129375D01*
X123800Y116500D02*
X124550D01*
Y116125D01*
X124425Y116000D01*
X124175D01*
X124050Y116125D01*
Y116500D01*
Y116250D02*
X123800Y116000D01*
X123925Y115750D02*
X123800Y115625D01*
Y115375D01*
X123925Y115250D01*
X124425D01*
X124550Y115375D01*
Y115625D01*
X124425Y115750D01*
X124300D01*
X124175Y115625D01*
Y115250D01*
X133400Y102800D02*
X132650D01*
Y103175D01*
X132775Y103300D01*
X133025D01*
X133150Y103175D01*
Y102800D01*
Y103050D02*
X133400Y103300D01*
Y103550D02*
Y103800D01*
Y103675D01*
X132650D01*
X132775Y103550D01*
X132650Y104175D02*
Y104674D01*
X132775D01*
X133275Y104175D01*
X133400D01*
X147400Y118500D02*
Y119250D01*
X147775D01*
X147900Y119125D01*
Y118875D01*
X147775Y118750D01*
X147400D01*
X147650D02*
X147900Y118500D01*
X148150D02*
X148400D01*
X148275D01*
Y119250D01*
X148150Y119125D01*
X148775D02*
X148900Y119250D01*
X149149D01*
X149274Y119125D01*
Y119000D01*
X149149Y118875D01*
X149274Y118750D01*
Y118625D01*
X149149Y118500D01*
X148900D01*
X148775Y118625D01*
Y118750D01*
X148900Y118875D01*
X148775Y119000D01*
Y119125D01*
X148900Y118875D02*
X149149D01*
X128900Y107500D02*
Y108250D01*
X129275D01*
X129400Y108125D01*
Y107875D01*
X129275Y107750D01*
X128900D01*
X129150D02*
X129400Y107500D01*
X130150D02*
X129650D01*
X130150Y108000D01*
Y108125D01*
X130025Y108250D01*
X129775D01*
X129650Y108125D01*
X130400D02*
X130524Y108250D01*
X130774D01*
X130899Y108125D01*
Y107625D01*
X130774Y107500D01*
X130524D01*
X130400Y107625D01*
Y108125D01*
X129100Y121300D02*
Y120550D01*
X128725D01*
X128600Y120675D01*
Y120925D01*
X128725Y121050D01*
X129100D01*
X128850D02*
X128600Y121300D01*
X128350D02*
X128100D01*
X128225D01*
Y120550D01*
X128350Y120675D01*
X127725Y121175D02*
X127600Y121300D01*
X127351D01*
X127226Y121175D01*
Y120675D01*
X127351Y120550D01*
X127600D01*
X127725Y120675D01*
Y120800D01*
X127600Y120925D01*
X127226D01*
X122300Y119800D02*
X123050D01*
Y119425D01*
X122925Y119300D01*
X122675D01*
X122550Y119425D01*
Y119800D01*
Y119550D02*
X122300Y119300D01*
Y118550D02*
Y119050D01*
X122800Y118550D01*
X122925D01*
X123050Y118675D01*
Y118925D01*
X122925Y119050D01*
X122300Y117801D02*
Y118300D01*
X122800Y117801D01*
X122925D01*
X123050Y117926D01*
Y118176D01*
X122925Y118300D01*
X116050Y130725D02*
X115925Y130600D01*
Y130350D01*
X116050Y130225D01*
X116550D01*
X116675Y130350D01*
Y130600D01*
X116550Y130725D01*
X116675Y131475D02*
Y130975D01*
X116175Y131475D01*
X116050D01*
X115925Y131350D01*
Y131100D01*
X116050Y130975D01*
X124600Y117000D02*
X123850D01*
Y117375D01*
X123975Y117500D01*
X124225D01*
X124350Y117375D01*
Y117000D01*
Y117250D02*
X124600Y117500D01*
Y118250D02*
Y117750D01*
X124100Y118250D01*
X123975D01*
X123850Y118125D01*
Y117875D01*
X123975Y117750D01*
X124600Y118874D02*
X123850D01*
X124225Y118500D01*
Y118999D01*
X110100Y117500D02*
Y118250D01*
X110475D01*
X110600Y118125D01*
Y117875D01*
X110475Y117750D01*
X110100D01*
X110350D02*
X110600Y117500D01*
X111350D02*
X110850D01*
X111350Y118000D01*
Y118125D01*
X111225Y118250D01*
X110975D01*
X110850Y118125D01*
X112099Y118250D02*
X111849Y118125D01*
X111600Y117875D01*
Y117625D01*
X111724Y117500D01*
X111974D01*
X112099Y117625D01*
Y117750D01*
X111974Y117875D01*
X111600D01*
X122450Y110500D02*
Y111250D01*
X122825D01*
X122950Y111125D01*
Y110875D01*
X122825Y110750D01*
X122450D01*
X122700D02*
X122950Y110500D01*
X123700D02*
X123200D01*
X123700Y111000D01*
Y111125D01*
X123575Y111250D01*
X123325D01*
X123200Y111125D01*
X124449Y111250D02*
X123950D01*
Y110875D01*
X124199Y111000D01*
X124324D01*
X124449Y110875D01*
Y110625D01*
X124324Y110500D01*
X124074D01*
X123950Y110625D01*
X126000Y110500D02*
Y111250D01*
X126375D01*
X126500Y111125D01*
Y110875D01*
X126375Y110750D01*
X126000D01*
X126250D02*
X126500Y110500D01*
X127250D02*
X126750D01*
X127250Y111000D01*
Y111125D01*
X127125Y111250D01*
X126875D01*
X126750Y111125D01*
X127500Y111250D02*
X127999D01*
Y111125D01*
X127500Y110625D01*
Y110500D01*
X147400Y124000D02*
Y124750D01*
X147775D01*
X147900Y124625D01*
Y124375D01*
X147775Y124250D01*
X147400D01*
X147650D02*
X147900Y124000D01*
X148150Y124625D02*
X148275Y124750D01*
X148525D01*
X148650Y124625D01*
Y124500D01*
X148525Y124375D01*
X148400D01*
X148525D01*
X148650Y124250D01*
Y124125D01*
X148525Y124000D01*
X148275D01*
X148150Y124125D01*
X149274Y124000D02*
Y124750D01*
X148900Y124375D01*
X149399D01*
X129200Y126300D02*
Y125550D01*
X128825D01*
X128700Y125675D01*
Y125925D01*
X128825Y126050D01*
X129200D01*
X128950D02*
X128700Y126300D01*
X128450Y125675D02*
X128325Y125550D01*
X128075D01*
X127950Y125675D01*
Y125800D01*
X128075Y125925D01*
X128200D01*
X128075D01*
X127950Y126050D01*
Y126175D01*
X128075Y126300D01*
X128325D01*
X128450Y126175D01*
X127201Y125550D02*
X127700D01*
Y125925D01*
X127451Y125800D01*
X127326D01*
X127201Y125925D01*
Y126175D01*
X127326Y126300D01*
X127576D01*
X127700Y126175D01*
X118100Y101200D02*
Y101950D01*
X118475D01*
X118600Y101825D01*
Y101575D01*
X118475Y101450D01*
X118100D01*
X118350D02*
X118600Y101200D01*
X118850Y101825D02*
X118975Y101950D01*
X119225D01*
X119350Y101825D01*
Y101700D01*
X119225Y101575D01*
X119100D01*
X119225D01*
X119350Y101450D01*
Y101325D01*
X119225Y101200D01*
X118975D01*
X118850Y101325D01*
X120099Y101950D02*
X119849Y101825D01*
X119600Y101575D01*
Y101325D01*
X119724Y101200D01*
X119974D01*
X120099Y101325D01*
Y101450D01*
X119974Y101575D01*
X119600D01*
X114800Y103000D02*
X114050D01*
Y103375D01*
X114175Y103500D01*
X114425D01*
X114550Y103375D01*
Y103000D01*
Y103250D02*
X114800Y103500D01*
X114175Y103750D02*
X114050Y103875D01*
Y104125D01*
X114175Y104250D01*
X114300D01*
X114425Y104125D01*
Y104000D01*
Y104125D01*
X114550Y104250D01*
X114675D01*
X114800Y104125D01*
Y103875D01*
X114675Y103750D01*
X114175Y104500D02*
X114050Y104624D01*
Y104874D01*
X114175Y104999D01*
X114300D01*
X114425Y104874D01*
X114550Y104999D01*
X114675D01*
X114800Y104874D01*
Y104624D01*
X114675Y104500D01*
X114550D01*
X114425Y104624D01*
X114300Y104500D01*
X114175D01*
X114425Y104624D02*
Y104874D01*
X122400Y124800D02*
X123150D01*
Y124425D01*
X123025Y124300D01*
X122775D01*
X122650Y124425D01*
Y124800D01*
Y124550D02*
X122400Y124300D01*
X123025Y124050D02*
X123150Y123925D01*
Y123675D01*
X123025Y123550D01*
X122900D01*
X122775Y123675D01*
Y123800D01*
Y123675D01*
X122650Y123550D01*
X122525D01*
X122400Y123675D01*
Y123925D01*
X122525Y124050D01*
X123150Y123300D02*
Y122801D01*
X123025D01*
X122525Y123300D01*
X122400D01*
X116200Y115300D02*
X115450D01*
Y115675D01*
X115575Y115800D01*
X115825D01*
X115950Y115675D01*
Y115300D01*
Y115550D02*
X116200Y115800D01*
X115575Y116050D02*
X115450Y116175D01*
Y116425D01*
X115575Y116550D01*
X115700D01*
X115825Y116425D01*
Y116300D01*
Y116425D01*
X115950Y116550D01*
X116075D01*
X116200Y116425D01*
Y116175D01*
X116075Y116050D01*
Y116800D02*
X116200Y116924D01*
Y117174D01*
X116075Y117299D01*
X115575D01*
X115450Y117174D01*
Y116924D01*
X115575Y116800D01*
X115700D01*
X115825Y116924D01*
Y117299D01*
X124700Y122000D02*
X123950D01*
Y122375D01*
X124075Y122500D01*
X124325D01*
X124450Y122375D01*
Y122000D01*
Y122250D02*
X124700Y122500D01*
Y123125D02*
X123950D01*
X124325Y122750D01*
Y123250D01*
X124075Y123500D02*
X123950Y123624D01*
Y123874D01*
X124075Y123999D01*
X124575D01*
X124700Y123874D01*
Y123624D01*
X124575Y123500D01*
X124075D01*
X114000Y101200D02*
Y101950D01*
X114375D01*
X114500Y101825D01*
Y101575D01*
X114375Y101450D01*
X114000D01*
X114250D02*
X114500Y101200D01*
X115125D02*
Y101950D01*
X114750Y101575D01*
X115250D01*
X115500Y101200D02*
X115749D01*
X115624D01*
Y101950D01*
X115500Y101825D01*
X119050Y117575D02*
X119175Y117700D01*
Y117950D01*
X119050Y118075D01*
X118550D01*
X118425Y117950D01*
Y117700D01*
X118550Y117575D01*
X119050Y117325D02*
X119175Y117200D01*
Y116950D01*
X119050Y116825D01*
X118925D01*
X118800Y116950D01*
Y117075D01*
Y116950D01*
X118675Y116825D01*
X118550D01*
X118425Y116950D01*
Y117200D01*
X118550Y117325D01*
X115700Y104600D02*
Y105350D01*
X116075D01*
X116200Y105225D01*
Y104975D01*
X116075Y104850D01*
X115700D01*
X115950D02*
X116200Y104600D01*
X116825D02*
Y105350D01*
X116450Y104975D01*
X116950D01*
X117200Y105225D02*
X117324Y105350D01*
X117574D01*
X117699Y105225D01*
Y105100D01*
X117574Y104975D01*
X117699Y104850D01*
Y104725D01*
X117574Y104600D01*
X117324D01*
X117200Y104725D01*
Y104850D01*
X117324Y104975D01*
X117200Y105100D01*
Y105225D01*
X117324Y104975D02*
X117574D01*
X112375Y101350D02*
X112500Y101225D01*
X112750D01*
X112875Y101350D01*
Y101850D01*
X112750Y101975D01*
X112500D01*
X112375Y101850D01*
X111625Y101225D02*
X112125D01*
Y101600D01*
X111875Y101475D01*
X111750D01*
X111625Y101600D01*
Y101850D01*
X111750Y101975D01*
X112000D01*
X112125Y101850D01*
X112375Y106850D02*
X112500Y106725D01*
X112750D01*
X112875Y106850D01*
Y107350D01*
X112750Y107475D01*
X112500D01*
X112375Y107350D01*
X111750Y107475D02*
Y106725D01*
X112125Y107100D01*
X111625D01*
X100925Y118025D02*
X101675D01*
Y118400D01*
X101550Y118525D01*
X101050D01*
X100925Y118400D01*
Y118025D01*
X101675Y119275D02*
Y118775D01*
X101175Y119275D01*
X101050D01*
X100925Y119150D01*
Y118900D01*
X101050Y118775D01*
X118500Y103700D02*
Y102950D01*
X118125D01*
X118000Y103075D01*
Y103325D01*
X118125Y103450D01*
X118500D01*
X118250D02*
X118000Y103700D01*
X117375D02*
Y102950D01*
X117750Y103325D01*
X117250D01*
X117000Y103575D02*
X116876Y103700D01*
X116626D01*
X116501Y103575D01*
Y103075D01*
X116626Y102950D01*
X116876D01*
X117000Y103075D01*
Y103200D01*
X116876Y103325D01*
X116501D01*
X147400Y129500D02*
Y130250D01*
X147775D01*
X147900Y130125D01*
Y129875D01*
X147775Y129750D01*
X147400D01*
X147650D02*
X147900Y129500D01*
X148650Y130250D02*
X148150D01*
Y129875D01*
X148400Y130000D01*
X148525D01*
X148650Y129875D01*
Y129625D01*
X148525Y129500D01*
X148275D01*
X148150Y129625D01*
X148900Y130125D02*
X149024Y130250D01*
X149274D01*
X149399Y130125D01*
Y129625D01*
X149274Y129500D01*
X149024D01*
X148900Y129625D01*
Y130125D01*
X129200Y131300D02*
Y130550D01*
X128825D01*
X128700Y130675D01*
Y130925D01*
X128825Y131050D01*
X129200D01*
X128950D02*
X128700Y131300D01*
X127950Y130550D02*
X128450D01*
Y130925D01*
X128200Y130800D01*
X128075D01*
X127950Y130925D01*
Y131175D01*
X128075Y131300D01*
X128325D01*
X128450Y131175D01*
X127700Y131300D02*
X127451D01*
X127576D01*
Y130550D01*
X127700Y130675D01*
X122400Y129800D02*
X123150D01*
Y129425D01*
X123025Y129300D01*
X122775D01*
X122650Y129425D01*
Y129800D01*
Y129550D02*
X122400Y129300D01*
X123150Y128550D02*
Y129050D01*
X122775D01*
X122900Y128800D01*
Y128675D01*
X122775Y128550D01*
X122525D01*
X122400Y128675D01*
Y128925D01*
X122525Y129050D01*
X122400Y127801D02*
Y128300D01*
X122900Y127801D01*
X123025D01*
X123150Y127926D01*
Y128176D01*
X123025Y128300D01*
X114800Y106800D02*
X114050D01*
Y107175D01*
X114175Y107300D01*
X114425D01*
X114550Y107175D01*
Y106800D01*
Y107050D02*
X114800Y107300D01*
X114050Y108050D02*
Y107550D01*
X114425D01*
X114300Y107800D01*
Y107925D01*
X114425Y108050D01*
X114675D01*
X114800Y107925D01*
Y107675D01*
X114675Y107550D01*
X114175Y108300D02*
X114050Y108424D01*
Y108674D01*
X114175Y108799D01*
X114300D01*
X114425Y108674D01*
Y108549D01*
Y108674D01*
X114550Y108799D01*
X114675D01*
X114800Y108674D01*
Y108424D01*
X114675Y108300D01*
X116600Y109200D02*
X115850D01*
Y109575D01*
X115975Y109700D01*
X116225D01*
X116350Y109575D01*
Y109200D01*
Y109450D02*
X116600Y109700D01*
X115850Y110450D02*
Y109950D01*
X116225D01*
X116100Y110200D01*
Y110325D01*
X116225Y110450D01*
X116475D01*
X116600Y110325D01*
Y110075D01*
X116475Y109950D01*
X115850Y111199D02*
Y110700D01*
X116225D01*
X116100Y110949D01*
Y111074D01*
X116225Y111199D01*
X116475D01*
X116600Y111074D01*
Y110824D01*
X116475Y110700D01*
X124700Y127000D02*
X123950D01*
Y127375D01*
X124075Y127500D01*
X124325D01*
X124450Y127375D01*
Y127000D01*
Y127250D02*
X124700Y127500D01*
X123950Y128250D02*
Y127750D01*
X124325D01*
X124200Y128000D01*
Y128125D01*
X124325Y128250D01*
X124575D01*
X124700Y128125D01*
Y127875D01*
X124575Y127750D01*
X124700Y128874D02*
X123950D01*
X124325Y128500D01*
Y128999D01*
X113500Y136400D02*
X114250D01*
Y136025D01*
X114125Y135900D01*
X113875D01*
X113750Y136025D01*
Y136400D01*
Y136150D02*
X113500Y135900D01*
X114250Y135150D02*
Y135650D01*
X113875D01*
X114000Y135400D01*
Y135275D01*
X113875Y135150D01*
X113625D01*
X113500Y135275D01*
Y135525D01*
X113625Y135650D01*
X114250Y134401D02*
X114125Y134651D01*
X113875Y134900D01*
X113625D01*
X113500Y134776D01*
Y134526D01*
X113625Y134401D01*
X113750D01*
X113875Y134526D01*
Y134900D01*
X119000Y113400D02*
X119750D01*
Y113025D01*
X119625Y112900D01*
X119375D01*
X119250Y113025D01*
Y113400D01*
Y113150D02*
X119000Y112900D01*
X119750Y112150D02*
X119625Y112400D01*
X119375Y112650D01*
X119125D01*
X119000Y112525D01*
Y112275D01*
X119125Y112150D01*
X119250D01*
X119375Y112275D01*
Y112650D01*
X119625Y111900D02*
X119750Y111776D01*
Y111526D01*
X119625Y111401D01*
X119500D01*
X119375Y111526D01*
Y111651D01*
Y111526D01*
X119250Y111401D01*
X119125D01*
X119000Y111526D01*
Y111776D01*
X119125Y111900D01*
X121050Y117575D02*
X121175Y117700D01*
Y117950D01*
X121050Y118075D01*
X120550D01*
X120425Y117950D01*
Y117700D01*
X120550Y117575D01*
X121175Y116825D02*
X121050Y117075D01*
X120800Y117325D01*
X120550D01*
X120425Y117200D01*
Y116950D01*
X120550Y116825D01*
X120675D01*
X120800Y116950D01*
Y117325D01*
X115700Y107600D02*
Y108350D01*
X116075D01*
X116200Y108225D01*
Y107975D01*
X116075Y107850D01*
X115700D01*
X115950D02*
X116200Y107600D01*
X116950Y108350D02*
X116700Y108225D01*
X116450Y107975D01*
Y107725D01*
X116575Y107600D01*
X116825D01*
X116950Y107725D01*
Y107850D01*
X116825Y107975D01*
X116450D01*
X117574Y107600D02*
Y108350D01*
X117200Y107975D01*
X117699D01*
X117400Y112000D02*
X118150D01*
Y111625D01*
X118025Y111500D01*
X117775D01*
X117650Y111625D01*
Y112000D01*
Y111750D02*
X117400Y111500D01*
X118150Y110750D02*
X118025Y111000D01*
X117775Y111250D01*
X117525D01*
X117400Y111125D01*
Y110875D01*
X117525Y110750D01*
X117650D01*
X117775Y110875D01*
Y111250D01*
X118150Y110001D02*
Y110500D01*
X117775D01*
X117900Y110251D01*
Y110126D01*
X117775Y110001D01*
X117525D01*
X117400Y110126D01*
Y110376D01*
X117525Y110500D01*
X147400Y135000D02*
Y135750D01*
X147775D01*
X147900Y135625D01*
Y135375D01*
X147775Y135250D01*
X147400D01*
X147650D02*
X147900Y135000D01*
X148650Y135750D02*
X148400Y135625D01*
X148150Y135375D01*
Y135125D01*
X148275Y135000D01*
X148525D01*
X148650Y135125D01*
Y135250D01*
X148525Y135375D01*
X148150D01*
X149399Y135750D02*
X149149Y135625D01*
X148900Y135375D01*
Y135125D01*
X149024Y135000D01*
X149274D01*
X149399Y135125D01*
Y135250D01*
X149274Y135375D01*
X148900D01*
X129200Y136300D02*
Y135550D01*
X128825D01*
X128700Y135675D01*
Y135925D01*
X128825Y136050D01*
X129200D01*
X128950D02*
X128700Y136300D01*
X127950Y135550D02*
X128200Y135675D01*
X128450Y135925D01*
Y136175D01*
X128325Y136300D01*
X128075D01*
X127950Y136175D01*
Y136050D01*
X128075Y135925D01*
X128450D01*
X127700Y135550D02*
X127201D01*
Y135675D01*
X127700Y136175D01*
Y136300D01*
X122400Y134800D02*
X123150D01*
Y134425D01*
X123025Y134300D01*
X122775D01*
X122650Y134425D01*
Y134800D01*
Y134550D02*
X122400Y134300D01*
X123150Y133550D02*
X123025Y133800D01*
X122775Y134050D01*
X122525D01*
X122400Y133925D01*
Y133675D01*
X122525Y133550D01*
X122650D01*
X122775Y133675D01*
Y134050D01*
X123025Y133300D02*
X123150Y133176D01*
Y132926D01*
X123025Y132801D01*
X122900D01*
X122775Y132926D01*
X122650Y132801D01*
X122525D01*
X122400Y132926D01*
Y133176D01*
X122525Y133300D01*
X122650D01*
X122775Y133176D01*
X122900Y133300D01*
X123025D01*
X122775Y133176D02*
Y132926D01*
X124700Y132000D02*
X123950D01*
Y132375D01*
X124075Y132500D01*
X124325D01*
X124450Y132375D01*
Y132000D01*
Y132250D02*
X124700Y132500D01*
X123950Y133250D02*
X124075Y133000D01*
X124325Y132750D01*
X124575D01*
X124700Y132875D01*
Y133125D01*
X124575Y133250D01*
X124450D01*
X124325Y133125D01*
Y132750D01*
X124575Y133500D02*
X124700Y133624D01*
Y133874D01*
X124575Y133999D01*
X124075D01*
X123950Y133874D01*
Y133624D01*
X124075Y133500D01*
X124200D01*
X124325Y133624D01*
Y133999D01*
X124275Y101350D02*
X124400Y101225D01*
X124650D01*
X124775Y101350D01*
Y101850D01*
X124650Y101975D01*
X124400D01*
X124275Y101850D01*
X124025Y101225D02*
X123525D01*
Y101350D01*
X124025Y101850D01*
Y101975D01*
X116000Y133600D02*
X115250D01*
Y133975D01*
X115375Y134100D01*
X115625D01*
X115750Y133975D01*
Y133600D01*
Y133850D02*
X116000Y134100D01*
X115250Y134350D02*
Y134850D01*
X115375D01*
X115875Y134350D01*
X116000D01*
X115250Y135599D02*
X115375Y135349D01*
X115625Y135100D01*
X115875D01*
X116000Y135224D01*
Y135474D01*
X115875Y135599D01*
X115750D01*
X115625Y135474D01*
Y135100D01*
X114150Y117875D02*
X114275Y118000D01*
Y118250D01*
X114150Y118375D01*
X113650D01*
X113525Y118250D01*
Y118000D01*
X113650Y117875D01*
X114150Y117625D02*
X114275Y117500D01*
Y117250D01*
X114150Y117125D01*
X114025D01*
X113900Y117250D01*
X113775Y117125D01*
X113650D01*
X113525Y117250D01*
Y117500D01*
X113650Y117625D01*
X113775D01*
X113900Y117500D01*
X114025Y117625D01*
X114150D01*
X113900Y117500D02*
Y117250D01*
X147400Y140500D02*
Y141250D01*
X147775D01*
X147900Y141125D01*
Y140875D01*
X147775Y140750D01*
X147400D01*
X147650D02*
X147900Y140500D01*
X148150Y141250D02*
X148650D01*
Y141125D01*
X148150Y140625D01*
Y140500D01*
X148900Y141250D02*
X149399D01*
Y141125D01*
X148900Y140625D01*
Y140500D01*
X116800Y136400D02*
X117550D01*
Y136025D01*
X117425Y135900D01*
X117175D01*
X117050Y136025D01*
Y136400D01*
Y136150D02*
X116800Y135900D01*
X117425Y135650D02*
X117550Y135525D01*
Y135275D01*
X117425Y135150D01*
X117300D01*
X117175Y135275D01*
X117050Y135150D01*
X116925D01*
X116800Y135275D01*
Y135525D01*
X116925Y135650D01*
X117050D01*
X117175Y135525D01*
X117300Y135650D01*
X117425D01*
X117175Y135525D02*
Y135275D01*
X117425Y134900D02*
X117550Y134776D01*
Y134526D01*
X117425Y134401D01*
X116925D01*
X116800Y134526D01*
Y134776D01*
X116925Y134900D01*
X117425D01*
X121000Y136900D02*
X120250D01*
Y137275D01*
X120375Y137400D01*
X120625D01*
X120750Y137275D01*
Y136900D01*
Y137150D02*
X121000Y137400D01*
X120250Y137650D02*
Y138150D01*
X120375D01*
X120875Y137650D01*
X121000D01*
X120875Y138400D02*
X121000Y138524D01*
Y138774D01*
X120875Y138899D01*
X120375D01*
X120250Y138774D01*
Y138524D01*
X120375Y138400D01*
X120500D01*
X120625Y138524D01*
Y138899D01*
X129200Y141300D02*
Y140550D01*
X128825D01*
X128700Y140675D01*
Y140925D01*
X128825Y141050D01*
X129200D01*
X128950D02*
X128700Y141300D01*
X128450Y140550D02*
X127950D01*
Y140675D01*
X128450Y141175D01*
Y141300D01*
X127700Y140675D02*
X127576Y140550D01*
X127326D01*
X127201Y140675D01*
Y140800D01*
X127326Y140925D01*
X127201Y141050D01*
Y141175D01*
X127326Y141300D01*
X127576D01*
X127700Y141175D01*
Y141050D01*
X127576Y140925D01*
X127700Y140800D01*
Y140675D01*
X127576Y140925D02*
X127326D01*
X122400Y139800D02*
X123150D01*
Y139425D01*
X123025Y139300D01*
X122775D01*
X122650Y139425D01*
Y139800D01*
Y139550D02*
X122400Y139300D01*
X123025Y139050D02*
X123150Y138925D01*
Y138675D01*
X123025Y138550D01*
X122900D01*
X122775Y138675D01*
X122650Y138550D01*
X122525D01*
X122400Y138675D01*
Y138925D01*
X122525Y139050D01*
X122650D01*
X122775Y138925D01*
X122900Y139050D01*
X123025D01*
X122775Y138925D02*
Y138675D01*
X122400Y138300D02*
Y138051D01*
Y138176D01*
X123150D01*
X123025Y138300D01*
X119300Y133600D02*
X118550D01*
Y133975D01*
X118675Y134100D01*
X118925D01*
X119050Y133975D01*
Y133600D01*
Y133850D02*
X119300Y134100D01*
X118675Y134350D02*
X118550Y134475D01*
Y134725D01*
X118675Y134850D01*
X118800D01*
X118925Y134725D01*
X119050Y134850D01*
X119175D01*
X119300Y134725D01*
Y134475D01*
X119175Y134350D01*
X119050D01*
X118925Y134475D01*
X118800Y134350D01*
X118675D01*
X118925Y134475D02*
Y134725D01*
X118675Y135100D02*
X118550Y135224D01*
Y135474D01*
X118675Y135599D01*
X118800D01*
X118925Y135474D01*
Y135349D01*
Y135474D01*
X119050Y135599D01*
X119175D01*
X119300Y135474D01*
Y135224D01*
X119175Y135100D01*
X121000Y133600D02*
X120250D01*
Y133975D01*
X120375Y134100D01*
X120625D01*
X120750Y133975D01*
Y133600D01*
Y133850D02*
X121000Y134100D01*
X120375Y134350D02*
X120250Y134475D01*
Y134725D01*
X120375Y134850D01*
X120500D01*
X120625Y134725D01*
X120750Y134850D01*
X120875D01*
X121000Y134725D01*
Y134475D01*
X120875Y134350D01*
X120750D01*
X120625Y134475D01*
X120500Y134350D01*
X120375D01*
X120625Y134475D02*
Y134725D01*
X121000Y135599D02*
Y135100D01*
X120500Y135599D01*
X120375D01*
X120250Y135474D01*
Y135224D01*
X120375Y135100D01*
X117650Y130725D02*
X117525Y130600D01*
Y130350D01*
X117650Y130225D01*
X118150D01*
X118275Y130350D01*
Y130600D01*
X118150Y130725D01*
X118275Y130975D02*
Y131225D01*
Y131100D01*
X117525D01*
X117650Y130975D01*
Y131600D02*
X117525Y131725D01*
Y131974D01*
X117650Y132099D01*
X118150D01*
X118275Y131974D01*
Y131725D01*
X118150Y131600D01*
X117650D01*
X119250Y130725D02*
X119125Y130600D01*
Y130350D01*
X119250Y130225D01*
X119750D01*
X119875Y130350D01*
Y130600D01*
X119750Y130725D01*
Y130975D02*
X119875Y131100D01*
Y131350D01*
X119750Y131475D01*
X119250D01*
X119125Y131350D01*
Y131100D01*
X119250Y130975D01*
X119375D01*
X119500Y131100D01*
Y131475D01*
X124700Y137000D02*
X123950D01*
Y137375D01*
X124075Y137500D01*
X124325D01*
X124450Y137375D01*
Y137000D01*
Y137250D02*
X124700Y137500D01*
X124075Y137750D02*
X123950Y137875D01*
Y138125D01*
X124075Y138250D01*
X124200D01*
X124325Y138125D01*
X124450Y138250D01*
X124575D01*
X124700Y138125D01*
Y137875D01*
X124575Y137750D01*
X124450D01*
X124325Y137875D01*
X124200Y137750D01*
X124075D01*
X124325Y137875D02*
Y138125D01*
X124700Y138874D02*
X123950D01*
X124325Y138500D01*
Y138999D01*
X135100Y104800D02*
X134350D01*
Y105175D01*
X134475Y105300D01*
X134725D01*
X134850Y105175D01*
Y104800D01*
Y105050D02*
X135100Y105300D01*
Y106050D02*
Y105550D01*
X134600Y106050D01*
X134475D01*
X134350Y105925D01*
Y105675D01*
X134475Y105550D01*
Y106300D02*
X134350Y106424D01*
Y106674D01*
X134475Y106799D01*
X134600D01*
X134725Y106674D01*
Y106549D01*
Y106674D01*
X134850Y106799D01*
X134975D01*
X135100Y106674D01*
Y106424D01*
X134975Y106300D01*
D60*
X141434Y103600D02*
X141767D01*
X141600D01*
Y104433D01*
X141767Y104600D01*
X141933D01*
X142100Y104433D01*
X140434Y103600D02*
X141100D01*
Y104100D01*
X140767Y103934D01*
X140600D01*
X140434Y104100D01*
Y104433D01*
X140600Y104600D01*
X140934D01*
X141100Y104433D01*
X158500Y124884D02*
Y125217D01*
Y125050D01*
X157667D01*
X157500Y125217D01*
Y125383D01*
X157667Y125550D01*
X157500Y124050D02*
X158500D01*
X158000Y124550D01*
Y123884D01*
X121550Y106700D02*
Y105867D01*
X121717Y105700D01*
X122050D01*
X122216Y105867D01*
Y106700D01*
X122550Y105700D02*
X122883D01*
X122716D01*
Y106700D01*
X122550Y106533D01*
X103400Y111466D02*
Y111133D01*
Y111300D01*
X104233D01*
X104400Y111133D01*
Y110967D01*
X104233Y110800D01*
X104400Y111800D02*
Y112133D01*
Y111966D01*
X103400D01*
X103567Y111800D01*
X103400Y127966D02*
Y127633D01*
Y127800D01*
X104233D01*
X104400Y127633D01*
Y127467D01*
X104233Y127300D01*
X104400Y128966D02*
Y128300D01*
X103734Y128966D01*
X103567D01*
X103400Y128800D01*
Y128466D01*
X103567Y128300D01*
X116034Y139000D02*
X116367D01*
X116200D01*
Y139833D01*
X116367Y140000D01*
X116533D01*
X116700Y139833D01*
X115700Y139167D02*
X115534Y139000D01*
X115200D01*
X115034Y139167D01*
Y139334D01*
X115200Y139500D01*
X115367D01*
X115200D01*
X115034Y139667D01*
Y139833D01*
X115200Y140000D01*
X115534D01*
X115700Y139833D01*
X126959Y139258D02*
X127625D01*
X127792Y139424D01*
Y139757D01*
X127625Y139924D01*
X126959D01*
X126792Y139757D01*
Y139424D01*
X127125Y139591D02*
X126792Y139258D01*
Y139424D02*
X126959Y139258D01*
X126792Y138924D02*
Y138591D01*
Y138758D01*
X127792D01*
X127625Y138924D01*
Y138091D02*
X127792Y137925D01*
Y137591D01*
X127625Y137425D01*
X127458D01*
X127292Y137591D01*
Y137758D01*
Y137591D01*
X127125Y137425D01*
X126959D01*
X126792Y137591D01*
Y137925D01*
X126959Y138091D01*
Y134258D02*
X127625D01*
X127792Y134424D01*
Y134757D01*
X127625Y134924D01*
X126959D01*
X126792Y134757D01*
Y134424D01*
X127125Y134591D02*
X126792Y134258D01*
Y134424D02*
X126959Y134258D01*
X126792Y133924D02*
Y133591D01*
Y133758D01*
X127792D01*
X127625Y133924D01*
X126792Y133091D02*
Y132758D01*
Y132925D01*
X127792D01*
X127625Y133091D01*
X126959Y129258D02*
X127625D01*
X127792Y129424D01*
Y129757D01*
X127625Y129924D01*
X126959D01*
X126792Y129757D01*
Y129424D01*
X127125Y129591D02*
X126792Y129258D01*
Y129424D02*
X126959Y129258D01*
Y128924D02*
X126792Y128758D01*
Y128424D01*
X126959Y128258D01*
X127625D01*
X127792Y128424D01*
Y128758D01*
X127625Y128924D01*
X127458D01*
X127292Y128758D01*
Y128258D01*
X126959Y124258D02*
X127625D01*
X127792Y124424D01*
Y124757D01*
X127625Y124924D01*
X126959D01*
X126792Y124757D01*
Y124424D01*
X127125Y124591D02*
X126792Y124258D01*
Y124424D02*
X126959Y124258D01*
X127792Y123924D02*
Y123258D01*
X127625D01*
X126959Y123924D01*
X126792D01*
X112058Y115541D02*
Y114875D01*
X112224Y114708D01*
X112557D01*
X112724Y114875D01*
Y115541D01*
X112557Y115708D01*
X112224D01*
X112391Y115375D02*
X112058Y115708D01*
X112224D02*
X112058Y115541D01*
X111058Y114708D02*
X111724D01*
Y115208D01*
X111391Y115042D01*
X111224D01*
X111058Y115208D01*
Y115541D01*
X111224Y115708D01*
X111558D01*
X111724Y115541D01*
X126859Y119258D02*
X127525D01*
X127692Y119424D01*
Y119757D01*
X127525Y119924D01*
X126859D01*
X126692Y119757D01*
Y119424D01*
X127025Y119591D02*
X126692Y119258D01*
Y119424D02*
X126859Y119258D01*
X126692Y118424D02*
X127692D01*
X127192Y118924D01*
Y118258D01*
X126859Y114258D02*
X127525D01*
X127692Y114424D01*
Y114757D01*
X127525Y114924D01*
X126859D01*
X126692Y114757D01*
Y114424D01*
X127025Y114591D02*
X126692Y114258D01*
Y114424D02*
X126859Y114258D01*
X126692Y113258D02*
Y113924D01*
X127358Y113258D01*
X127525D01*
X127692Y113424D01*
Y113758D01*
X127525Y113924D01*
X148459Y111758D02*
X149125D01*
X149292Y111924D01*
Y112257D01*
X149125Y112424D01*
X148459D01*
X148292Y112257D01*
Y111924D01*
X148625Y112091D02*
X148292Y111758D01*
Y111924D02*
X148459Y111758D01*
X148292Y111424D02*
Y111091D01*
Y111258D01*
X149292D01*
X149125Y111424D01*
X138800Y113300D02*
X139800D01*
Y112800D01*
X139633Y112634D01*
X139300D01*
X139133Y112800D01*
Y113300D01*
Y112967D02*
X138800Y112634D01*
Y112300D02*
Y111967D01*
Y112134D01*
X139800D01*
X139633Y112300D01*
X139800Y110801D02*
X139633Y111134D01*
X139300Y111467D01*
X138967D01*
X138800Y111301D01*
Y110967D01*
X138967Y110801D01*
X139133D01*
X139300Y110967D01*
Y111467D01*
X141550Y113300D02*
X142550D01*
Y112800D01*
X142383Y112634D01*
X142050D01*
X141883Y112800D01*
Y113300D01*
Y112967D02*
X141550Y112634D01*
Y112300D02*
Y111967D01*
Y112134D01*
X142550D01*
X142383Y112300D01*
X142550Y110801D02*
Y111467D01*
X142050D01*
X142216Y111134D01*
Y110967D01*
X142050Y110801D01*
X141717D01*
X141550Y110967D01*
Y111301D01*
X141717Y111467D01*
X144300Y113300D02*
X145300D01*
Y112800D01*
X145133Y112634D01*
X144800D01*
X144633Y112800D01*
Y113300D01*
Y112967D02*
X144300Y112634D01*
Y112300D02*
Y111967D01*
Y112134D01*
X145300D01*
X145133Y112300D01*
X144300Y110967D02*
X145300D01*
X144800Y111467D01*
Y110801D01*
X130550Y113300D02*
X131550D01*
Y112800D01*
X131383Y112634D01*
X131050D01*
X130883Y112800D01*
Y113300D01*
Y112967D02*
X130550Y112634D01*
Y112300D02*
Y111967D01*
Y112134D01*
X131550D01*
X131383Y112300D01*
Y111467D02*
X131550Y111301D01*
Y110967D01*
X131383Y110801D01*
X131216D01*
X131050Y110967D01*
Y111134D01*
Y110967D01*
X130883Y110801D01*
X130717D01*
X130550Y110967D01*
Y111301D01*
X130717Y111467D01*
X133300Y113300D02*
X134300D01*
Y112800D01*
X134133Y112634D01*
X133800D01*
X133633Y112800D01*
Y113300D01*
Y112967D02*
X133300Y112634D01*
Y112300D02*
Y111967D01*
Y112134D01*
X134300D01*
X134133Y112300D01*
X133300Y110801D02*
Y111467D01*
X133966Y110801D01*
X134133D01*
X134300Y110967D01*
Y111301D01*
X134133Y111467D01*
X136050Y113300D02*
X137050D01*
Y112800D01*
X136883Y112634D01*
X136550D01*
X136383Y112800D01*
Y113300D01*
Y112967D02*
X136050Y112634D01*
Y112300D02*
Y111967D01*
Y112134D01*
X137050D01*
X136883Y112300D01*
X136050Y111467D02*
Y111134D01*
Y111301D01*
X137050D01*
X136883Y111467D01*
X148459Y117258D02*
X149125D01*
X149292Y117424D01*
Y117757D01*
X149125Y117924D01*
X148459D01*
X148292Y117757D01*
Y117424D01*
X148625Y117591D02*
X148292Y117258D01*
Y117424D02*
X148459Y117258D01*
X149125Y116924D02*
X149292Y116758D01*
Y116424D01*
X149125Y116258D01*
X148958D01*
X148792Y116424D01*
Y116591D01*
Y116424D01*
X148625Y116258D01*
X148459D01*
X148292Y116424D01*
Y116758D01*
X148459Y116924D01*
X106800Y123700D02*
Y122867D01*
X106967Y122700D01*
X107300D01*
X107466Y122867D01*
Y123700D01*
X108466Y122700D02*
X107800D01*
X108466Y123366D01*
Y123533D01*
X108300Y123700D01*
X107966D01*
X107800Y123533D01*
X144300Y118800D02*
X145300D01*
Y118300D01*
X145133Y118134D01*
X144800D01*
X144633Y118300D01*
Y118800D01*
Y118467D02*
X144300Y118134D01*
X145133Y117800D02*
X145300Y117634D01*
Y117300D01*
X145133Y117134D01*
X144966D01*
X144800Y117300D01*
Y117467D01*
Y117300D01*
X144633Y117134D01*
X144467D01*
X144300Y117300D01*
Y117634D01*
X144467Y117800D01*
X145133Y116801D02*
X145300Y116634D01*
Y116301D01*
X145133Y116134D01*
X144966D01*
X144800Y116301D01*
Y116467D01*
Y116301D01*
X144633Y116134D01*
X144467D01*
X144300Y116301D01*
Y116634D01*
X144467Y116801D01*
X141550Y118800D02*
X142550D01*
Y118300D01*
X142383Y118134D01*
X142050D01*
X141883Y118300D01*
Y118800D01*
Y118467D02*
X141550Y118134D01*
X142383Y117800D02*
X142550Y117634D01*
Y117300D01*
X142383Y117134D01*
X142216D01*
X142050Y117300D01*
Y117467D01*
Y117300D01*
X141883Y117134D01*
X141717D01*
X141550Y117300D01*
Y117634D01*
X141717Y117800D01*
X141550Y116134D02*
Y116801D01*
X142216Y116134D01*
X142383D01*
X142550Y116301D01*
Y116634D01*
X142383Y116801D01*
X138800Y118800D02*
X139800D01*
Y118300D01*
X139633Y118134D01*
X139300D01*
X139133Y118300D01*
Y118800D01*
Y118467D02*
X138800Y118134D01*
X139633Y117800D02*
X139800Y117634D01*
Y117300D01*
X139633Y117134D01*
X139466D01*
X139300Y117300D01*
Y117467D01*
Y117300D01*
X139133Y117134D01*
X138967D01*
X138800Y117300D01*
Y117634D01*
X138967Y117800D01*
X138800Y116801D02*
Y116467D01*
Y116634D01*
X139800D01*
X139633Y116801D01*
X136050Y118800D02*
X137050D01*
Y118300D01*
X136883Y118134D01*
X136550D01*
X136383Y118300D01*
Y118800D01*
Y118467D02*
X136050Y118134D01*
X136883Y117800D02*
X137050Y117634D01*
Y117300D01*
X136883Y117134D01*
X136716D01*
X136550Y117300D01*
Y117467D01*
Y117300D01*
X136383Y117134D01*
X136217D01*
X136050Y117300D01*
Y117634D01*
X136217Y117800D01*
X136883Y116801D02*
X137050Y116634D01*
Y116301D01*
X136883Y116134D01*
X136217D01*
X136050Y116301D01*
Y116634D01*
X136217Y116801D01*
X136883D01*
X133300Y118800D02*
X134300D01*
Y118300D01*
X134133Y118134D01*
X133800D01*
X133633Y118300D01*
Y118800D01*
Y118467D02*
X133300Y118134D01*
Y117134D02*
Y117800D01*
X133966Y117134D01*
X134133D01*
X134300Y117300D01*
Y117634D01*
X134133Y117800D01*
X133467Y116801D02*
X133300Y116634D01*
Y116301D01*
X133467Y116134D01*
X134133D01*
X134300Y116301D01*
Y116634D01*
X134133Y116801D01*
X133966D01*
X133800Y116634D01*
Y116134D01*
X130550Y118800D02*
X131550D01*
Y118300D01*
X131383Y118134D01*
X131050D01*
X130883Y118300D01*
Y118800D01*
Y118467D02*
X130550Y118134D01*
Y117134D02*
Y117800D01*
X131216Y117134D01*
X131383D01*
X131550Y117300D01*
Y117634D01*
X131383Y117800D01*
Y116801D02*
X131550Y116634D01*
Y116301D01*
X131383Y116134D01*
X131216D01*
X131050Y116301D01*
X130883Y116134D01*
X130717D01*
X130550Y116301D01*
Y116634D01*
X130717Y116801D01*
X130883D01*
X131050Y116634D01*
X131216Y116801D01*
X131383D01*
X131050Y116634D02*
Y116301D01*
X148459Y122758D02*
X149125D01*
X149292Y122924D01*
Y123257D01*
X149125Y123424D01*
X148459D01*
X148292Y123257D01*
Y122924D01*
X148625Y123091D02*
X148292Y122758D01*
Y122924D02*
X148459Y122758D01*
X149292Y121758D02*
X149125Y122091D01*
X148792Y122424D01*
X148459D01*
X148292Y122258D01*
Y121924D01*
X148459Y121758D01*
X148625D01*
X148792Y121924D01*
Y122424D01*
X111892Y105924D02*
X111059D01*
X110892Y105757D01*
Y105424D01*
X111059Y105258D01*
X111892D01*
X111725Y104924D02*
X111892Y104758D01*
Y104424D01*
X111725Y104258D01*
X111558D01*
X111392Y104424D01*
Y104591D01*
Y104424D01*
X111225Y104258D01*
X111059D01*
X110892Y104424D01*
Y104758D01*
X111059Y104924D01*
X144300Y124300D02*
X145300D01*
Y123800D01*
X145133Y123634D01*
X144800D01*
X144633Y123800D01*
Y124300D01*
Y123967D02*
X144300Y123634D01*
Y122800D02*
X145300D01*
X144800Y123300D01*
Y122634D01*
X145300Y122301D02*
Y121634D01*
X145133D01*
X144467Y122301D01*
X144300D01*
X141550Y124300D02*
X142550D01*
Y123800D01*
X142383Y123634D01*
X142050D01*
X141883Y123800D01*
Y124300D01*
Y123967D02*
X141550Y123634D01*
Y122800D02*
X142550D01*
X142050Y123300D01*
Y122634D01*
X142550Y121634D02*
X142383Y121967D01*
X142050Y122301D01*
X141717D01*
X141550Y122134D01*
Y121801D01*
X141717Y121634D01*
X141883D01*
X142050Y121801D01*
Y122301D01*
X138800Y124300D02*
X139800D01*
Y123800D01*
X139633Y123634D01*
X139300D01*
X139133Y123800D01*
Y124300D01*
Y123967D02*
X138800Y123634D01*
Y122800D02*
X139800D01*
X139300Y123300D01*
Y122634D01*
X139800Y121634D02*
Y122301D01*
X139300D01*
X139466Y121967D01*
Y121801D01*
X139300Y121634D01*
X138967D01*
X138800Y121801D01*
Y122134D01*
X138967Y122301D01*
X136050Y124300D02*
X137050D01*
Y123800D01*
X136883Y123634D01*
X136550D01*
X136383Y123800D01*
Y124300D01*
Y123967D02*
X136050Y123634D01*
Y122800D02*
X137050D01*
X136550Y123300D01*
Y122634D01*
X136050Y121801D02*
X137050D01*
X136550Y122301D01*
Y121634D01*
X133300Y124300D02*
X134300D01*
Y123800D01*
X134133Y123634D01*
X133800D01*
X133633Y123800D01*
Y124300D01*
Y123967D02*
X133300Y123634D01*
Y122800D02*
X134300D01*
X133800Y123300D01*
Y122634D01*
X134133Y122301D02*
X134300Y122134D01*
Y121801D01*
X134133Y121634D01*
X133966D01*
X133800Y121801D01*
Y121967D01*
Y121801D01*
X133633Y121634D01*
X133467D01*
X133300Y121801D01*
Y122134D01*
X133467Y122301D01*
X130550Y124300D02*
X131550D01*
Y123800D01*
X131383Y123634D01*
X131050D01*
X130883Y123800D01*
Y124300D01*
Y123967D02*
X130550Y123634D01*
Y122800D02*
X131550D01*
X131050Y123300D01*
Y122634D01*
X130550Y121634D02*
Y122301D01*
X131216Y121634D01*
X131383D01*
X131550Y121801D01*
Y122134D01*
X131383Y122301D01*
X108800Y107800D02*
X107800D01*
Y107300D01*
X107967Y107134D01*
X108633D01*
X108800Y107300D01*
Y107800D01*
X107800Y106800D02*
Y106467D01*
Y106634D01*
X108800D01*
X108633Y106800D01*
X148459Y128258D02*
X149125D01*
X149292Y128424D01*
Y128757D01*
X149125Y128924D01*
X148459D01*
X148292Y128757D01*
Y128424D01*
X148625Y128591D02*
X148292Y128258D01*
Y128424D02*
X148459Y128258D01*
X149125Y127924D02*
X149292Y127758D01*
Y127424D01*
X149125Y127258D01*
X148958D01*
X148792Y127424D01*
X148625Y127258D01*
X148459D01*
X148292Y127424D01*
Y127758D01*
X148459Y127924D01*
X148625D01*
X148792Y127758D01*
X148958Y127924D01*
X149125D01*
X148792Y127758D02*
Y127424D01*
X144300Y129800D02*
X145300D01*
Y129300D01*
X145133Y129134D01*
X144800D01*
X144633Y129300D01*
Y129800D01*
Y129467D02*
X144300Y129134D01*
X145300Y128134D02*
X145133Y128467D01*
X144800Y128800D01*
X144467D01*
X144300Y128634D01*
Y128300D01*
X144467Y128134D01*
X144633D01*
X144800Y128300D01*
Y128800D01*
X144300Y127134D02*
Y127801D01*
X144966Y127134D01*
X145133D01*
X145300Y127301D01*
Y127634D01*
X145133Y127801D01*
X141550Y129800D02*
X142550D01*
Y129300D01*
X142383Y129134D01*
X142050D01*
X141883Y129300D01*
Y129800D01*
Y129467D02*
X141550Y129134D01*
X142550Y128134D02*
X142383Y128467D01*
X142050Y128800D01*
X141717D01*
X141550Y128634D01*
Y128300D01*
X141717Y128134D01*
X141883D01*
X142050Y128300D01*
Y128800D01*
X141550Y127801D02*
Y127467D01*
Y127634D01*
X142550D01*
X142383Y127801D01*
X138800Y129800D02*
X139800D01*
Y129300D01*
X139633Y129134D01*
X139300D01*
X139133Y129300D01*
Y129800D01*
Y129467D02*
X138800Y129134D01*
X139800Y128134D02*
X139633Y128467D01*
X139300Y128800D01*
X138967D01*
X138800Y128634D01*
Y128300D01*
X138967Y128134D01*
X139133D01*
X139300Y128300D01*
Y128800D01*
X139633Y127801D02*
X139800Y127634D01*
Y127301D01*
X139633Y127134D01*
X138967D01*
X138800Y127301D01*
Y127634D01*
X138967Y127801D01*
X139633D01*
X136050Y129800D02*
X137050D01*
Y129300D01*
X136883Y129134D01*
X136550D01*
X136383Y129300D01*
Y129800D01*
Y129467D02*
X136050Y129134D01*
X137050Y128134D02*
Y128800D01*
X136550D01*
X136716Y128467D01*
Y128300D01*
X136550Y128134D01*
X136217D01*
X136050Y128300D01*
Y128634D01*
X136217Y128800D01*
Y127801D02*
X136050Y127634D01*
Y127301D01*
X136217Y127134D01*
X136883D01*
X137050Y127301D01*
Y127634D01*
X136883Y127801D01*
X136716D01*
X136550Y127634D01*
Y127134D01*
X133300Y129800D02*
X134300D01*
Y129300D01*
X134133Y129134D01*
X133800D01*
X133633Y129300D01*
Y129800D01*
Y129467D02*
X133300Y129134D01*
X134300Y128134D02*
Y128800D01*
X133800D01*
X133966Y128467D01*
Y128300D01*
X133800Y128134D01*
X133467D01*
X133300Y128300D01*
Y128634D01*
X133467Y128800D01*
X134133Y127801D02*
X134300Y127634D01*
Y127301D01*
X134133Y127134D01*
X133966D01*
X133800Y127301D01*
X133633Y127134D01*
X133467D01*
X133300Y127301D01*
Y127634D01*
X133467Y127801D01*
X133633D01*
X133800Y127634D01*
X133966Y127801D01*
X134133D01*
X133800Y127634D02*
Y127301D01*
X130550Y129800D02*
X131550D01*
Y129300D01*
X131383Y129134D01*
X131050D01*
X130883Y129300D01*
Y129800D01*
Y129467D02*
X130550Y129134D01*
X131550Y128134D02*
Y128800D01*
X131050D01*
X131216Y128467D01*
Y128300D01*
X131050Y128134D01*
X130717D01*
X130550Y128300D01*
Y128634D01*
X130717Y128800D01*
X131550Y127801D02*
Y127134D01*
X131383D01*
X130717Y127801D01*
X130550D01*
X148459Y133758D02*
X149125D01*
X149292Y133924D01*
Y134257D01*
X149125Y134424D01*
X148459D01*
X148292Y134257D01*
Y133924D01*
X148625Y134091D02*
X148292Y133758D01*
Y133924D02*
X148459Y133758D01*
X148292Y133424D02*
Y133091D01*
Y133258D01*
X149292D01*
X149125Y133424D01*
Y132591D02*
X149292Y132425D01*
Y132091D01*
X149125Y131925D01*
X148459D01*
X148292Y132091D01*
Y132425D01*
X148459Y132591D01*
X149125D01*
X144300Y135300D02*
X145300D01*
Y134800D01*
X145133Y134634D01*
X144800D01*
X144633Y134800D01*
Y135300D01*
Y134967D02*
X144300Y134634D01*
X145300Y134300D02*
Y133634D01*
X145133D01*
X144467Y134300D01*
X144300D01*
X145300Y132634D02*
Y133301D01*
X144800D01*
X144966Y132967D01*
Y132801D01*
X144800Y132634D01*
X144467D01*
X144300Y132801D01*
Y133134D01*
X144467Y133301D01*
X141550Y135300D02*
X142550D01*
Y134800D01*
X142383Y134634D01*
X142050D01*
X141883Y134800D01*
Y135300D01*
Y134967D02*
X141550Y134634D01*
X142550Y134300D02*
Y133634D01*
X142383D01*
X141717Y134300D01*
X141550D01*
Y132801D02*
X142550D01*
X142050Y133301D01*
Y132634D01*
X138800Y135300D02*
X139800D01*
Y134800D01*
X139633Y134634D01*
X139300D01*
X139133Y134800D01*
Y135300D01*
Y134967D02*
X138800Y134634D01*
X139800Y134300D02*
Y133634D01*
X139633D01*
X138967Y134300D01*
X138800D01*
X139633Y133301D02*
X139800Y133134D01*
Y132801D01*
X139633Y132634D01*
X139466D01*
X139300Y132801D01*
Y132967D01*
Y132801D01*
X139133Y132634D01*
X138967D01*
X138800Y132801D01*
Y133134D01*
X138967Y133301D01*
X136050Y135300D02*
X137050D01*
Y134800D01*
X136883Y134634D01*
X136550D01*
X136383Y134800D01*
Y135300D01*
Y134967D02*
X136050Y134634D01*
X137050Y134300D02*
Y133634D01*
X136883D01*
X136217Y134300D01*
X136050D01*
Y132634D02*
Y133301D01*
X136716Y132634D01*
X136883D01*
X137050Y132801D01*
Y133134D01*
X136883Y133301D01*
X133300Y135300D02*
X134300D01*
Y134800D01*
X134133Y134634D01*
X133800D01*
X133633Y134800D01*
Y135300D01*
Y134967D02*
X133300Y134634D01*
X134300Y134300D02*
Y133634D01*
X134133D01*
X133467Y134300D01*
X133300D01*
Y133301D02*
Y132967D01*
Y133134D01*
X134300D01*
X134133Y133301D01*
X130550Y135300D02*
X131550D01*
Y134800D01*
X131383Y134634D01*
X131050D01*
X130883Y134800D01*
Y135300D01*
Y134967D02*
X130550Y134634D01*
X131550Y134300D02*
Y133634D01*
X131383D01*
X130717Y134300D01*
X130550D01*
X131383Y133301D02*
X131550Y133134D01*
Y132801D01*
X131383Y132634D01*
X130717D01*
X130550Y132801D01*
Y133134D01*
X130717Y133301D01*
X131383D01*
X148459Y139258D02*
X149125D01*
X149292Y139424D01*
Y139757D01*
X149125Y139924D01*
X148459D01*
X148292Y139757D01*
Y139424D01*
X148625Y139591D02*
X148292Y139258D01*
Y139424D02*
X148459Y139258D01*
X148292Y138924D02*
Y138591D01*
Y138758D01*
X149292D01*
X149125Y138924D01*
X148292Y137425D02*
Y138091D01*
X148958Y137425D01*
X149125D01*
X149292Y137591D01*
Y137925D01*
X149125Y138091D01*
X144300Y140800D02*
X145300D01*
Y140300D01*
X145133Y140134D01*
X144800D01*
X144633Y140300D01*
Y140800D01*
Y140467D02*
X144300Y140134D01*
X144467Y139800D02*
X144300Y139634D01*
Y139300D01*
X144467Y139134D01*
X145133D01*
X145300Y139300D01*
Y139634D01*
X145133Y139800D01*
X144966D01*
X144800Y139634D01*
Y139134D01*
X145133Y138801D02*
X145300Y138634D01*
Y138301D01*
X145133Y138134D01*
X144467D01*
X144300Y138301D01*
Y138634D01*
X144467Y138801D01*
X145133D01*
X141550Y140800D02*
X142550D01*
Y140300D01*
X142383Y140134D01*
X142050D01*
X141883Y140300D01*
Y140800D01*
Y140467D02*
X141550Y140134D01*
X142383Y139800D02*
X142550Y139634D01*
Y139300D01*
X142383Y139134D01*
X142216D01*
X142050Y139300D01*
X141883Y139134D01*
X141717D01*
X141550Y139300D01*
Y139634D01*
X141717Y139800D01*
X141883D01*
X142050Y139634D01*
X142216Y139800D01*
X142383D01*
X142050Y139634D02*
Y139300D01*
X141717Y138801D02*
X141550Y138634D01*
Y138301D01*
X141717Y138134D01*
X142383D01*
X142550Y138301D01*
Y138634D01*
X142383Y138801D01*
X142216D01*
X142050Y138634D01*
Y138134D01*
X138800Y140800D02*
X139800D01*
Y140300D01*
X139633Y140134D01*
X139300D01*
X139133Y140300D01*
Y140800D01*
Y140467D02*
X138800Y140134D01*
X139633Y139800D02*
X139800Y139634D01*
Y139300D01*
X139633Y139134D01*
X139466D01*
X139300Y139300D01*
X139133Y139134D01*
X138967D01*
X138800Y139300D01*
Y139634D01*
X138967Y139800D01*
X139133D01*
X139300Y139634D01*
X139466Y139800D01*
X139633D01*
X139300Y139634D02*
Y139300D01*
X139633Y138801D02*
X139800Y138634D01*
Y138301D01*
X139633Y138134D01*
X139466D01*
X139300Y138301D01*
X139133Y138134D01*
X138967D01*
X138800Y138301D01*
Y138634D01*
X138967Y138801D01*
X139133D01*
X139300Y138634D01*
X139466Y138801D01*
X139633D01*
X139300Y138634D02*
Y138301D01*
X136050Y140800D02*
X137050D01*
Y140300D01*
X136883Y140134D01*
X136550D01*
X136383Y140300D01*
Y140800D01*
Y140467D02*
X136050Y140134D01*
X136883Y139800D02*
X137050Y139634D01*
Y139300D01*
X136883Y139134D01*
X136716D01*
X136550Y139300D01*
X136383Y139134D01*
X136217D01*
X136050Y139300D01*
Y139634D01*
X136217Y139800D01*
X136383D01*
X136550Y139634D01*
X136716Y139800D01*
X136883D01*
X136550Y139634D02*
Y139300D01*
X137050Y138801D02*
Y138134D01*
X136883D01*
X136217Y138801D01*
X136050D01*
X133300Y140800D02*
X134300D01*
Y140300D01*
X134133Y140134D01*
X133800D01*
X133633Y140300D01*
Y140800D01*
Y140467D02*
X133300Y140134D01*
X134133Y139800D02*
X134300Y139634D01*
Y139300D01*
X134133Y139134D01*
X133966D01*
X133800Y139300D01*
X133633Y139134D01*
X133467D01*
X133300Y139300D01*
Y139634D01*
X133467Y139800D01*
X133633D01*
X133800Y139634D01*
X133966Y139800D01*
X134133D01*
X133800Y139634D02*
Y139300D01*
X134300Y138134D02*
X134133Y138467D01*
X133800Y138801D01*
X133467D01*
X133300Y138634D01*
Y138301D01*
X133467Y138134D01*
X133633D01*
X133800Y138301D01*
Y138801D01*
X130550Y140800D02*
X131550D01*
Y140300D01*
X131383Y140134D01*
X131050D01*
X130883Y140300D01*
Y140800D01*
Y140467D02*
X130550Y140134D01*
X131383Y139800D02*
X131550Y139634D01*
Y139300D01*
X131383Y139134D01*
X131216D01*
X131050Y139300D01*
X130883Y139134D01*
X130717D01*
X130550Y139300D01*
Y139634D01*
X130717Y139800D01*
X130883D01*
X131050Y139634D01*
X131216Y139800D01*
X131383D01*
X131050Y139634D02*
Y139300D01*
X131550Y138134D02*
Y138801D01*
X131050D01*
X131216Y138467D01*
Y138301D01*
X131050Y138134D01*
X130717D01*
X130550Y138301D01*
Y138634D01*
X130717Y138801D01*
D61*
X114906Y124127D02*
Y123492D01*
X115033Y123365D01*
X115287D01*
X115414Y123492D01*
Y124127D01*
X116049Y123365D02*
Y124127D01*
X115668Y123746D01*
X116176D01*
M02*
