M48
;Layer_Color=9474304
;FILE_FORMAT=4:3
METRIC,LZ
;TYPE=PLATED
T1F00S00C0.400
T2F00S00C0.700
T3F00S00C0.900
T4F00S00C3.500
%
T01
X00779Y01039
X00776Y01053
X008035Y01073
X0081806Y0109294
X00829Y01056
X00866Y01092
X00906Y01056
X009541Y010611
Y011811
X01017Y01165
X01052Y0119
X01093Y01149
X01116Y01102
X0113194Y0108792
X01131Y01032
X01134Y01016
X01176
X01166Y01125
X01184Y01188
X01134Y01182
X00857Y01167
X00798Y0118
X01215Y01134
X01207Y01117
X01238Y01068
X01272Y0106
X01323Y01079
X01312Y01157
X013685Y01147
X01469Y01134
Y01189
X01485Y01086
X01497Y01086
X01215Y01016
X01216Y01206
X01238
X01228Y01285
Y01328
X01208Y013285
X01192Y01294
X011945Y013745
X01206Y01403
X01292Y01405
X01328Y01363
Y01313
X01285Y01314
X0128Y01253
X01328Y01263
Y01213
X013685Y01197
X013695Y01247
Y01297
X01393Y012805
Y013355
X013695Y01347
Y01397
X01469Y01409
Y01354
Y01299
Y01244
X01186Y0124
X011785Y01265
X01182Y01294
X01155Y01321
X01156Y0137
X01184Y01371
X01108Y01313
X01093
X011Y01305
X01123Y01297
X0112Y01233
X01134Y01222
Y01204
X0112789Y0119522
X01099Y01203
X01085
X01092Y01194
X01085Y01231
X01145Y01246
X009845Y012475
X01007Y01282
X01011Y01212
X01004Y01204
X00892Y01239
X00841Y01238
X00837Y01205
X00831Y0128
X00805Y01304
X0087Y01308
Y01297
X009Y01302
X00876Y01328
X00961Y01316
X00823Y01375
X00781Y01294
Y01279
T02
X00761Y01135
X00776
X01113Y01392
X01128
X01143
X01158
X01173
T03
X00713Y011255
Y011505
Y011755
X00868Y01027
X00893
X00918
X00943
X013865Y01072
X014115
X01536Y011245
Y011495
Y011745
Y011995
Y012245
Y012495
Y012745
Y012995
X0093Y01404
X00905
X0084
X00815
X00713Y013005
Y012755
Y012505
Y012255
Y012005
T04
X00725Y01035
X0102
X01595
Y0139
X0102
X00725
M30
